G75*
%MOIN*%
%OFA0B0*%
%FSLAX25Y25*%
%IPPOS*%
%LPD*%
%AMOC8*
5,1,8,0,0,1.08239X$1,22.5*
%
%ADD10R,0.03937X0.05906*%
%ADD11R,0.05906X0.03937*%
%ADD12R,0.05512X0.03937*%
%ADD13R,0.02756X0.03740*%
%ADD14R,0.08268X0.05433*%
%ADD15R,0.02362X0.04134*%
%ADD16R,0.18543X0.07874*%
%ADD17R,0.09724X0.07874*%
%ADD18R,0.01772X0.04724*%
%ADD19C,0.05937*%
%ADD20C,0.06496*%
%ADD21R,0.04134X0.02362*%
%ADD22R,0.01969X0.01575*%
%ADD23R,0.03150X0.03150*%
%ADD24R,0.01575X0.03937*%
%ADD25R,0.03740X0.02756*%
%ADD26C,0.05937*%
%ADD27R,0.05512X0.03543*%
%ADD28R,0.03937X0.05512*%
%ADD29R,0.08661X0.02362*%
%ADD30R,0.03937X0.01575*%
%ADD31C,0.06299*%
%ADD32C,0.01772*%
%ADD33C,0.01575*%
%ADD34OC8,0.03962*%
%ADD35C,0.01969*%
%ADD36C,0.02756*%
%ADD37C,0.03937*%
%ADD38C,0.01181*%
%ADD39OC8,0.03569*%
D10*
X0124094Y0113268D03*
X0135906Y0113268D03*
D11*
X0069961Y0037480D03*
X0069961Y0025669D03*
X0166417Y0022717D03*
X0166417Y0034528D03*
D12*
X0179803Y0032756D03*
X0188465Y0036496D03*
X0179803Y0040236D03*
X0197520Y0028425D03*
X0206181Y0024685D03*
X0197520Y0020945D03*
X0095157Y0107559D03*
X0103819Y0111299D03*
X0095157Y0115039D03*
D13*
X0096831Y0123110D03*
X0102146Y0123110D03*
X0076555Y0123110D03*
X0071240Y0123110D03*
X0071240Y0115236D03*
X0076555Y0115236D03*
X0076555Y0107362D03*
X0071240Y0107362D03*
X0111594Y0077835D03*
X0116909Y0077835D03*
X0116909Y0069961D03*
X0111594Y0069961D03*
X0111594Y0062087D03*
X0116909Y0062087D03*
X0113957Y0024685D03*
X0108642Y0024685D03*
X0098209Y0024685D03*
X0092894Y0024685D03*
X0082461Y0024685D03*
X0077146Y0024685D03*
X0023406Y0044370D03*
X0018091Y0044370D03*
X0136201Y0020748D03*
X0141516Y0020748D03*
X0187382Y0110315D03*
X0192697Y0110315D03*
D14*
X0088858Y0079764D03*
X0088858Y0062126D03*
X0053031Y0062126D03*
X0053031Y0079764D03*
D15*
X0035315Y0042795D03*
X0027835Y0042795D03*
X0027835Y0032165D03*
X0031575Y0032165D03*
X0035315Y0032165D03*
D16*
X0201634Y0070945D03*
D17*
X0185886Y0070945D03*
D18*
X0135118Y0125276D03*
X0124882Y0125276D03*
D19*
X0115827Y0126457D03*
X0144173Y0126457D03*
D20*
X0146634Y0133150D03*
X0146634Y0140039D03*
X0113366Y0140039D03*
X0113366Y0133150D03*
D21*
X0133543Y0036299D03*
X0133543Y0032559D03*
X0133543Y0028819D03*
X0144173Y0028819D03*
X0144173Y0036299D03*
D22*
X0111102Y0033937D03*
X0111102Y0039055D03*
X0103622Y0039055D03*
X0103622Y0036496D03*
X0103622Y0033937D03*
X0048110Y0092992D03*
X0048110Y0095551D03*
X0048110Y0098110D03*
X0040630Y0098110D03*
X0040630Y0092992D03*
X0028425Y0112677D03*
X0028425Y0115236D03*
X0028425Y0117795D03*
X0020945Y0117795D03*
X0020945Y0112677D03*
D23*
X0127047Y0077835D03*
X0132953Y0077835D03*
X0132953Y0069961D03*
X0127047Y0069961D03*
X0127047Y0062087D03*
X0132953Y0062087D03*
D24*
X0161299Y0103425D03*
X0163661Y0103425D03*
X0095748Y0017795D03*
X0093386Y0017795D03*
D25*
X0154606Y0029902D03*
X0154606Y0035217D03*
X0154606Y0096831D03*
X0147717Y0096831D03*
X0147717Y0102146D03*
X0154606Y0102146D03*
X0083740Y0100768D03*
X0083740Y0106083D03*
X0237283Y0108642D03*
X0237283Y0113957D03*
D26*
X0232598Y0119157D02*
X0232598Y0125094D01*
X0222598Y0125094D02*
X0222598Y0119157D01*
X0212598Y0119157D02*
X0212598Y0125094D01*
X0202598Y0125094D02*
X0202598Y0119157D01*
X0192598Y0119157D02*
X0192598Y0125094D01*
X0242598Y0125094D02*
X0242598Y0119157D01*
D27*
X0225472Y0047913D03*
X0225472Y0040827D03*
X0213661Y0040827D03*
X0213661Y0047913D03*
D28*
X0036299Y0064449D03*
X0028819Y0064449D03*
X0032559Y0055787D03*
D29*
X0038071Y0107736D03*
X0038071Y0112736D03*
X0038071Y0117736D03*
X0038071Y0122736D03*
X0058543Y0122736D03*
X0058543Y0117736D03*
X0058543Y0112736D03*
X0058543Y0107736D03*
X0203425Y0105925D03*
X0203425Y0100925D03*
X0203425Y0095925D03*
X0223898Y0095925D03*
X0223898Y0100925D03*
X0223898Y0105925D03*
X0223898Y0110925D03*
X0203425Y0110925D03*
D30*
X0016811Y0061299D03*
X0016811Y0058937D03*
D31*
X0125000Y0103425D03*
X0135000Y0103425D03*
D32*
X0135906Y0113268D02*
X0135118Y0114055D01*
X0135118Y0125276D01*
X0124882Y0125276D02*
X0124882Y0114055D01*
X0124094Y0113268D01*
D33*
X0088858Y0079764D02*
X0053031Y0079764D01*
X0084331Y0039055D02*
X0077835Y0032559D01*
X0084331Y0039055D02*
X0103622Y0039055D01*
X0103622Y0036496D01*
X0103622Y0033937D02*
X0096929Y0033937D01*
X0093583Y0030591D01*
X0092894Y0029902D01*
X0092894Y0024685D01*
X0107362Y0029606D02*
X0112283Y0029606D01*
X0113268Y0028622D01*
X0113957Y0027933D01*
X0113957Y0024685D01*
X0121142Y0024685D02*
X0129409Y0024685D01*
X0133543Y0028819D01*
X0121142Y0024685D02*
X0111890Y0033937D01*
X0111102Y0033937D01*
X0107362Y0029606D02*
X0107362Y0039055D01*
X0111102Y0039055D01*
D34*
X0124094Y0037480D03*
X0128031Y0032559D03*
X0124094Y0028622D03*
X0130984Y0020748D03*
X0104409Y0018780D03*
X0085709Y0016811D03*
X0077835Y0032559D03*
X0095551Y0040433D03*
X0097520Y0063071D03*
X0108346Y0063071D03*
X0105394Y0077835D03*
X0093583Y0088661D03*
X0110315Y0103425D03*
X0089646Y0114252D03*
X0093583Y0126063D03*
X0112283Y0119173D03*
X0120157Y0119173D03*
X0130000Y0119173D03*
X0148701Y0119173D03*
X0147717Y0109331D03*
X0160512Y0094567D03*
X0175276Y0098504D03*
X0180197Y0113268D03*
X0179213Y0130000D03*
X0185118Y0080787D03*
X0178228Y0077835D03*
X0176260Y0070945D03*
X0178228Y0064055D03*
X0185118Y0061102D03*
X0174291Y0048307D03*
X0157559Y0048307D03*
X0149685Y0044370D03*
X0149685Y0052244D03*
X0157559Y0056181D03*
X0134921Y0046339D03*
X0176260Y0018780D03*
X0208740Y0016811D03*
X0228425Y0023701D03*
X0233346Y0038465D03*
X0154606Y0076850D03*
X0067008Y0123110D03*
X0044370Y0101457D03*
X0053228Y0099488D03*
X0062087Y0088661D03*
X0038465Y0087677D03*
X0014843Y0101457D03*
X0025669Y0121142D03*
X0011890Y0129016D03*
X0046339Y0062087D03*
X0022717Y0049291D03*
X0015827Y0039449D03*
X0021732Y0037480D03*
X0021732Y0031575D03*
X0021732Y0025669D03*
X0021732Y0019764D03*
X0034528Y0021732D03*
X0039449Y0016811D03*
D35*
X0008937Y0008937D02*
X0008937Y0132953D01*
X0108134Y0132953D01*
X0108134Y0132738D01*
X0108263Y0131924D01*
X0108517Y0131141D01*
X0108891Y0130407D01*
X0109375Y0129741D01*
X0109958Y0129159D01*
X0110624Y0128675D01*
X0111239Y0128361D01*
X0111237Y0128358D01*
X0110996Y0127616D01*
X0110874Y0126846D01*
X0110874Y0126457D01*
X0115827Y0126457D01*
X0120780Y0126457D01*
X0120780Y0126846D01*
X0120658Y0127616D01*
X0120417Y0128358D01*
X0120063Y0129052D01*
X0119605Y0129683D01*
X0119053Y0130234D01*
X0118423Y0130693D01*
X0118076Y0130869D01*
X0118215Y0131141D01*
X0118470Y0131924D01*
X0118598Y0132738D01*
X0118598Y0132953D01*
X0141402Y0132953D01*
X0141402Y0132738D01*
X0141530Y0131924D01*
X0141785Y0131141D01*
X0141924Y0130869D01*
X0141577Y0130693D01*
X0140947Y0130234D01*
X0140395Y0129683D01*
X0139937Y0129052D01*
X0139677Y0128543D01*
X0139175Y0129756D01*
X0138123Y0130809D01*
X0136748Y0131378D01*
X0133488Y0131378D01*
X0132114Y0130809D01*
X0131062Y0129756D01*
X0130492Y0128382D01*
X0130492Y0117677D01*
X0130197Y0116964D01*
X0130197Y0108366D01*
X0129159Y0107328D01*
X0128924Y0106759D01*
X0128916Y0106770D01*
X0128344Y0107341D01*
X0127691Y0107816D01*
X0126971Y0108183D01*
X0126429Y0108359D01*
X0126829Y0108466D01*
X0127281Y0108727D01*
X0127651Y0109097D01*
X0127912Y0109549D01*
X0128047Y0110054D01*
X0128047Y0113268D01*
X0128047Y0116482D01*
X0127912Y0116986D01*
X0127651Y0117439D01*
X0127281Y0117808D01*
X0126829Y0118069D01*
X0126324Y0118205D01*
X0124095Y0118205D01*
X0124095Y0113268D01*
X0128047Y0113268D01*
X0124095Y0113268D01*
X0124095Y0113268D01*
X0124094Y0113268D01*
X0124094Y0113268D01*
X0120142Y0113268D01*
X0120142Y0116482D01*
X0120277Y0116986D01*
X0120538Y0117439D01*
X0120908Y0117808D01*
X0121360Y0118069D01*
X0121865Y0118205D01*
X0124094Y0118205D01*
X0124094Y0113268D01*
X0120142Y0113268D01*
X0120142Y0110054D01*
X0120277Y0109549D01*
X0120538Y0109097D01*
X0120908Y0108727D01*
X0121360Y0108466D01*
X0121865Y0108331D01*
X0123484Y0108331D01*
X0123029Y0108183D01*
X0122309Y0107816D01*
X0121656Y0107341D01*
X0121084Y0106770D01*
X0120609Y0106116D01*
X0120242Y0105396D01*
X0119993Y0104627D01*
X0119866Y0103829D01*
X0119866Y0103425D01*
X0119866Y0103021D01*
X0119993Y0102223D01*
X0120242Y0101454D01*
X0120341Y0101260D01*
X0106957Y0101260D01*
X0107824Y0102127D01*
X0108543Y0103863D01*
X0108543Y0106098D01*
X0108693Y0106160D01*
X0109746Y0107212D01*
X0110315Y0108587D01*
X0110315Y0114012D01*
X0109746Y0115386D01*
X0108693Y0116438D01*
X0108543Y0116501D01*
X0108543Y0122377D01*
X0107824Y0124113D01*
X0107264Y0124673D01*
X0107264Y0125724D01*
X0106694Y0127099D01*
X0105642Y0128151D01*
X0104268Y0128720D01*
X0100024Y0128720D01*
X0098649Y0128151D01*
X0097597Y0127099D01*
X0097541Y0126965D01*
X0096831Y0126965D01*
X0096831Y0123110D01*
X0096831Y0119256D01*
X0097541Y0119256D01*
X0097597Y0119122D01*
X0097726Y0118992D01*
X0095158Y0118992D01*
X0095158Y0115039D01*
X0095157Y0115039D02*
X0094370Y0114252D01*
X0089646Y0114252D01*
X0090417Y0115039D02*
X0090417Y0112810D01*
X0090431Y0112760D01*
X0090283Y0112698D01*
X0089231Y0111646D01*
X0088949Y0110965D01*
X0088617Y0111102D01*
X0086592Y0111102D01*
X0086354Y0111201D01*
X0085303Y0111201D01*
X0085137Y0111367D01*
X0083400Y0112087D01*
X0081451Y0112087D01*
X0081673Y0112622D01*
X0081673Y0117850D01*
X0081280Y0118801D01*
X0081280Y0119546D01*
X0081673Y0120496D01*
X0081673Y0125724D01*
X0081104Y0127099D01*
X0080849Y0127354D01*
X0080560Y0128050D01*
X0079231Y0129379D01*
X0078542Y0130068D01*
X0076574Y0132037D01*
X0074837Y0132756D01*
X0032604Y0132756D01*
X0030867Y0132037D01*
X0029538Y0130708D01*
X0026585Y0127755D01*
X0025866Y0126018D01*
X0025866Y0120202D01*
X0025980Y0119928D01*
X0025853Y0119801D01*
X0025632Y0119417D01*
X0025100Y0120701D01*
X0024048Y0121753D01*
X0022673Y0122323D01*
X0022360Y0122323D01*
X0021885Y0122520D01*
X0018430Y0122520D01*
X0016694Y0121800D01*
X0015365Y0120471D01*
X0012806Y0117912D01*
X0012087Y0116176D01*
X0012087Y0110359D01*
X0012806Y0108623D01*
X0014135Y0107294D01*
X0023977Y0097452D01*
X0025714Y0096732D01*
X0029471Y0096732D01*
X0030271Y0095932D01*
X0034847Y0095932D01*
X0035487Y0096572D01*
X0035906Y0096153D01*
X0035906Y0091461D01*
X0036475Y0090086D01*
X0037527Y0089034D01*
X0038175Y0088765D01*
X0038840Y0088101D01*
X0040125Y0087569D01*
X0029325Y0076769D01*
X0025585Y0073029D01*
X0023979Y0071423D01*
X0023455Y0070157D01*
X0018038Y0070157D01*
X0015940Y0069288D01*
X0012956Y0066305D01*
X0012379Y0064913D01*
X0011672Y0064205D01*
X0011102Y0062831D01*
X0011102Y0057406D01*
X0011672Y0056031D01*
X0012379Y0055324D01*
X0012956Y0053932D01*
X0015940Y0050948D01*
X0018038Y0050079D01*
X0021929Y0050079D01*
X0021929Y0049980D01*
X0021284Y0049980D01*
X0019909Y0049411D01*
X0018857Y0048359D01*
X0018801Y0048224D01*
X0018091Y0048224D01*
X0018091Y0044370D01*
X0018091Y0040516D01*
X0018801Y0040516D01*
X0018857Y0040381D01*
X0019909Y0039329D01*
X0021284Y0038760D01*
X0022233Y0038760D01*
X0022648Y0037757D01*
X0023300Y0037106D01*
X0023110Y0036648D01*
X0023110Y0035451D01*
X0022913Y0034976D01*
X0022913Y0029354D01*
X0023483Y0027980D01*
X0024535Y0026928D01*
X0025910Y0026358D01*
X0029760Y0026358D01*
X0030787Y0026784D01*
X0030787Y0026083D01*
X0028806Y0024102D01*
X0028806Y0019362D01*
X0031772Y0016397D01*
X0031772Y0013903D01*
X0032491Y0012166D01*
X0033820Y0010837D01*
X0035556Y0010118D01*
X0065979Y0010118D01*
X0067716Y0010837D01*
X0069045Y0012166D01*
X0069764Y0013903D01*
X0069764Y0021717D01*
X0069961Y0021717D01*
X0073175Y0021717D01*
X0073679Y0021852D01*
X0073944Y0022005D01*
X0074180Y0021597D01*
X0074549Y0021227D01*
X0075002Y0020966D01*
X0075506Y0020831D01*
X0077146Y0020831D01*
X0077856Y0020831D01*
X0077912Y0020696D01*
X0078964Y0019644D01*
X0080339Y0019075D01*
X0084583Y0019075D01*
X0085957Y0019644D01*
X0086274Y0019961D01*
X0088169Y0019961D01*
X0088169Y0017348D01*
X0088858Y0015684D01*
X0088858Y0015083D01*
X0089428Y0013708D01*
X0090480Y0012656D01*
X0091854Y0012087D01*
X0093594Y0012087D01*
X0096744Y0008937D01*
X0008937Y0008937D01*
X0008937Y0010901D02*
X0033756Y0010901D01*
X0032200Y0012868D02*
X0008937Y0012868D01*
X0008937Y0014835D02*
X0031772Y0014835D01*
X0031367Y0016802D02*
X0008937Y0016802D01*
X0008937Y0018769D02*
X0029400Y0018769D01*
X0028806Y0020736D02*
X0008937Y0020736D01*
X0008937Y0022703D02*
X0028806Y0022703D01*
X0029374Y0024670D02*
X0008937Y0024670D01*
X0008937Y0026637D02*
X0025236Y0026637D01*
X0023224Y0028604D02*
X0008937Y0028604D01*
X0008937Y0030571D02*
X0022913Y0030571D01*
X0022913Y0032538D02*
X0008937Y0032538D01*
X0008937Y0034505D02*
X0022913Y0034505D01*
X0023110Y0036472D02*
X0008937Y0036472D01*
X0008937Y0038439D02*
X0022366Y0038439D01*
X0018846Y0040406D02*
X0008937Y0040406D01*
X0008937Y0042373D02*
X0014728Y0042373D01*
X0014728Y0042239D02*
X0014864Y0041734D01*
X0015125Y0041282D01*
X0015494Y0040912D01*
X0015947Y0040651D01*
X0016451Y0040516D01*
X0018090Y0040516D01*
X0018090Y0044370D01*
X0014728Y0044370D01*
X0014728Y0042239D01*
X0015827Y0042106D02*
X0018091Y0044370D01*
X0018090Y0044370D01*
X0018090Y0044370D01*
X0014728Y0044370D01*
X0014728Y0046501D01*
X0014864Y0047006D01*
X0015125Y0047459D01*
X0015494Y0047828D01*
X0015947Y0048089D01*
X0016451Y0048224D01*
X0018090Y0048224D01*
X0018090Y0044370D01*
X0018091Y0044370D01*
X0018090Y0044340D02*
X0018091Y0044340D01*
X0018090Y0042373D02*
X0018091Y0042373D01*
X0015827Y0042106D02*
X0015827Y0039449D01*
X0014728Y0044340D02*
X0008937Y0044340D01*
X0008937Y0046307D02*
X0014728Y0046307D01*
X0018090Y0046307D02*
X0018091Y0046307D01*
X0018822Y0048274D02*
X0008937Y0048274D01*
X0008937Y0050241D02*
X0017645Y0050241D01*
X0014679Y0052208D02*
X0008937Y0052208D01*
X0008937Y0054175D02*
X0012855Y0054175D01*
X0011626Y0056142D02*
X0008937Y0056142D01*
X0008937Y0058109D02*
X0011102Y0058109D01*
X0011102Y0060076D02*
X0008937Y0060076D01*
X0008937Y0062043D02*
X0011102Y0062043D01*
X0011591Y0064010D02*
X0008937Y0064010D01*
X0008937Y0065977D02*
X0012820Y0065977D01*
X0014596Y0067944D02*
X0008937Y0067944D01*
X0008937Y0069912D02*
X0017444Y0069912D01*
X0019735Y0074685D02*
X0023729Y0074685D01*
X0027419Y0076213D01*
X0030243Y0079038D01*
X0031772Y0082727D01*
X0031772Y0086721D01*
X0030243Y0090411D01*
X0027419Y0093235D01*
X0023729Y0094764D01*
X0019735Y0094764D01*
X0016045Y0093235D01*
X0013221Y0090411D01*
X0011693Y0086721D01*
X0011693Y0082727D01*
X0013221Y0079038D01*
X0016045Y0076213D01*
X0019735Y0074685D01*
X0017013Y0075813D02*
X0008937Y0075813D01*
X0008937Y0077780D02*
X0014479Y0077780D01*
X0012928Y0079747D02*
X0008937Y0079747D01*
X0008937Y0081714D02*
X0012113Y0081714D01*
X0011693Y0083681D02*
X0008937Y0083681D01*
X0008937Y0085648D02*
X0011693Y0085648D01*
X0012063Y0087615D02*
X0008937Y0087615D01*
X0008937Y0089582D02*
X0012878Y0089582D01*
X0014359Y0091549D02*
X0008937Y0091549D01*
X0008937Y0093516D02*
X0016722Y0093516D01*
X0022012Y0099417D02*
X0008937Y0099417D01*
X0008937Y0101384D02*
X0020045Y0101384D01*
X0018078Y0103351D02*
X0008937Y0103351D01*
X0008937Y0105318D02*
X0016111Y0105318D01*
X0014144Y0107285D02*
X0008937Y0107285D01*
X0008937Y0109252D02*
X0012545Y0109252D01*
X0012087Y0111219D02*
X0008937Y0111219D01*
X0008937Y0113186D02*
X0012087Y0113186D01*
X0012087Y0115153D02*
X0008937Y0115153D01*
X0008937Y0117120D02*
X0012478Y0117120D01*
X0013980Y0119087D02*
X0008937Y0119087D01*
X0008937Y0121054D02*
X0015947Y0121054D01*
X0019370Y0117795D02*
X0020945Y0117795D01*
X0019370Y0117795D02*
X0016811Y0115236D01*
X0016811Y0111299D01*
X0026654Y0101457D01*
X0032559Y0101457D01*
X0038071Y0100669D02*
X0038071Y0107736D01*
X0025886Y0107736D01*
X0020945Y0112677D01*
X0030591Y0121142D02*
X0033996Y0117736D01*
X0038071Y0117736D01*
X0038071Y0122736D02*
X0044744Y0122736D01*
X0048307Y0119173D01*
X0048307Y0116220D01*
X0051260Y0113268D01*
X0051791Y0112736D01*
X0058543Y0112736D01*
X0064587Y0112736D01*
X0066024Y0111299D01*
X0066024Y0105394D01*
X0064055Y0103425D01*
X0053425Y0103425D01*
X0050276Y0103425D01*
X0048307Y0101457D01*
X0048307Y0098307D01*
X0048307Y0092106D02*
X0041516Y0092106D01*
X0040630Y0092992D01*
X0040630Y0098110D01*
X0038071Y0100669D01*
X0035906Y0095483D02*
X0008937Y0095483D01*
X0008937Y0097450D02*
X0023982Y0097450D01*
X0026742Y0093516D02*
X0035906Y0093516D01*
X0035906Y0091549D02*
X0029106Y0091549D01*
X0030587Y0089582D02*
X0036979Y0089582D01*
X0040014Y0087615D02*
X0031402Y0087615D01*
X0031772Y0085648D02*
X0038204Y0085648D01*
X0036237Y0083681D02*
X0031772Y0083681D01*
X0031352Y0081714D02*
X0034270Y0081714D01*
X0032303Y0079747D02*
X0030537Y0079747D01*
X0030336Y0077780D02*
X0028985Y0077780D01*
X0028369Y0075813D02*
X0026451Y0075813D01*
X0026402Y0073846D02*
X0008937Y0073846D01*
X0008937Y0071879D02*
X0024435Y0071879D01*
X0036299Y0066811D02*
X0036299Y0064449D01*
X0036299Y0066811D02*
X0042402Y0072913D01*
X0047212Y0069912D02*
X0101616Y0069912D01*
X0100749Y0069045D02*
X0099420Y0067716D01*
X0098701Y0065979D01*
X0098701Y0062690D01*
X0096216Y0062690D01*
X0095416Y0061890D01*
X0089232Y0061890D01*
X0089232Y0062500D01*
X0088484Y0062500D01*
X0088484Y0061890D01*
X0071918Y0061890D01*
X0070668Y0063139D01*
X0068932Y0063858D01*
X0059150Y0063858D01*
X0059150Y0065104D01*
X0059014Y0065608D01*
X0058753Y0066061D01*
X0058384Y0066430D01*
X0057931Y0066692D01*
X0057427Y0066827D01*
X0053406Y0066827D01*
X0053406Y0063858D01*
X0052657Y0063858D01*
X0052657Y0066827D01*
X0048636Y0066827D01*
X0048132Y0066692D01*
X0047679Y0066430D01*
X0047310Y0066061D01*
X0047049Y0065608D01*
X0046913Y0065104D01*
X0046913Y0063858D01*
X0042008Y0063858D01*
X0042008Y0065838D01*
X0043558Y0067389D01*
X0044690Y0067389D01*
X0047926Y0070625D01*
X0047926Y0073401D01*
X0048154Y0073307D01*
X0057909Y0073307D01*
X0059284Y0073876D01*
X0060336Y0074929D01*
X0060464Y0075236D01*
X0081426Y0075236D01*
X0081554Y0074929D01*
X0082606Y0073876D01*
X0083980Y0073307D01*
X0093736Y0073307D01*
X0095111Y0073876D01*
X0096163Y0074929D01*
X0096209Y0075039D01*
X0096452Y0075039D01*
X0098188Y0075759D01*
X0105382Y0082953D01*
X0113599Y0082953D01*
X0113413Y0082875D01*
X0112361Y0081823D01*
X0112305Y0081689D01*
X0111595Y0081689D01*
X0111595Y0077835D01*
X0111594Y0077835D01*
X0111594Y0077835D01*
X0108232Y0077835D01*
X0108232Y0079966D01*
X0108368Y0080471D01*
X0108629Y0080923D01*
X0108998Y0081293D01*
X0109451Y0081554D01*
X0109955Y0081689D01*
X0111594Y0081689D01*
X0111594Y0077835D01*
X0108232Y0077835D01*
X0108232Y0075703D01*
X0108368Y0075199D01*
X0108407Y0075130D01*
X0108098Y0075001D01*
X0107781Y0074685D01*
X0107407Y0074685D01*
X0105670Y0073966D01*
X0100749Y0069045D01*
X0099649Y0067944D02*
X0045245Y0067944D01*
X0047262Y0065977D02*
X0042147Y0065977D01*
X0042008Y0064010D02*
X0046913Y0064010D01*
X0046378Y0062126D02*
X0046339Y0062087D01*
X0046378Y0062126D02*
X0053031Y0062126D01*
X0052657Y0064010D02*
X0053406Y0064010D01*
X0053406Y0065977D02*
X0052657Y0065977D01*
X0058801Y0065977D02*
X0083088Y0065977D01*
X0083137Y0066061D02*
X0082875Y0065608D01*
X0082740Y0065104D01*
X0082740Y0062500D01*
X0088484Y0062500D01*
X0088484Y0066827D01*
X0084463Y0066827D01*
X0083959Y0066692D01*
X0083506Y0066430D01*
X0083137Y0066061D01*
X0082740Y0064010D02*
X0059150Y0064010D01*
X0060905Y0059134D02*
X0067992Y0059134D01*
X0067992Y0056968D01*
X0067052Y0056968D01*
X0065316Y0056249D01*
X0063987Y0054920D01*
X0051271Y0042205D01*
X0038480Y0042205D01*
X0038480Y0042795D01*
X0035315Y0042795D01*
X0035315Y0042795D01*
X0038480Y0042795D01*
X0038480Y0045123D01*
X0038345Y0045628D01*
X0038084Y0046081D01*
X0037714Y0046450D01*
X0037262Y0046711D01*
X0036757Y0046846D01*
X0035315Y0046846D01*
X0035315Y0042795D01*
X0035315Y0042795D01*
X0035315Y0046846D01*
X0033873Y0046846D01*
X0033368Y0046711D01*
X0032915Y0046450D01*
X0032555Y0046090D01*
X0032186Y0046981D01*
X0031134Y0048033D01*
X0029760Y0048602D01*
X0028438Y0048602D01*
X0028438Y0051661D01*
X0026654Y0053445D01*
X0026654Y0057953D01*
X0028606Y0057953D01*
X0028606Y0055787D01*
X0028606Y0052770D01*
X0028742Y0052266D01*
X0029003Y0051813D01*
X0029372Y0051444D01*
X0029825Y0051182D01*
X0030329Y0051047D01*
X0032559Y0051047D01*
X0032559Y0055787D01*
X0032559Y0055787D01*
X0032559Y0051047D01*
X0034789Y0051047D01*
X0035293Y0051182D01*
X0035746Y0051444D01*
X0036115Y0051813D01*
X0036377Y0052266D01*
X0036512Y0052770D01*
X0036512Y0055787D01*
X0032559Y0055787D01*
X0028606Y0055787D01*
X0032559Y0055787D01*
X0032559Y0055787D01*
X0032559Y0055787D01*
X0036512Y0055787D01*
X0036512Y0057953D01*
X0039012Y0057953D01*
X0040386Y0058522D01*
X0040998Y0059134D01*
X0041200Y0059134D01*
X0043969Y0056365D01*
X0046652Y0056365D01*
X0046779Y0056239D01*
X0048154Y0055669D01*
X0057909Y0055669D01*
X0059284Y0056239D01*
X0060336Y0057291D01*
X0060905Y0058665D01*
X0060905Y0059134D01*
X0060675Y0058109D02*
X0067992Y0058109D01*
X0065209Y0056142D02*
X0059051Y0056142D01*
X0060118Y0056181D02*
X0057953Y0054016D01*
X0034331Y0054016D01*
X0032559Y0054175D02*
X0032559Y0054175D01*
X0032559Y0052208D02*
X0032559Y0052208D01*
X0028775Y0052208D02*
X0027891Y0052208D01*
X0028438Y0050241D02*
X0059308Y0050241D01*
X0057341Y0048274D02*
X0030552Y0048274D01*
X0032465Y0046307D02*
X0032773Y0046307D01*
X0035315Y0046307D02*
X0035315Y0046307D01*
X0035315Y0044340D02*
X0035315Y0044340D01*
X0038480Y0044340D02*
X0053407Y0044340D01*
X0051440Y0042373D02*
X0038480Y0042373D01*
X0037857Y0046307D02*
X0055374Y0046307D01*
X0061275Y0052208D02*
X0036344Y0052208D01*
X0036512Y0054175D02*
X0063242Y0054175D01*
X0061102Y0057165D02*
X0060118Y0056181D01*
X0061102Y0057165D02*
X0098504Y0057165D01*
X0097480Y0062126D02*
X0097520Y0063071D01*
X0097480Y0062126D02*
X0088858Y0062126D01*
X0088484Y0062043D02*
X0071764Y0062043D01*
X0067992Y0052244D02*
X0103425Y0052244D01*
X0103720Y0052539D01*
X0103425Y0052244D01*
X0103425Y0065039D01*
X0108346Y0069961D01*
X0111594Y0069961D01*
X0116909Y0069961D02*
X0127047Y0069961D01*
X0132953Y0069961D02*
X0138858Y0069961D01*
X0138858Y0075866D01*
X0142795Y0079803D01*
X0146732Y0079803D01*
X0152257Y0079016D02*
X0152257Y0077515D01*
X0149021Y0074279D01*
X0144444Y0074279D01*
X0144198Y0074525D01*
X0143583Y0073909D01*
X0143583Y0058194D01*
X0142863Y0056458D01*
X0141534Y0055129D01*
X0139566Y0053160D01*
X0137830Y0052441D01*
X0127050Y0052441D01*
X0138383Y0041108D01*
X0138987Y0039650D01*
X0139988Y0040651D01*
X0140780Y0040979D01*
X0140940Y0041139D01*
X0143038Y0042008D01*
X0157756Y0042008D01*
X0157756Y0043341D01*
X0158475Y0045078D01*
X0159804Y0046407D01*
X0159804Y0046407D01*
X0160893Y0047495D01*
X0160893Y0048627D01*
X0164129Y0051863D01*
X0168706Y0051863D01*
X0171942Y0048627D01*
X0171942Y0045896D01*
X0172003Y0045957D01*
X0176580Y0045957D01*
X0176592Y0045945D01*
X0183303Y0045945D01*
X0184678Y0045375D01*
X0185315Y0044738D01*
X0185315Y0069961D01*
X0184902Y0069961D01*
X0184902Y0065024D01*
X0180762Y0065024D01*
X0180258Y0065159D01*
X0179805Y0065420D01*
X0179436Y0065790D01*
X0179175Y0066242D01*
X0179039Y0066747D01*
X0179039Y0069961D01*
X0184902Y0069961D01*
X0184902Y0071929D01*
X0184902Y0076866D01*
X0180762Y0076866D01*
X0180258Y0076731D01*
X0179805Y0076470D01*
X0179436Y0076100D01*
X0179175Y0075648D01*
X0179039Y0075143D01*
X0179039Y0071929D01*
X0184902Y0071929D01*
X0185315Y0071929D01*
X0185315Y0084145D01*
X0182234Y0081064D01*
X0180905Y0079735D01*
X0179168Y0079016D01*
X0152257Y0079016D01*
X0152257Y0077780D02*
X0185315Y0077780D01*
X0185315Y0079747D02*
X0180916Y0079747D01*
X0182883Y0081714D02*
X0185315Y0081714D01*
X0185315Y0083681D02*
X0184850Y0083681D01*
X0190039Y0083957D02*
X0190039Y0087738D01*
X0191627Y0089326D01*
X0191627Y0090827D01*
X0203991Y0090827D01*
X0204419Y0091004D01*
X0208500Y0091004D01*
X0208975Y0091201D01*
X0210199Y0091201D01*
X0211373Y0090027D01*
X0215950Y0090027D01*
X0217482Y0091559D01*
X0218823Y0091004D01*
X0228972Y0091004D01*
X0229448Y0091201D01*
X0237758Y0091201D01*
X0238932Y0090027D01*
X0243509Y0090027D01*
X0245096Y0091614D01*
X0245157Y0091614D01*
X0245157Y0044370D01*
X0231543Y0044370D01*
X0231399Y0044717D01*
X0230347Y0045769D01*
X0230199Y0045830D01*
X0230213Y0045880D01*
X0230213Y0047913D01*
X0225473Y0047913D01*
X0225473Y0047913D01*
X0230213Y0047913D01*
X0230213Y0049946D01*
X0230077Y0050451D01*
X0229816Y0050903D01*
X0229447Y0051273D01*
X0228994Y0051534D01*
X0228490Y0051669D01*
X0225472Y0051669D01*
X0222455Y0051669D01*
X0221951Y0051534D01*
X0221498Y0051273D01*
X0221129Y0050903D01*
X0220868Y0050451D01*
X0220732Y0049946D01*
X0220732Y0047913D01*
X0220732Y0045880D01*
X0220746Y0045830D01*
X0220598Y0045769D01*
X0219567Y0044738D01*
X0218536Y0045769D01*
X0218388Y0045830D01*
X0218402Y0045880D01*
X0218402Y0047913D01*
X0213662Y0047913D01*
X0213662Y0047913D01*
X0218402Y0047913D01*
X0218402Y0049946D01*
X0218266Y0050451D01*
X0218005Y0050903D01*
X0217636Y0051273D01*
X0217183Y0051534D01*
X0216679Y0051669D01*
X0213661Y0051669D01*
X0210644Y0051669D01*
X0210140Y0051534D01*
X0209687Y0051273D01*
X0209318Y0050903D01*
X0209056Y0050451D01*
X0208921Y0049946D01*
X0208921Y0047913D01*
X0208921Y0045880D01*
X0208935Y0045830D01*
X0208787Y0045769D01*
X0207735Y0044717D01*
X0207591Y0044370D01*
X0190039Y0044370D01*
X0190039Y0057933D01*
X0190839Y0058733D01*
X0190839Y0063268D01*
X0191492Y0063268D01*
X0192867Y0063837D01*
X0193919Y0064889D01*
X0193974Y0065024D01*
X0200650Y0065024D01*
X0200650Y0069961D01*
X0202618Y0069961D01*
X0202618Y0071929D01*
X0212890Y0071929D01*
X0212890Y0075143D01*
X0212755Y0075648D01*
X0212493Y0076100D01*
X0212124Y0076470D01*
X0211671Y0076731D01*
X0211167Y0076866D01*
X0202618Y0076866D01*
X0202618Y0071929D01*
X0200650Y0071929D01*
X0200650Y0076866D01*
X0193974Y0076866D01*
X0193919Y0077001D01*
X0192867Y0078053D01*
X0191492Y0078622D01*
X0190839Y0078622D01*
X0190839Y0083157D01*
X0190039Y0083957D01*
X0190316Y0083681D02*
X0245157Y0083681D01*
X0245157Y0085648D02*
X0190039Y0085648D01*
X0190039Y0087615D02*
X0245157Y0087615D01*
X0245157Y0089582D02*
X0191627Y0089582D01*
X0186102Y0091614D02*
X0178228Y0083740D01*
X0138858Y0083740D01*
X0132953Y0077835D01*
X0127047Y0077835D02*
X0116909Y0077835D01*
X0111594Y0077835D02*
X0105394Y0077835D01*
X0108232Y0077780D02*
X0100209Y0077780D01*
X0102176Y0079747D02*
X0108232Y0079747D01*
X0111594Y0079747D02*
X0111595Y0079747D01*
X0112315Y0081714D02*
X0104143Y0081714D01*
X0103425Y0087677D02*
X0174291Y0087677D01*
X0182165Y0095551D01*
X0203051Y0095551D01*
X0203425Y0095925D01*
X0213287Y0095925D01*
X0213661Y0095551D01*
X0217472Y0091549D02*
X0217508Y0091549D01*
X0223898Y0095925D02*
X0240846Y0095925D01*
X0241220Y0095551D01*
X0245157Y0099488D02*
X0231378Y0099488D01*
X0229941Y0100925D01*
X0216161Y0100925D01*
X0213661Y0103425D01*
X0211693Y0105394D01*
X0211693Y0111299D01*
X0202598Y0120394D01*
X0202598Y0122126D01*
X0212598Y0122126D02*
X0213661Y0121063D01*
X0213661Y0115236D01*
X0215630Y0113268D01*
X0215630Y0107362D01*
X0217067Y0105925D01*
X0230846Y0105925D01*
X0233346Y0103425D01*
X0249094Y0103425D01*
X0242598Y0109724D02*
X0241516Y0108642D01*
X0237283Y0108642D01*
X0233642Y0108642D01*
X0237283Y0113957D02*
X0232598Y0118642D01*
X0232598Y0122126D01*
X0232362Y0122362D01*
X0232362Y0126063D01*
X0228425Y0130000D01*
X0190039Y0130000D01*
X0187087Y0127047D01*
X0187087Y0116220D01*
X0187087Y0119173D01*
X0170354Y0119173D01*
X0166417Y0115236D01*
X0160893Y0115153D02*
X0141614Y0115153D01*
X0141614Y0116964D02*
X0141045Y0118339D01*
X0139993Y0119391D01*
X0139744Y0119494D01*
X0139744Y0124240D01*
X0139937Y0123861D01*
X0140395Y0123230D01*
X0140947Y0122679D01*
X0141577Y0122221D01*
X0142272Y0121867D01*
X0143013Y0121626D01*
X0143783Y0121504D01*
X0144173Y0121504D01*
X0144173Y0126457D01*
X0149126Y0126457D01*
X0149126Y0126846D01*
X0149004Y0127616D01*
X0148763Y0128358D01*
X0148761Y0128361D01*
X0149376Y0128675D01*
X0150042Y0129159D01*
X0150625Y0129741D01*
X0151109Y0130407D01*
X0151483Y0131141D01*
X0151737Y0131924D01*
X0151866Y0132738D01*
X0151866Y0132953D01*
X0186311Y0132953D01*
X0186034Y0132676D01*
X0183081Y0129723D01*
X0182362Y0127987D01*
X0182362Y0123898D01*
X0169415Y0123898D01*
X0167678Y0123178D01*
X0165260Y0120761D01*
X0164129Y0120761D01*
X0160893Y0117524D01*
X0160893Y0112948D01*
X0164129Y0109712D01*
X0168706Y0109712D01*
X0171942Y0112948D01*
X0171942Y0114079D01*
X0172311Y0114449D01*
X0182707Y0114449D01*
X0183081Y0113544D01*
X0184053Y0112572D01*
X0184020Y0112446D01*
X0184020Y0110650D01*
X0171915Y0110650D01*
X0170178Y0109930D01*
X0168849Y0108601D01*
X0168397Y0108150D01*
X0166982Y0108150D01*
X0166567Y0108564D01*
X0165193Y0109134D01*
X0159768Y0109134D01*
X0158393Y0108564D01*
X0157978Y0108150D01*
X0148056Y0108150D01*
X0146320Y0107430D01*
X0146153Y0107264D01*
X0145102Y0107264D01*
X0143728Y0106694D01*
X0142676Y0105642D01*
X0142106Y0104268D01*
X0142106Y0100024D01*
X0142328Y0099488D01*
X0142106Y0098953D01*
X0142106Y0094801D01*
X0141208Y0093902D01*
X0141208Y0092402D01*
X0135908Y0092402D01*
X0139840Y0096333D01*
X0140709Y0098431D01*
X0140709Y0099390D01*
X0140841Y0099522D01*
X0141890Y0102055D01*
X0141890Y0104796D01*
X0141614Y0105461D01*
X0141614Y0116964D01*
X0141550Y0117120D02*
X0160893Y0117120D01*
X0162455Y0119087D02*
X0140297Y0119087D01*
X0139744Y0121054D02*
X0165554Y0121054D01*
X0167521Y0123021D02*
X0147742Y0123021D01*
X0147951Y0123230D02*
X0148409Y0123861D01*
X0148763Y0124555D01*
X0149004Y0125297D01*
X0149126Y0126067D01*
X0149126Y0126457D01*
X0144173Y0126457D01*
X0144173Y0126457D01*
X0144173Y0126457D01*
X0144173Y0121504D01*
X0144563Y0121504D01*
X0145333Y0121626D01*
X0146074Y0121867D01*
X0146769Y0122221D01*
X0147400Y0122679D01*
X0147951Y0123230D01*
X0148904Y0124988D02*
X0182362Y0124988D01*
X0182362Y0126955D02*
X0149109Y0126955D01*
X0149717Y0128922D02*
X0182749Y0128922D01*
X0184247Y0130889D02*
X0151354Y0130889D01*
X0151866Y0132856D02*
X0186214Y0132856D01*
X0187087Y0116220D02*
X0188071Y0115236D01*
X0189055Y0114252D01*
X0190039Y0114252D01*
X0192697Y0111594D01*
X0192697Y0110315D01*
X0193071Y0110925D01*
X0203425Y0110925D01*
X0203425Y0105925D02*
X0172854Y0105925D01*
X0170354Y0103425D01*
X0164449Y0103425D01*
X0160512Y0103425D02*
X0155591Y0103425D01*
X0154606Y0103425D01*
X0148996Y0103425D01*
X0147717Y0102146D01*
X0142106Y0101384D02*
X0141612Y0101384D01*
X0141890Y0103351D02*
X0142106Y0103351D01*
X0141673Y0105318D02*
X0142541Y0105318D01*
X0141614Y0107285D02*
X0146174Y0107285D01*
X0141614Y0109252D02*
X0169500Y0109252D01*
X0170213Y0111219D02*
X0184020Y0111219D01*
X0183150Y0110315D02*
X0180197Y0113268D01*
X0183440Y0113186D02*
X0171942Y0113186D01*
X0162622Y0111219D02*
X0141614Y0111219D01*
X0141614Y0113186D02*
X0160893Y0113186D01*
X0154606Y0103425D02*
X0154606Y0102146D01*
X0154606Y0103425D01*
X0159023Y0098025D02*
X0159768Y0097717D01*
X0165193Y0097717D01*
X0166567Y0098286D01*
X0166982Y0098701D01*
X0171294Y0098701D01*
X0173030Y0099420D01*
X0174811Y0101201D01*
X0180578Y0101201D01*
X0180578Y0100007D01*
X0179489Y0099556D01*
X0178160Y0098227D01*
X0172334Y0092402D01*
X0152441Y0092402D01*
X0152441Y0093018D01*
X0152757Y0093334D01*
X0152813Y0093469D01*
X0154606Y0093469D01*
X0154606Y0096831D01*
X0158461Y0096831D01*
X0158461Y0097541D01*
X0158595Y0097597D01*
X0159023Y0098025D01*
X0158461Y0097450D02*
X0177383Y0097450D01*
X0179350Y0099417D02*
X0173023Y0099417D01*
X0175416Y0095483D02*
X0158461Y0095483D01*
X0158461Y0095192D02*
X0158461Y0096831D01*
X0154606Y0096831D01*
X0154606Y0096831D01*
X0154606Y0096831D01*
X0154606Y0093468D01*
X0156738Y0093469D01*
X0157242Y0093604D01*
X0157695Y0093865D01*
X0158064Y0094234D01*
X0158325Y0094687D01*
X0158461Y0095192D01*
X0156914Y0093516D02*
X0173449Y0093516D01*
X0186102Y0099488D02*
X0187539Y0100925D01*
X0203425Y0100925D01*
X0216161Y0100925D02*
X0223898Y0100925D01*
X0223898Y0105925D02*
X0217067Y0105925D01*
X0222598Y0112224D02*
X0223898Y0110925D01*
X0223898Y0110925D01*
X0223898Y0114091D01*
X0228178Y0114091D01*
X0226911Y0115357D01*
X0226566Y0116192D01*
X0226376Y0115931D01*
X0225825Y0115380D01*
X0225194Y0114922D01*
X0224500Y0114568D01*
X0223758Y0114327D01*
X0222988Y0114205D01*
X0222598Y0114205D01*
X0222598Y0122126D01*
X0222598Y0122126D01*
X0222598Y0112224D01*
X0223898Y0113186D02*
X0223898Y0113186D01*
X0223898Y0114091D02*
X0220354Y0114091D01*
X0220354Y0114207D01*
X0220074Y0114885D01*
X0220697Y0114568D01*
X0221439Y0114327D01*
X0222209Y0114205D01*
X0222598Y0114205D01*
X0222598Y0122126D01*
X0222598Y0121054D02*
X0222598Y0121054D01*
X0222598Y0119087D02*
X0222598Y0119087D01*
X0222598Y0117120D02*
X0222598Y0117120D01*
X0222598Y0115153D02*
X0222598Y0115153D01*
X0223898Y0114091D02*
X0223898Y0110925D01*
X0223898Y0111219D02*
X0223898Y0111219D01*
X0225513Y0115153D02*
X0227116Y0115153D01*
X0242598Y0111299D02*
X0242598Y0109724D01*
X0242598Y0111299D01*
X0242598Y0122126D01*
X0245031Y0091549D02*
X0245157Y0091549D01*
X0245157Y0081714D02*
X0190839Y0081714D01*
X0190839Y0079747D02*
X0245157Y0079747D01*
X0245157Y0077780D02*
X0193140Y0077780D01*
X0185315Y0075813D02*
X0184902Y0075813D01*
X0184902Y0073846D02*
X0185315Y0073846D01*
X0184902Y0071879D02*
X0143583Y0071879D01*
X0143583Y0073846D02*
X0179039Y0073846D01*
X0179270Y0075813D02*
X0150554Y0075813D01*
X0143583Y0069912D02*
X0179039Y0069912D01*
X0179039Y0067944D02*
X0143583Y0067944D01*
X0143583Y0065977D02*
X0179327Y0065977D01*
X0184902Y0065977D02*
X0185315Y0065977D01*
X0185315Y0064010D02*
X0143583Y0064010D01*
X0143583Y0062043D02*
X0185315Y0062043D01*
X0185315Y0060076D02*
X0143583Y0060076D01*
X0143548Y0058109D02*
X0185315Y0058109D01*
X0185315Y0056142D02*
X0142548Y0056142D01*
X0140581Y0054175D02*
X0185315Y0054175D01*
X0185315Y0052208D02*
X0127282Y0052208D01*
X0129249Y0050241D02*
X0162507Y0050241D01*
X0160893Y0048274D02*
X0131216Y0048274D01*
X0133183Y0046307D02*
X0159705Y0046307D01*
X0158170Y0044340D02*
X0135150Y0044340D01*
X0137117Y0042373D02*
X0157756Y0042373D01*
X0162480Y0042402D02*
X0162480Y0036299D01*
X0160232Y0030591D02*
X0160294Y0030440D01*
X0161346Y0029388D01*
X0162721Y0028819D01*
X0164053Y0028819D01*
X0164955Y0027916D01*
X0167053Y0027047D01*
X0174094Y0027047D01*
X0174094Y0025912D01*
X0174964Y0023814D01*
X0177326Y0021451D01*
X0182672Y0016105D01*
X0184770Y0015236D01*
X0201020Y0015236D01*
X0202394Y0015806D01*
X0203446Y0016858D01*
X0204016Y0018232D01*
X0204016Y0018976D01*
X0214797Y0018976D01*
X0216895Y0019845D01*
X0228706Y0031656D01*
X0230312Y0033262D01*
X0231181Y0035361D01*
X0231181Y0036718D01*
X0231399Y0036936D01*
X0231968Y0038311D01*
X0231968Y0039646D01*
X0236557Y0039646D01*
X0235696Y0038784D01*
X0235696Y0034208D01*
X0236496Y0033408D01*
X0236496Y0014831D01*
X0235327Y0013661D01*
X0105382Y0013661D01*
X0100276Y0018768D01*
X0100276Y0019075D01*
X0100331Y0019075D01*
X0101705Y0019644D01*
X0102022Y0019961D01*
X0104829Y0019961D01*
X0105145Y0019644D01*
X0106520Y0019075D01*
X0110764Y0019075D01*
X0111299Y0019297D01*
X0111835Y0019075D01*
X0116079Y0019075D01*
X0117453Y0019644D01*
X0118505Y0020696D01*
X0118570Y0020853D01*
X0118577Y0020847D01*
X0120241Y0020157D01*
X0130310Y0020157D01*
X0131974Y0020847D01*
X0132839Y0021711D01*
X0132839Y0020748D01*
X0136201Y0020748D01*
X0136201Y0016894D01*
X0136911Y0016894D01*
X0136967Y0016759D01*
X0138019Y0015707D01*
X0139394Y0015138D01*
X0143638Y0015138D01*
X0145012Y0015707D01*
X0146064Y0016759D01*
X0146634Y0018134D01*
X0146634Y0019185D01*
X0146849Y0019400D01*
X0148178Y0020729D01*
X0148898Y0022466D01*
X0148898Y0024094D01*
X0154463Y0024094D01*
X0156127Y0024783D01*
X0157220Y0024783D01*
X0158595Y0025353D01*
X0159647Y0026405D01*
X0160217Y0027780D01*
X0160217Y0030591D01*
X0160232Y0030591D01*
X0160240Y0030571D02*
X0160217Y0030571D01*
X0160217Y0028604D02*
X0164267Y0028604D01*
X0163203Y0026669D02*
X0162699Y0026534D01*
X0162246Y0026273D01*
X0161877Y0025903D01*
X0161616Y0025451D01*
X0161480Y0024946D01*
X0161480Y0022717D01*
X0166417Y0022717D01*
X0166417Y0026669D01*
X0163203Y0026669D01*
X0163083Y0026637D02*
X0159743Y0026637D01*
X0161480Y0024670D02*
X0155853Y0024670D01*
X0153524Y0028819D02*
X0154606Y0029902D01*
X0153524Y0028819D02*
X0144173Y0028819D01*
X0144173Y0023406D01*
X0141516Y0020748D01*
X0136201Y0020748D02*
X0136201Y0020748D01*
X0136201Y0016894D01*
X0134562Y0016894D01*
X0134057Y0017029D01*
X0133604Y0017290D01*
X0133235Y0017660D01*
X0132974Y0018112D01*
X0132839Y0018617D01*
X0132839Y0020748D01*
X0136201Y0020748D01*
X0136201Y0020748D01*
X0136201Y0020736D02*
X0136201Y0020736D01*
X0136201Y0018769D02*
X0136201Y0018769D01*
X0136949Y0016802D02*
X0102241Y0016802D01*
X0100276Y0018769D02*
X0132839Y0018769D01*
X0132839Y0020736D02*
X0131707Y0020736D01*
X0127534Y0029213D02*
X0123017Y0029213D01*
X0115498Y0036731D01*
X0115827Y0037524D01*
X0115827Y0040586D01*
X0115257Y0041961D01*
X0114620Y0042598D01*
X0120746Y0042598D01*
X0127736Y0035608D01*
X0127736Y0034374D01*
X0128306Y0032999D01*
X0128746Y0032559D01*
X0128306Y0032119D01*
X0127736Y0030744D01*
X0127736Y0029415D01*
X0127534Y0029213D01*
X0127736Y0030571D02*
X0121658Y0030571D01*
X0119691Y0032538D02*
X0128725Y0032538D01*
X0127736Y0034505D02*
X0117724Y0034505D01*
X0115757Y0036472D02*
X0126872Y0036472D01*
X0124905Y0038439D02*
X0115827Y0038439D01*
X0115827Y0040406D02*
X0122938Y0040406D01*
X0120971Y0042373D02*
X0114845Y0042373D01*
X0107362Y0039055D02*
X0107362Y0048307D01*
X0102638Y0042598D02*
X0102638Y0041827D01*
X0102377Y0041827D01*
X0101872Y0041692D01*
X0101419Y0041430D01*
X0101050Y0041061D01*
X0100789Y0040608D01*
X0100654Y0040104D01*
X0100654Y0039055D01*
X0100654Y0038465D01*
X0096029Y0038465D01*
X0094364Y0037775D01*
X0091018Y0034429D01*
X0090329Y0033740D01*
X0089055Y0032466D01*
X0088366Y0030802D01*
X0088366Y0029409D01*
X0086274Y0029409D01*
X0085957Y0029726D01*
X0084583Y0030295D01*
X0080339Y0030295D01*
X0078964Y0029726D01*
X0077912Y0028674D01*
X0077856Y0028539D01*
X0077146Y0028539D01*
X0077146Y0024685D01*
X0077146Y0020831D01*
X0077146Y0024685D01*
X0077146Y0024685D01*
X0077146Y0024685D01*
X0077146Y0028539D01*
X0075506Y0028539D01*
X0075002Y0028404D01*
X0074794Y0028284D01*
X0074762Y0028404D01*
X0074501Y0028856D01*
X0074132Y0029226D01*
X0073679Y0029487D01*
X0073175Y0029622D01*
X0070176Y0029622D01*
X0072325Y0031772D01*
X0073657Y0031772D01*
X0075032Y0032341D01*
X0076084Y0033393D01*
X0076654Y0034768D01*
X0076654Y0036100D01*
X0083152Y0042598D01*
X0102638Y0042598D01*
X0102638Y0042373D02*
X0082927Y0042373D01*
X0080960Y0040406D02*
X0100735Y0040406D01*
X0100654Y0039055D02*
X0101738Y0039055D01*
X0101738Y0039055D01*
X0100654Y0039055D01*
X0095967Y0038439D02*
X0078993Y0038439D01*
X0077026Y0036472D02*
X0093061Y0036472D01*
X0091094Y0034505D02*
X0076545Y0034505D01*
X0075229Y0032538D02*
X0089127Y0032538D01*
X0088366Y0030571D02*
X0071125Y0030571D01*
X0074647Y0028604D02*
X0077883Y0028604D01*
X0077146Y0026637D02*
X0077146Y0026637D01*
X0077146Y0024670D02*
X0077146Y0024670D01*
X0077146Y0022703D02*
X0077146Y0022703D01*
X0077895Y0020736D02*
X0069764Y0020736D01*
X0069961Y0021717D02*
X0069961Y0025669D01*
X0069961Y0021717D01*
X0069961Y0022703D02*
X0069961Y0022703D01*
X0069961Y0024670D02*
X0069961Y0024670D01*
X0069961Y0025669D02*
X0069961Y0025669D01*
X0063268Y0026637D02*
X0036496Y0026637D01*
X0036496Y0028114D02*
X0036757Y0028114D01*
X0037262Y0028249D01*
X0037714Y0028511D01*
X0038084Y0028880D01*
X0038345Y0029333D01*
X0038480Y0029837D01*
X0038480Y0032165D01*
X0036496Y0032165D01*
X0036496Y0032165D01*
X0038480Y0032165D01*
X0038480Y0032756D01*
X0054168Y0032756D01*
X0055905Y0033475D01*
X0055973Y0033543D01*
X0065039Y0033543D01*
X0065039Y0030871D01*
X0064889Y0030809D01*
X0063837Y0029756D01*
X0063268Y0028382D01*
X0063268Y0022957D01*
X0063837Y0021582D01*
X0064889Y0020530D01*
X0065039Y0020468D01*
X0065039Y0014843D01*
X0036496Y0014843D01*
X0036496Y0028114D01*
X0037808Y0028604D02*
X0063360Y0028604D01*
X0064652Y0030571D02*
X0038480Y0030571D01*
X0038480Y0032538D02*
X0065039Y0032538D01*
X0063268Y0024670D02*
X0036496Y0024670D01*
X0036496Y0022703D02*
X0063373Y0022703D01*
X0064683Y0020736D02*
X0036496Y0020736D01*
X0036496Y0018769D02*
X0065039Y0018769D01*
X0065039Y0016802D02*
X0036496Y0016802D01*
X0029606Y0025669D02*
X0021732Y0025669D01*
X0029606Y0025669D02*
X0030591Y0026654D01*
X0031575Y0027638D01*
X0031575Y0032165D01*
X0035315Y0032165D02*
X0035315Y0031772D01*
X0036496Y0030591D01*
X0030787Y0026637D02*
X0030433Y0026637D01*
X0027835Y0032165D02*
X0027835Y0035709D01*
X0029606Y0037480D01*
X0053228Y0037480D01*
X0067992Y0052244D01*
X0047011Y0056142D02*
X0036512Y0056142D01*
X0039390Y0058109D02*
X0042225Y0058109D01*
X0028606Y0056142D02*
X0026654Y0056142D01*
X0026654Y0054175D02*
X0028606Y0054175D01*
X0026260Y0044370D02*
X0023406Y0044370D01*
X0026260Y0044370D02*
X0027835Y0042795D01*
X0069764Y0018769D02*
X0088169Y0018769D01*
X0088395Y0016802D02*
X0069764Y0016802D01*
X0069764Y0014835D02*
X0088961Y0014835D01*
X0090268Y0012868D02*
X0069335Y0012868D01*
X0067779Y0010901D02*
X0094780Y0010901D01*
X0096535Y0015827D02*
X0103425Y0008937D01*
X0237283Y0008937D01*
X0241220Y0012874D01*
X0241220Y0036496D01*
X0235696Y0036472D02*
X0231181Y0036472D01*
X0230827Y0034505D02*
X0235696Y0034505D01*
X0236496Y0032538D02*
X0229588Y0032538D01*
X0228706Y0031656D02*
X0228706Y0031656D01*
X0227621Y0030571D02*
X0236496Y0030571D01*
X0236496Y0028604D02*
X0225654Y0028604D01*
X0223687Y0026637D02*
X0236496Y0026637D01*
X0236496Y0024670D02*
X0221720Y0024670D01*
X0219753Y0022703D02*
X0236496Y0022703D01*
X0236496Y0020736D02*
X0217786Y0020736D01*
X0204016Y0018769D02*
X0236496Y0018769D01*
X0236496Y0016802D02*
X0203391Y0016802D01*
X0197520Y0028425D02*
X0197323Y0028622D01*
X0190039Y0028622D01*
X0178041Y0020736D02*
X0171354Y0020736D01*
X0171354Y0020487D02*
X0171354Y0022716D01*
X0166417Y0022716D01*
X0166417Y0022716D01*
X0166417Y0018764D01*
X0163203Y0018764D01*
X0162699Y0018899D01*
X0162246Y0019160D01*
X0161877Y0019530D01*
X0161616Y0019982D01*
X0161480Y0020487D01*
X0161480Y0022716D01*
X0166417Y0022716D01*
X0166417Y0022717D01*
X0166417Y0022717D01*
X0166417Y0026669D01*
X0169631Y0026669D01*
X0170136Y0026534D01*
X0170588Y0026273D01*
X0170958Y0025903D01*
X0171219Y0025451D01*
X0171354Y0024946D01*
X0171354Y0022717D01*
X0166417Y0022717D01*
X0166417Y0022716D01*
X0166417Y0018764D01*
X0169631Y0018764D01*
X0170136Y0018899D01*
X0170588Y0019160D01*
X0170958Y0019530D01*
X0171219Y0019982D01*
X0171354Y0020487D01*
X0171354Y0022703D02*
X0176074Y0022703D01*
X0174609Y0024670D02*
X0171354Y0024670D01*
X0169751Y0026637D02*
X0174094Y0026637D01*
X0166417Y0026637D02*
X0166417Y0026637D01*
X0166417Y0024670D02*
X0166417Y0024670D01*
X0166417Y0022703D02*
X0166417Y0022703D01*
X0166417Y0020736D02*
X0166417Y0020736D01*
X0166417Y0018769D02*
X0166417Y0018769D01*
X0163183Y0018769D02*
X0146634Y0018769D01*
X0146082Y0016802D02*
X0181975Y0016802D01*
X0180008Y0018769D02*
X0169651Y0018769D01*
X0161480Y0020736D02*
X0148181Y0020736D01*
X0148898Y0022703D02*
X0161480Y0022703D01*
X0154606Y0035217D02*
X0154606Y0036299D01*
X0162480Y0042402D02*
X0166417Y0046339D01*
X0170327Y0050241D02*
X0185315Y0050241D01*
X0185315Y0048274D02*
X0171942Y0048274D01*
X0171942Y0046307D02*
X0185315Y0046307D01*
X0190039Y0046307D02*
X0208921Y0046307D01*
X0208921Y0047913D02*
X0213661Y0047913D01*
X0213661Y0047913D01*
X0208921Y0047913D01*
X0208921Y0048274D02*
X0190039Y0048274D01*
X0190039Y0050241D02*
X0209000Y0050241D01*
X0213661Y0050241D02*
X0213661Y0050241D01*
X0213661Y0051669D02*
X0213661Y0047914D01*
X0213661Y0051669D01*
X0213661Y0048274D02*
X0213661Y0048274D01*
X0213661Y0047914D02*
X0213661Y0047914D01*
X0218402Y0048274D02*
X0220732Y0048274D01*
X0220732Y0047913D02*
X0225472Y0047913D01*
X0220732Y0047913D01*
X0220732Y0046307D02*
X0218402Y0046307D01*
X0218323Y0050241D02*
X0220811Y0050241D01*
X0225472Y0050241D02*
X0225472Y0050241D01*
X0225472Y0051669D02*
X0225472Y0047914D01*
X0225472Y0051669D01*
X0225472Y0048274D02*
X0225472Y0048274D01*
X0225472Y0047914D02*
X0225472Y0047914D01*
X0225472Y0047913D02*
X0225472Y0047913D01*
X0230213Y0048274D02*
X0245157Y0048274D01*
X0245157Y0046307D02*
X0230213Y0046307D01*
X0230134Y0050241D02*
X0245157Y0050241D01*
X0245157Y0052208D02*
X0190039Y0052208D01*
X0190039Y0054175D02*
X0245157Y0054175D01*
X0245157Y0056142D02*
X0190039Y0056142D01*
X0190216Y0058109D02*
X0245157Y0058109D01*
X0245157Y0060076D02*
X0190839Y0060076D01*
X0190839Y0062043D02*
X0245157Y0062043D01*
X0245157Y0064010D02*
X0193040Y0064010D01*
X0200650Y0065977D02*
X0202618Y0065977D01*
X0202618Y0065024D02*
X0211167Y0065024D01*
X0211671Y0065159D01*
X0212124Y0065420D01*
X0212493Y0065790D01*
X0212755Y0066242D01*
X0212890Y0066747D01*
X0212890Y0069961D01*
X0202618Y0069961D01*
X0202618Y0065024D01*
X0202618Y0067944D02*
X0200650Y0067944D01*
X0200650Y0069912D02*
X0202618Y0069912D01*
X0202618Y0071879D02*
X0245157Y0071879D01*
X0245157Y0073846D02*
X0212890Y0073846D01*
X0212659Y0075813D02*
X0245157Y0075813D01*
X0245157Y0069912D02*
X0212890Y0069912D01*
X0212890Y0067944D02*
X0245157Y0067944D01*
X0245157Y0065977D02*
X0212602Y0065977D01*
X0202618Y0073846D02*
X0200650Y0073846D01*
X0200650Y0075813D02*
X0202618Y0075813D01*
X0185315Y0069912D02*
X0184902Y0069912D01*
X0184902Y0067944D02*
X0185315Y0067944D01*
X0147717Y0092598D02*
X0146732Y0091614D01*
X0147717Y0092598D02*
X0147717Y0096831D01*
X0142106Y0097450D02*
X0140302Y0097450D01*
X0140735Y0099417D02*
X0142299Y0099417D01*
X0142106Y0095483D02*
X0138989Y0095483D01*
X0137022Y0093516D02*
X0141208Y0093516D01*
X0154606Y0093516D02*
X0154606Y0093516D01*
X0154606Y0095483D02*
X0154606Y0095483D01*
X0130197Y0109252D02*
X0127740Y0109252D01*
X0128047Y0111219D02*
X0130197Y0111219D01*
X0130197Y0113186D02*
X0128047Y0113186D01*
X0128047Y0115153D02*
X0130197Y0115153D01*
X0130261Y0117120D02*
X0127835Y0117120D01*
X0130492Y0119087D02*
X0108543Y0119087D01*
X0108543Y0117120D02*
X0120354Y0117120D01*
X0120142Y0115153D02*
X0109842Y0115153D01*
X0110315Y0113186D02*
X0120142Y0113186D01*
X0120142Y0111219D02*
X0110315Y0111219D01*
X0110315Y0109252D02*
X0120449Y0109252D01*
X0121599Y0107285D02*
X0109776Y0107285D01*
X0108543Y0105318D02*
X0120217Y0105318D01*
X0119866Y0103425D02*
X0125000Y0103425D01*
X0119866Y0103425D01*
X0119866Y0103351D02*
X0108331Y0103351D01*
X0107081Y0101384D02*
X0120278Y0101384D01*
X0125000Y0103425D02*
X0125000Y0103425D01*
X0128401Y0107285D02*
X0129141Y0107285D01*
X0124094Y0115153D02*
X0124095Y0115153D01*
X0124094Y0117120D02*
X0124095Y0117120D01*
X0123735Y0120929D02*
X0124882Y0120929D01*
X0126029Y0120929D01*
X0126534Y0121064D01*
X0126986Y0121326D01*
X0127355Y0121695D01*
X0127617Y0122147D01*
X0127752Y0122652D01*
X0127752Y0125276D01*
X0127752Y0127899D01*
X0127617Y0128404D01*
X0127355Y0128856D01*
X0126986Y0129226D01*
X0126534Y0129487D01*
X0126029Y0129622D01*
X0124882Y0129622D01*
X0124882Y0125276D01*
X0124882Y0125276D01*
X0124882Y0129622D01*
X0123735Y0129622D01*
X0123230Y0129487D01*
X0122778Y0129226D01*
X0122408Y0128856D01*
X0122147Y0128404D01*
X0122012Y0127899D01*
X0122012Y0125276D01*
X0124882Y0125276D01*
X0127752Y0125276D01*
X0124882Y0125276D01*
X0124882Y0125276D01*
X0124882Y0125276D01*
X0122012Y0125276D01*
X0122012Y0122652D01*
X0122147Y0122147D01*
X0122408Y0121695D01*
X0122778Y0121326D01*
X0123230Y0121064D01*
X0123735Y0120929D01*
X0123269Y0121054D02*
X0108543Y0121054D01*
X0108276Y0123021D02*
X0112258Y0123021D01*
X0112049Y0123230D02*
X0112600Y0122679D01*
X0113231Y0122221D01*
X0113926Y0121867D01*
X0114667Y0121626D01*
X0115437Y0121504D01*
X0115827Y0121504D01*
X0116217Y0121504D01*
X0116987Y0121626D01*
X0117728Y0121867D01*
X0118423Y0122221D01*
X0119053Y0122679D01*
X0119605Y0123230D01*
X0120063Y0123861D01*
X0120417Y0124555D01*
X0120658Y0125297D01*
X0120780Y0126067D01*
X0120780Y0126457D01*
X0115827Y0126457D01*
X0115827Y0126457D01*
X0115827Y0126457D01*
X0115827Y0121504D01*
X0115827Y0126457D01*
X0115827Y0126457D01*
X0110874Y0126457D01*
X0110874Y0126067D01*
X0110996Y0125297D01*
X0111237Y0124555D01*
X0111591Y0123861D01*
X0112049Y0123230D01*
X0111096Y0124988D02*
X0107264Y0124988D01*
X0106754Y0126955D02*
X0110891Y0126955D01*
X0110283Y0128922D02*
X0079688Y0128922D01*
X0081163Y0126955D02*
X0095156Y0126955D01*
X0095192Y0126965D02*
X0094687Y0126829D01*
X0094234Y0126568D01*
X0093865Y0126199D01*
X0093604Y0125746D01*
X0093469Y0125242D01*
X0093469Y0123110D01*
X0093468Y0123110D02*
X0093469Y0120979D01*
X0093604Y0120474D01*
X0093865Y0120022D01*
X0094234Y0119652D01*
X0094687Y0119391D01*
X0095192Y0119256D01*
X0096831Y0119256D01*
X0096831Y0123110D01*
X0096831Y0123110D01*
X0095157Y0121437D01*
X0095157Y0115039D01*
X0090417Y0115039D01*
X0095157Y0115039D01*
X0095157Y0115039D01*
X0095157Y0118992D01*
X0092140Y0118992D01*
X0091636Y0118857D01*
X0091183Y0118596D01*
X0090814Y0118226D01*
X0090553Y0117774D01*
X0090417Y0117269D01*
X0090417Y0115039D01*
X0090417Y0115153D02*
X0081673Y0115153D01*
X0081673Y0117120D02*
X0090417Y0117120D01*
X0095157Y0117120D02*
X0095158Y0117120D01*
X0095157Y0115153D02*
X0095158Y0115153D01*
X0095158Y0115039D02*
X0095157Y0115039D01*
X0090417Y0113186D02*
X0081673Y0113186D01*
X0085285Y0111219D02*
X0089054Y0111219D01*
X0087677Y0106378D02*
X0084035Y0106378D01*
X0083740Y0106083D01*
X0082461Y0107362D01*
X0076555Y0107362D01*
X0071240Y0107362D02*
X0071240Y0115236D01*
X0068740Y0117736D01*
X0058543Y0117736D01*
X0058543Y0122736D02*
X0058543Y0122736D01*
X0070866Y0122736D01*
X0071240Y0123110D01*
X0067878Y0123110D01*
X0067878Y0122461D01*
X0064858Y0122461D01*
X0064858Y0122736D01*
X0058543Y0122736D01*
X0064858Y0122736D01*
X0064858Y0123307D01*
X0067878Y0123307D01*
X0067878Y0123110D01*
X0071240Y0123110D01*
X0071240Y0123110D01*
X0067878Y0123021D02*
X0064858Y0123021D01*
X0073898Y0128031D02*
X0075866Y0126063D01*
X0076555Y0125374D01*
X0076555Y0123110D01*
X0076555Y0115236D01*
X0081280Y0119087D02*
X0097632Y0119087D01*
X0096831Y0121054D02*
X0096831Y0121054D01*
X0096831Y0123021D02*
X0096831Y0123021D01*
X0096831Y0123110D02*
X0093468Y0123110D01*
X0093469Y0123110D02*
X0096831Y0123110D01*
X0096535Y0123110D01*
X0093583Y0126063D01*
X0093469Y0124988D02*
X0081673Y0124988D01*
X0081673Y0123021D02*
X0093468Y0123021D01*
X0093468Y0121054D02*
X0081673Y0121054D01*
X0073898Y0128031D02*
X0033543Y0128031D01*
X0030591Y0125079D01*
X0030591Y0121142D01*
X0025866Y0121054D02*
X0024747Y0121054D01*
X0025866Y0123021D02*
X0008937Y0123021D01*
X0008937Y0124988D02*
X0025866Y0124988D01*
X0026254Y0126955D02*
X0008937Y0126955D01*
X0008937Y0128922D02*
X0027752Y0128922D01*
X0029719Y0130889D02*
X0008937Y0130889D01*
X0008937Y0132856D02*
X0108134Y0132856D01*
X0108646Y0130889D02*
X0077721Y0130889D01*
X0095192Y0126965D02*
X0096831Y0126965D01*
X0096831Y0123110D01*
X0096831Y0123110D01*
X0096831Y0123110D01*
X0096831Y0124988D02*
X0096831Y0124988D01*
X0096831Y0126955D02*
X0096831Y0126955D01*
X0102146Y0123110D02*
X0103819Y0121437D01*
X0103819Y0111299D01*
X0103819Y0104803D01*
X0100472Y0101457D01*
X0092598Y0101457D01*
X0087677Y0106378D01*
X0083740Y0100768D02*
X0083740Y0095551D01*
X0083980Y0086220D02*
X0082606Y0085651D01*
X0081554Y0084599D01*
X0081426Y0084291D01*
X0060464Y0084291D01*
X0060336Y0084599D01*
X0059284Y0085651D01*
X0057909Y0086220D01*
X0054924Y0086220D01*
X0057576Y0088873D01*
X0058546Y0089843D01*
X0098909Y0089843D01*
X0094833Y0085766D01*
X0093736Y0086220D01*
X0083980Y0086220D01*
X0082602Y0085648D02*
X0059287Y0085648D01*
X0056318Y0087615D02*
X0096681Y0087615D01*
X0098648Y0089582D02*
X0058285Y0089582D01*
X0052736Y0092106D02*
X0048307Y0092106D01*
X0059209Y0073846D02*
X0082680Y0073846D01*
X0088858Y0079764D02*
X0095512Y0079764D01*
X0103425Y0087677D01*
X0108232Y0075813D02*
X0098242Y0075813D01*
X0095036Y0073846D02*
X0105550Y0073846D01*
X0103583Y0071879D02*
X0047926Y0071879D01*
X0088484Y0065977D02*
X0089232Y0065977D01*
X0089232Y0066827D02*
X0089232Y0062500D01*
X0094976Y0062500D01*
X0094976Y0065104D01*
X0094841Y0065608D01*
X0094580Y0066061D01*
X0094210Y0066430D01*
X0093758Y0066692D01*
X0093253Y0066827D01*
X0089232Y0066827D01*
X0089232Y0064010D02*
X0088484Y0064010D01*
X0089232Y0062043D02*
X0095569Y0062043D01*
X0094976Y0064010D02*
X0098701Y0064010D01*
X0098701Y0065977D02*
X0094628Y0065977D01*
X0108346Y0063071D02*
X0109331Y0062087D01*
X0111594Y0062087D01*
X0116909Y0062087D02*
X0127047Y0062087D01*
X0132953Y0057165D02*
X0136890Y0057165D01*
X0138858Y0059134D01*
X0138858Y0069961D01*
X0132953Y0057165D02*
X0108346Y0057165D01*
X0138673Y0040406D02*
X0139743Y0040406D01*
X0133543Y0037874D02*
X0133543Y0036299D01*
X0118844Y0020736D02*
X0118522Y0020736D01*
X0108642Y0024685D02*
X0098209Y0024685D01*
X0092894Y0024685D02*
X0092894Y0018287D01*
X0104208Y0014835D02*
X0236496Y0014835D01*
X0235696Y0038439D02*
X0231968Y0038439D01*
X0179803Y0040236D02*
X0179606Y0040433D01*
X0174291Y0040433D01*
X0092894Y0024685D02*
X0082461Y0024685D01*
X0183150Y0110315D02*
X0187382Y0110315D01*
X0144173Y0123021D02*
X0144173Y0123021D01*
X0144173Y0124988D02*
X0144173Y0124988D01*
X0140605Y0123021D02*
X0139744Y0123021D01*
X0139871Y0128922D02*
X0139520Y0128922D01*
X0137928Y0130889D02*
X0141913Y0130889D01*
X0141402Y0132856D02*
X0118598Y0132856D01*
X0118087Y0130889D02*
X0132308Y0130889D01*
X0130716Y0128922D02*
X0127290Y0128922D01*
X0127752Y0126955D02*
X0130492Y0126955D01*
X0130492Y0124988D02*
X0127752Y0124988D01*
X0127752Y0123021D02*
X0130492Y0123021D01*
X0130492Y0121054D02*
X0126495Y0121054D01*
X0124882Y0121054D02*
X0124882Y0121054D01*
X0124882Y0120929D02*
X0124882Y0125275D01*
X0124882Y0125275D01*
X0124882Y0120929D01*
X0124882Y0123021D02*
X0124882Y0123021D01*
X0124882Y0124988D02*
X0124882Y0124988D01*
X0124882Y0126955D02*
X0124882Y0126955D01*
X0124882Y0128922D02*
X0124882Y0128922D01*
X0122474Y0128922D02*
X0120129Y0128922D01*
X0120762Y0126955D02*
X0122012Y0126955D01*
X0122012Y0124988D02*
X0120557Y0124988D01*
X0119395Y0123021D02*
X0122012Y0123021D01*
X0115827Y0123021D02*
X0115827Y0123021D01*
X0115827Y0124988D02*
X0115827Y0124988D01*
D36*
X0154606Y0036299D02*
X0154606Y0035217D01*
X0133543Y0032559D02*
X0128031Y0032559D01*
D37*
X0133543Y0037874D02*
X0123110Y0048307D01*
X0107362Y0048307D01*
X0080787Y0048307D01*
X0069961Y0037480D01*
X0054213Y0021732D01*
X0034528Y0021732D01*
X0036496Y0023701D01*
X0036496Y0030591D01*
X0035315Y0042795D02*
X0035315Y0053031D01*
X0034331Y0054016D01*
X0032559Y0055787D01*
X0019173Y0055787D01*
X0017795Y0057165D01*
X0017795Y0063071D02*
X0019173Y0064449D01*
X0028819Y0064449D01*
X0028819Y0068189D01*
X0032559Y0071929D01*
X0052736Y0092106D01*
X0056181Y0095551D01*
X0083740Y0095551D01*
X0130984Y0095551D01*
X0135000Y0099567D01*
X0135000Y0103425D01*
X0135906Y0104331D01*
X0135906Y0113268D01*
X0124094Y0113268D02*
X0124094Y0104331D01*
X0125000Y0103425D01*
X0209331Y0036496D02*
X0213661Y0040827D01*
X0209331Y0036496D02*
X0188465Y0036496D01*
X0179803Y0032756D02*
X0179803Y0027047D01*
X0182165Y0024685D01*
X0185906Y0020945D01*
X0197520Y0020945D01*
X0206181Y0024685D02*
X0213661Y0024685D01*
X0225472Y0036496D01*
X0225472Y0040827D01*
X0179803Y0032756D02*
X0168189Y0032756D01*
X0166417Y0034528D01*
X0164646Y0036299D01*
X0162480Y0036299D01*
X0154606Y0036299D01*
X0144173Y0036299D01*
D38*
X0132953Y0062087D02*
X0133937Y0063071D01*
X0130984Y0066024D01*
X0114252Y0066024D01*
X0111594Y0068681D01*
X0111594Y0069961D01*
X0160512Y0103425D02*
X0161299Y0103425D01*
X0163661Y0103425D02*
X0164449Y0103425D01*
X0058543Y0107736D02*
X0048917Y0107736D01*
X0046339Y0110315D01*
X0031575Y0110315D01*
X0030787Y0110315D01*
X0028425Y0112677D01*
X0028425Y0115236D02*
X0030591Y0115236D01*
X0033091Y0112736D01*
X0038071Y0112736D01*
X0028425Y0117795D02*
X0028425Y0118386D01*
X0025669Y0121142D01*
X0044370Y0101457D02*
X0044370Y0096535D01*
X0045354Y0095551D01*
X0048110Y0095551D01*
X0050276Y0095551D01*
X0051260Y0096535D01*
X0053228Y0098504D01*
X0053228Y0099488D01*
X0048307Y0098307D02*
X0048110Y0098110D01*
X0048110Y0092992D02*
X0048307Y0092795D01*
X0048307Y0092106D01*
X0017795Y0063071D02*
X0017795Y0062283D01*
X0016811Y0061299D01*
X0016811Y0058937D02*
X0017795Y0057953D01*
X0017795Y0057165D01*
X0092894Y0018287D02*
X0093386Y0017795D01*
X0095748Y0017795D02*
X0095748Y0016614D01*
X0096535Y0015827D01*
D39*
X0098504Y0057165D03*
X0108346Y0057165D03*
X0146732Y0079803D03*
X0146732Y0091614D03*
X0166417Y0115236D03*
X0186102Y0099488D03*
X0186102Y0091614D03*
X0213661Y0095551D03*
X0233642Y0108642D03*
X0245157Y0099488D03*
X0241220Y0095551D03*
X0249094Y0103425D03*
X0166417Y0046339D03*
X0174291Y0040433D03*
X0190039Y0028622D03*
X0241220Y0036496D03*
X0042402Y0072913D03*
X0032559Y0101457D03*
M02*
