  0
SECTION
  2
HEADER
  9
$ACADVER
  1
AC1009
  9
$FILLMODE
 70
0
  9
$EXTMIN
 10
-1.0160
 20
-1.0160
 30
0.0000
  9
$EXTMAX
 10
74.3700
 20
45.0400
 30
0.0000
  0
ENDSEC
  0
SECTION
  2
TABLES
  0
TABLE
  2
LTYPE
 70
1
  0
LTYPE
  2
CONTINUOUS
 70
64
  3
Solid line
 72
65
 73
0
 40
0
  0
ENDTAB
  0
TABLE
  2
LAYER
 70
255
  0
LAYER
  2
17
 70
64
 62
94
  6
CONTINUOUS
  0
LAYER
  2
20
 70
64
 62
178
  6
CONTINUOUS
  0
LAYER
  2
21
 70
64
 62
251
  6
CONTINUOUS
  0
LAYER
  2
22
 70
64
 62
251
  6
CONTINUOUS
  0
LAYER
  2
25
 70
64
 62
251
  6
CONTINUOUS
  0
LAYER
  2
26
 70
64
 62
251
  6
CONTINUOUS
  0
LAYER
  2
45
 70
64
 62
251
  6
CONTINUOUS
  0
LAYER
  2
47
 70
64
 62
251
  6
CONTINUOUS
  0
LAYER
  2
48
 70
64
 62
251
  6
CONTINUOUS
  0
LAYER
  2
51
 70
64
 62
251
  6
CONTINUOUS
  0
LAYER
  2
52
 70
64
 62
251
  6
CONTINUOUS
  0
ENDTAB
  0
ENDSEC
  0
SECTION
  2
BLOCKS
  0
BLOCK
  8
0
  2
RECT
 70
64
 10
0.0000
 20
0.0000
 30
0.0000
  3
RECT
  0
SOLID
  8
0
 10
-0.5000
 20
-0.5000
 30
0.0000
 11
0.5000
 21
-0.5000
 31
0.0000
 12
-0.5000
 22
0.5000
 32
0.0000
 13
0.5000
 23
0.5000
 33
0.0000
  0
ENDBLK
  8
0
  0
BLOCK
  8
0
  2
PIE
 70
64
 10
0.0000
 20
0.0000
 30
0.0000
  3
PIE
  0
CIRCLE
  8
0
 10
0.0000
 20
0.0000
 30
0.0000
 40
0.5000
  0
ENDBLK
  8
0
  0
BLOCK
  8
0
  2
OCTAGONP
 70
64
 10
0.0000
 20
0.0000
 30
0.0000
  3
OCTAGONP
  0
POLYLINE
  8
0
 66
1
 10
0.0000
 20
0.0000
 30
0.0000
 40
0.0000
 41
0.0000
 70
1
  0
VERTEX
  8
0
 10
-0.5000
 20
-0.2071
 30
0.0000
  0
VERTEX
  8
0
 10
-0.5000
 20
0.2071
 30
0.0000
  0
VERTEX
  8
0
 10
-0.2071
 20
0.5000
 30
0.0000
  0
VERTEX
  8
0
 10
0.2071
 20
0.5000
 30
0.0000
  0
VERTEX
  8
0
 10
0.5000
 20
0.2071
 30
0.0000
  0
VERTEX
  8
0
 10
0.5000
 20
-0.2071
 30
0.0000
  0
VERTEX
  8
0
 10
0.2071
 20
-0.5000
 30
0.0000
  0
VERTEX
  8
0
 10
-0.2071
 20
-0.5000
 30
0.0000
  0
SEQEND
  8
0
  0
ENDBLK
  8
0
  0
BLOCK
  8
0
  2
SQUAREP
 70
64
 10
0.0000
 20
0.0000
 30
0.0000
  3
SQUAREP
  0
SOLID
  8
0
 10
-0.5000
 20
-0.5000
 30
0.0000
 11
0.5000
 21
-0.5000
 31
0.0000
 12
-0.5000
 22
0.5000
 32
0.0000
 13
0.5000
 23
0.5000
 33
0.0000
  0
ENDBLK
  8
0
  0
BLOCK
  8
0
  2
ROUNDP
 70
64
 10
0.0000
 20
0.0000
 30
0.0000
  3
ROUNDP
  0
CIRCLE
  8
0
 10
0.0000
 20
0.0000
 30
0.0000
 40
0.5000
  0
ENDBLK
  8
0
  0
BLOCK
  8
0
  2
ANNULUSP
 70
64
 10
0.0000
 20
0.0000
 30
0.0000
  3
ANNULUSP
  0
CIRCLE
  8
0
 10
0.0000
 20
0.0000
 30
0.0000
 40
0.5000
  0
ENDBLK
  8
0
  0
BLOCK
  8
0
  2
THERMALP
 70
64
 10
0.0000
 20
0.0000
 30
0.0000
  3
THERMALP
  0
LINE
  8
0
 10
-0.2379
 20
0.4500
 30
0.0000
 11
0.2379
 21
0.4500
 31
0.0000
  0
LINE
  8
0
 10
0.4500
 20
0.2379
 30
0.0000
 11
0.4500
 21
-0.2379
 31
0.0000
  0
LINE
  8
0
 10
0.2379
 20
-0.4500
 30
0.0000
 11
-0.2379
 21
-0.4500
 31
0.0000
  0
LINE
  8
0
 10
-0.4500
 20
-0.2379
 30
0.0000
 11
-0.4500
 21
0.2379
 31
0.0000
  0
ENDBLK
  8
0
  0
BLOCK
  8
0
  2
OCTAGONV
 70
64
 10
0.0000
 20
0.0000
 30
0.0000
  3
OCTAGONV
  0
POLYLINE
  8
0
 66
1
 10
0.0000
 20
0.0000
 30
0.0000
 40
0.0000
 41
0.0000
 70
1
  0
VERTEX
  8
0
 10
-0.5000
 20
-0.2071
 30
0.0000
  0
VERTEX
  8
0
 10
-0.5000
 20
0.2071
 30
0.0000
  0
VERTEX
  8
0
 10
-0.2071
 20
0.5000
 30
0.0000
  0
VERTEX
  8
0
 10
0.2071
 20
0.5000
 30
0.0000
  0
VERTEX
  8
0
 10
0.5000
 20
0.2071
 30
0.0000
  0
VERTEX
  8
0
 10
0.5000
 20
-0.2071
 30
0.0000
  0
VERTEX
  8
0
 10
0.2071
 20
-0.5000
 30
0.0000
  0
VERTEX
  8
0
 10
-0.2071
 20
-0.5000
 30
0.0000
  0
SEQEND
  8
0
  0
ENDBLK
  8
0
  0
BLOCK
  8
0
  2
SQUAREV
 70
64
 10
0.0000
 20
0.0000
 30
0.0000
  3
SQUAREV
  0
SOLID
  8
0
 10
-0.5000
 20
-0.5000
 30
0.0000
 11
0.5000
 21
-0.5000
 31
0.0000
 12
-0.5000
 22
0.5000
 32
0.0000
 13
0.5000
 23
0.5000
 33
0.0000
  0
ENDBLK
  8
0
  0
BLOCK
  8
0
  2
ROUNDV
 70
64
 10
0.0000
 20
0.0000
 30
0.0000
  3
ROUNDV
  0
CIRCLE
  8
0
 10
0.0000
 20
0.0000
 30
0.0000
 40
0.5000
  0
ENDBLK
  8
0
  0
BLOCK
  8
0
  2
ANNULUSV
 70
64
 10
0.0000
 20
0.0000
 30
0.0000
  3
ANNULUSV
  0
CIRCLE
  8
0
 10
0.0000
 20
0.0000
 30
0.0000
 40
0.5000
  0
ENDBLK
  8
0
  0
BLOCK
  8
0
  2
THERMALV
 70
64
 10
0.0000
 20
0.0000
 30
0.0000
  3
THERMALV
  0
LINE
  8
0
 10
-0.2379
 20
0.4500
 30
0.0000
 11
0.2379
 21
0.4500
 31
0.0000
  0
LINE
  8
0
 10
0.4500
 20
0.2379
 30
0.0000
 11
0.4500
 21
-0.2379
 31
0.0000
  0
LINE
  8
0
 10
0.2379
 20
-0.4500
 30
0.0000
 11
-0.2379
 21
-0.4500
 31
0.0000
  0
LINE
  8
0
 10
-0.4500
 20
-0.2379
 30
0.0000
 11
-0.4500
 21
0.2379
 31
0.0000
  0
ENDBLK
  8
0
  0
BLOCK
  8
0
  2
LONGP100
 70
64
 10
0.0000
 20
0.0000
 30
0.0000
  3
LONGP100
  0
POLYLINE
  8
0
 66
1
 10
0.0000
 20
0.0000
 30
0.0000
 40
0.0000
 41
0.0000
 70
1
  0
VERTEX
  8
0
 10
-0.5000
 20
-0.5000
 30
0.0000
  0
VERTEX
  8
0
 10
0.5000
 20
-0.5000
 30
0.0000
 42
1.0000
  0
VERTEX
  8
0
 10
0.5000
 20
0.5000
 30
0.0000
  0
VERTEX
  8
0
 10
-0.5000
 20
0.5000
 30
0.0000
 42
1.0000
  0
SEQEND
  8
0
  0
ENDBLK
  8
0
  0
ENDSEC
  0
SECTION
  2
ENTITIES
  0
LINE
  8
20
 10
0.0000
 20
0.0000
 30
0.0000
 11
63.5000
 21
0.0000
 31
0.0000
  0
LINE
  8
20
 10
63.5000
 20
0.0000
 30
0.0000
 11
63.5000
 21
33.5000
 31
0.0000
  0
LINE
  8
20
 10
63.5000
 20
33.5000
 30
0.0000
 11
37.2500
 21
33.5000
 31
0.0000
  0
LINE
  8
20
 10
24.2500
 20
33.5000
 30
0.0000
 11
0.0000
 21
33.5000
 31
0.0000
  0
LINE
  8
20
 10
0.0000
 20
33.5000
 30
0.0000
 11
0.0000
 21
0.0000
 31
0.0000
  0
LINE
  8
20
 10
24.2500
 20
33.5000
 30
0.0000
 11
26.2500
 21
33.5000
 31
0.0000
  0
LINE
  8
20
 10
26.2500
 20
33.5000
 30
0.0000
 11
26.2500
 21
35.2500
 31
0.0000
  0
LINE
  8
20
 10
26.2500
 20
35.2500
 30
0.0000
 11
37.2500
 21
35.2500
 31
0.0000
  0
LINE
  8
20
 10
37.2500
 20
35.2500
 30
0.0000
 11
37.2500
 21
33.5000
 31
0.0000
  0
LINE
  8
21
 10
31.0762
 20
0.8262
 30
0.0000
 11
31.0762
 21
1.5719
 31
0.0000
  0
LINE
  8
21
 10
31.0762
 20
1.1990
 30
0.0000
 11
31.4491
 21
1.5719
 31
0.0000
  0
LINE
  8
21
 10
31.4491
 20
1.5719
 30
0.0000
 11
31.6355
 21
1.5719
 31
0.0000
  0
LINE
  8
21
 10
32.6100
 20
0.8262
 30
0.0000
 11
32.2371
 21
0.8262
 31
0.0000
  0
LINE
  8
21
 10
32.2371
 20
0.8262
 30
0.0000
 11
32.0507
 21
1.0126
 31
0.0000
  0
LINE
  8
21
 10
32.0507
 20
1.0126
 30
0.0000
 11
32.0507
 21
1.3855
 31
0.0000
  0
LINE
  8
21
 10
32.0507
 20
1.3855
 30
0.0000
 11
32.2371
 21
1.5719
 31
0.0000
  0
LINE
  8
21
 10
32.2371
 20
1.5719
 30
0.0000
 11
32.6100
 21
1.5719
 31
0.0000
  0
LINE
  8
21
 10
32.6100
 20
1.5719
 30
0.0000
 11
32.7964
 21
1.3855
 31
0.0000
  0
LINE
  8
21
 10
32.7964
 20
1.3855
 30
0.0000
 11
32.7964
 21
1.1990
 31
0.0000
  0
LINE
  8
21
 10
32.7964
 20
1.1990
 30
0.0000
 11
32.0507
 21
1.1990
 31
0.0000
  0
LINE
  8
21
 10
33.2201
 20
0.4534
 30
0.0000
 11
33.2201
 21
1.5719
 31
0.0000
  0
LINE
  8
21
 10
33.2201
 20
1.5719
 30
0.0000
 11
33.7794
 21
1.5719
 31
0.0000
  0
LINE
  8
21
 10
33.7794
 20
1.5719
 30
0.0000
 11
33.9658
 21
1.3855
 31
0.0000
  0
LINE
  8
21
 10
33.9658
 20
1.3855
 30
0.0000
 11
33.9658
 21
1.0126
 31
0.0000
  0
LINE
  8
21
 10
33.9658
 20
1.0126
 30
0.0000
 11
33.7794
 21
0.8262
 31
0.0000
  0
LINE
  8
21
 10
33.7794
 20
0.8262
 30
0.0000
 11
33.2201
 21
0.8262
 31
0.0000
  0
LINE
  8
21
 10
34.5759
 20
1.5719
 30
0.0000
 11
34.9488
 21
1.5719
 31
0.0000
  0
LINE
  8
21
 10
34.9488
 20
1.5719
 30
0.0000
 11
35.1352
 21
1.3855
 31
0.0000
  0
LINE
  8
21
 10
35.1352
 20
1.3855
 30
0.0000
 11
35.1352
 21
0.8262
 31
0.0000
  0
LINE
  8
21
 10
35.1352
 20
0.8262
 30
0.0000
 11
34.5759
 21
0.8262
 31
0.0000
  0
LINE
  8
21
 10
34.5759
 20
0.8262
 30
0.0000
 11
34.3895
 21
1.0126
 31
0.0000
  0
LINE
  8
21
 10
34.3895
 20
1.0126
 30
0.0000
 11
34.5759
 21
1.1990
 31
0.0000
  0
LINE
  8
21
 10
34.5759
 20
1.1990
 30
0.0000
 11
35.1352
 21
1.1990
 31
0.0000
  0
LINE
  8
21
 10
35.5589
 20
1.5719
 30
0.0000
 11
35.7453
 21
1.5719
 31
0.0000
  0
LINE
  8
21
 10
35.7453
 20
1.5719
 30
0.0000
 11
35.7453
 21
0.8262
 31
0.0000
  0
LINE
  8
21
 10
35.5589
 20
0.8262
 30
0.0000
 11
35.9317
 21
0.8262
 31
0.0000
  0
LINE
  8
21
 10
35.7453
 20
2.1312
 30
0.0000
 11
35.7453
 21
1.9448
 31
0.0000
  0
LINE
  8
21
 10
36.3385
 20
0.8262
 30
0.0000
 11
36.3385
 21
1.5719
 31
0.0000
  0
LINE
  8
21
 10
36.3385
 20
1.1990
 30
0.0000
 11
36.7113
 21
1.5719
 31
0.0000
  0
LINE
  8
21
 10
36.7113
 20
1.5719
 30
0.0000
 11
36.8978
 21
1.5719
 31
0.0000
  0
LINE
  8
21
 10
38.4824
 20
1.5719
 30
0.0000
 11
38.6688
 21
1.5719
 31
0.0000
  0
LINE
  8
21
 10
38.6688
 20
1.5719
 30
0.0000
 11
38.6688
 21
0.8262
 31
0.0000
  0
LINE
  8
21
 10
38.4824
 20
0.8262
 30
0.0000
 11
38.8552
 21
0.8262
 31
0.0000
  0
LINE
  8
21
 10
38.6688
 20
2.1312
 30
0.0000
 11
38.6688
 21
1.9448
 31
0.0000
  0
LINE
  8
21
 10
39.2620
 20
0.8262
 30
0.0000
 11
39.2620
 21
1.5719
 31
0.0000
  0
LINE
  8
21
 10
39.2620
 20
1.5719
 30
0.0000
 11
39.8212
 21
1.5719
 31
0.0000
  0
LINE
  8
21
 10
39.8212
 20
1.5719
 30
0.0000
 11
40.0077
 21
1.3855
 31
0.0000
  0
LINE
  8
21
 10
40.0077
 20
1.3855
 30
0.0000
 11
40.0077
 21
0.8262
 31
0.0000
  0
LINE
  8
21
 10
40.6178
 20
0.8262
 30
0.0000
 11
40.6178
 21
1.7583
 31
0.0000
  0
LINE
  8
21
 10
40.6178
 20
1.7583
 30
0.0000
 11
40.8042
 21
1.9448
 31
0.0000
  0
LINE
  8
21
 10
40.4314
 20
1.3855
 30
0.0000
 11
40.8042
 21
1.3855
 31
0.0000
  0
LINE
  8
21
 10
41.3974
 20
0.8262
 30
0.0000
 11
41.7702
 21
0.8262
 31
0.0000
  0
LINE
  8
21
 10
41.7702
 20
0.8262
 30
0.0000
 11
41.9567
 21
1.0126
 31
0.0000
  0
LINE
  8
21
 10
41.9567
 20
1.0126
 30
0.0000
 11
41.9567
 21
1.3855
 31
0.0000
  0
LINE
  8
21
 10
41.9567
 20
1.3855
 30
0.0000
 11
41.7702
 21
1.5719
 31
0.0000
  0
LINE
  8
21
 10
41.7702
 20
1.5719
 30
0.0000
 11
41.3974
 21
1.5719
 31
0.0000
  0
LINE
  8
21
 10
41.3974
 20
1.5719
 30
0.0000
 11
41.2110
 21
1.3855
 31
0.0000
  0
LINE
  8
21
 10
41.2110
 20
1.3855
 30
0.0000
 11
41.2110
 21
1.0126
 31
0.0000
  0
LINE
  8
21
 10
41.2110
 20
1.0126
 30
0.0000
 11
41.3974
 21
0.8262
 31
0.0000
  0
LINE
  8
21
 10
42.3804
 20
1.5719
 30
0.0000
 11
42.5668
 21
1.5719
 31
0.0000
  0
LINE
  8
21
 10
42.5668
 20
1.5719
 30
0.0000
 11
42.5668
 21
1.3855
 31
0.0000
  0
LINE
  8
21
 10
42.5668
 20
1.3855
 30
0.0000
 11
42.3804
 21
1.3855
 31
0.0000
  0
LINE
  8
21
 10
42.3804
 20
1.3855
 30
0.0000
 11
42.3804
 21
1.5719
 31
0.0000
  0
LINE
  8
21
 10
42.3804
 20
1.0126
 30
0.0000
 11
42.5668
 21
1.0126
 31
0.0000
  0
LINE
  8
21
 10
42.5668
 20
1.0126
 30
0.0000
 11
42.5668
 21
0.8262
 31
0.0000
  0
LINE
  8
21
 10
42.5668
 20
0.8262
 30
0.0000
 11
42.3804
 21
0.8262
 31
0.0000
  0
LINE
  8
21
 10
42.3804
 20
0.8262
 30
0.0000
 11
42.3804
 21
1.0126
 31
0.0000
  0
LINE
  8
21
 10
44.1345
 20
1.5719
 30
0.0000
 11
44.1345
 21
1.0126
 31
0.0000
  0
LINE
  8
21
 10
44.1345
 20
1.0126
 30
0.0000
 11
44.3209
 21
0.8262
 31
0.0000
  0
LINE
  8
21
 10
44.3209
 20
0.8262
 30
0.0000
 11
44.5073
 21
1.0126
 31
0.0000
  0
LINE
  8
21
 10
44.5073
 20
1.0126
 30
0.0000
 11
44.6937
 21
0.8262
 31
0.0000
  0
LINE
  8
21
 10
44.6937
 20
0.8262
 30
0.0000
 11
44.8802
 21
1.0126
 31
0.0000
  0
LINE
  8
21
 10
44.8802
 20
1.0126
 30
0.0000
 11
44.8802
 21
1.5719
 31
0.0000
  0
LINE
  8
21
 10
45.3039
 20
1.5719
 30
0.0000
 11
45.3039
 21
1.0126
 31
0.0000
  0
LINE
  8
21
 10
45.3039
 20
1.0126
 30
0.0000
 11
45.4903
 21
0.8262
 31
0.0000
  0
LINE
  8
21
 10
45.4903
 20
0.8262
 30
0.0000
 11
45.6767
 21
1.0126
 31
0.0000
  0
LINE
  8
21
 10
45.6767
 20
1.0126
 30
0.0000
 11
45.8631
 21
0.8262
 31
0.0000
  0
LINE
  8
21
 10
45.8631
 20
0.8262
 30
0.0000
 11
46.0496
 21
1.0126
 31
0.0000
  0
LINE
  8
21
 10
46.0496
 20
1.0126
 30
0.0000
 11
46.0496
 21
1.5719
 31
0.0000
  0
LINE
  8
21
 10
46.4733
 20
1.5719
 30
0.0000
 11
46.4733
 21
1.0126
 31
0.0000
  0
LINE
  8
21
 10
46.4733
 20
1.0126
 30
0.0000
 11
46.6597
 21
0.8262
 31
0.0000
  0
LINE
  8
21
 10
46.6597
 20
0.8262
 30
0.0000
 11
46.8461
 21
1.0126
 31
0.0000
  0
LINE
  8
21
 10
46.8461
 20
1.0126
 30
0.0000
 11
47.0325
 21
0.8262
 31
0.0000
  0
LINE
  8
21
 10
47.0325
 20
0.8262
 30
0.0000
 11
47.2190
 21
1.0126
 31
0.0000
  0
LINE
  8
21
 10
47.2190
 20
1.0126
 30
0.0000
 11
47.2190
 21
1.5719
 31
0.0000
  0
LINE
  8
21
 10
47.6427
 20
0.8262
 30
0.0000
 11
47.6427
 21
1.0126
 31
0.0000
  0
LINE
  8
21
 10
47.6427
 20
1.0126
 30
0.0000
 11
47.8291
 21
1.0126
 31
0.0000
  0
LINE
  8
21
 10
47.8291
 20
1.0126
 30
0.0000
 11
47.8291
 21
0.8262
 31
0.0000
  0
LINE
  8
21
 10
47.8291
 20
0.8262
 30
0.0000
 11
47.6427
 21
0.8262
 31
0.0000
  0
LINE
  8
21
 10
48.2273
 20
0.8262
 30
0.0000
 11
48.7866
 21
0.8262
 31
0.0000
  0
LINE
  8
21
 10
48.7866
 20
0.8262
 30
0.0000
 11
48.9731
 21
1.0126
 31
0.0000
  0
LINE
  8
21
 10
48.9731
 20
1.0126
 30
0.0000
 11
48.7866
 21
1.1990
 31
0.0000
  0
LINE
  8
21
 10
48.7866
 20
1.1990
 30
0.0000
 11
48.4138
 21
1.1990
 31
0.0000
  0
LINE
  8
21
 10
48.4138
 20
1.1990
 30
0.0000
 11
48.2273
 21
1.3855
 31
0.0000
  0
LINE
  8
21
 10
48.2273
 20
1.3855
 30
0.0000
 11
48.4138
 21
1.5719
 31
0.0000
  0
LINE
  8
21
 10
48.4138
 20
1.5719
 30
0.0000
 11
48.9731
 21
1.5719
 31
0.0000
  0
LINE
  8
21
 10
49.5832
 20
0.8262
 30
0.0000
 11
49.9560
 21
0.8262
 31
0.0000
  0
LINE
  8
21
 10
49.9560
 20
0.8262
 30
0.0000
 11
50.1424
 21
1.0126
 31
0.0000
  0
LINE
  8
21
 10
50.1424
 20
1.0126
 30
0.0000
 11
50.1424
 21
1.3855
 31
0.0000
  0
LINE
  8
21
 10
50.1424
 20
1.3855
 30
0.0000
 11
49.9560
 21
1.5719
 31
0.0000
  0
LINE
  8
21
 10
49.9560
 20
1.5719
 30
0.0000
 11
49.5832
 21
1.5719
 31
0.0000
  0
LINE
  8
21
 10
49.5832
 20
1.5719
 30
0.0000
 11
49.3967
 21
1.3855
 31
0.0000
  0
LINE
  8
21
 10
49.3967
 20
1.3855
 30
0.0000
 11
49.3967
 21
1.0126
 31
0.0000
  0
LINE
  8
21
 10
49.3967
 20
1.0126
 30
0.0000
 11
49.5832
 21
0.8262
 31
0.0000
  0
LINE
  8
21
 10
50.5661
 20
1.9448
 30
0.0000
 11
50.7526
 21
1.9448
 31
0.0000
  0
LINE
  8
21
 10
50.7526
 20
1.9448
 30
0.0000
 11
50.7526
 21
0.8262
 31
0.0000
  0
LINE
  8
21
 10
50.5661
 20
0.8262
 30
0.0000
 11
50.9390
 21
0.8262
 31
0.0000
  0
LINE
  8
21
 10
51.5322
 20
1.5719
 30
0.0000
 11
51.9050
 21
1.5719
 31
0.0000
  0
LINE
  8
21
 10
51.9050
 20
1.5719
 30
0.0000
 11
52.0914
 21
1.3855
 31
0.0000
  0
LINE
  8
21
 10
52.0914
 20
1.3855
 30
0.0000
 11
52.0914
 21
0.8262
 31
0.0000
  0
LINE
  8
21
 10
52.0914
 20
0.8262
 30
0.0000
 11
51.5322
 21
0.8262
 31
0.0000
  0
LINE
  8
21
 10
51.5322
 20
0.8262
 30
0.0000
 11
51.3457
 21
1.0126
 31
0.0000
  0
LINE
  8
21
 10
51.3457
 20
1.0126
 30
0.0000
 11
51.5322
 21
1.1990
 31
0.0000
  0
LINE
  8
21
 10
51.5322
 20
1.1990
 30
0.0000
 11
52.0914
 21
1.1990
 31
0.0000
  0
LINE
  8
21
 10
52.5151
 20
0.8262
 30
0.0000
 11
52.5151
 21
1.5719
 31
0.0000
  0
LINE
  8
21
 10
52.5151
 20
1.1990
 30
0.0000
 11
52.8880
 21
1.5719
 31
0.0000
  0
LINE
  8
21
 10
52.8880
 20
1.5719
 30
0.0000
 11
53.0744
 21
1.5719
 31
0.0000
  0
LINE
  8
21
 10
53.4896
 20
1.5719
 30
0.0000
 11
53.4896
 21
1.0126
 31
0.0000
  0
LINE
  8
21
 10
53.4896
 20
1.0126
 30
0.0000
 11
53.6761
 21
0.8262
 31
0.0000
  0
LINE
  8
21
 10
53.6761
 20
0.8262
 30
0.0000
 11
53.8625
 21
1.0126
 31
0.0000
  0
LINE
  8
21
 10
53.8625
 20
1.0126
 30
0.0000
 11
54.0489
 21
0.8262
 31
0.0000
  0
LINE
  8
21
 10
54.0489
 20
0.8262
 30
0.0000
 11
54.2353
 21
1.0126
 31
0.0000
  0
LINE
  8
21
 10
54.2353
 20
1.0126
 30
0.0000
 11
54.2353
 21
1.5719
 31
0.0000
  0
LINE
  8
21
 10
54.6590
 20
1.9448
 30
0.0000
 11
54.6590
 21
0.8262
 31
0.0000
  0
LINE
  8
21
 10
54.6590
 20
1.3855
 30
0.0000
 11
54.8455
 21
1.5719
 31
0.0000
  0
LINE
  8
21
 10
54.8455
 20
1.5719
 30
0.0000
 11
55.2183
 21
1.5719
 31
0.0000
  0
LINE
  8
21
 10
55.2183
 20
1.5719
 30
0.0000
 11
55.4047
 21
1.3855
 31
0.0000
  0
LINE
  8
21
 10
55.4047
 20
1.3855
 30
0.0000
 11
55.4047
 21
0.8262
 31
0.0000
  0
LINE
  8
21
 10
56.0149
 20
1.5719
 30
0.0000
 11
56.3877
 21
1.5719
 31
0.0000
  0
LINE
  8
21
 10
56.3877
 20
1.5719
 30
0.0000
 11
56.5741
 21
1.3855
 31
0.0000
  0
LINE
  8
21
 10
56.5741
 20
1.3855
 30
0.0000
 11
56.5741
 21
0.8262
 31
0.0000
  0
LINE
  8
21
 10
56.5741
 20
0.8262
 30
0.0000
 11
56.0149
 21
0.8262
 31
0.0000
  0
LINE
  8
21
 10
56.0149
 20
0.8262
 30
0.0000
 11
55.8284
 21
1.0126
 31
0.0000
  0
LINE
  8
21
 10
55.8284
 20
1.0126
 30
0.0000
 11
56.0149
 21
1.1990
 31
0.0000
  0
LINE
  8
21
 10
56.0149
 20
1.1990
 30
0.0000
 11
56.5741
 21
1.1990
 31
0.0000
  0
LINE
  8
21
 10
57.1842
 20
1.7583
 30
0.0000
 11
57.1842
 21
1.0126
 31
0.0000
  0
LINE
  8
21
 10
57.1842
 20
1.0126
 30
0.0000
 11
57.3707
 21
0.8262
 31
0.0000
  0
LINE
  8
21
 10
56.9978
 20
1.5719
 30
0.0000
 11
57.3707
 21
1.5719
 31
0.0000
  0
LINE
  8
21
 10
57.7774
 20
0.8262
 30
0.0000
 11
57.7774
 21
1.0126
 31
0.0000
  0
LINE
  8
21
 10
57.7774
 20
1.0126
 30
0.0000
 11
57.9638
 21
1.0126
 31
0.0000
  0
LINE
  8
21
 10
57.9638
 20
1.0126
 30
0.0000
 11
57.9638
 21
0.8262
 31
0.0000
  0
LINE
  8
21
 10
57.9638
 20
0.8262
 30
0.0000
 11
57.7774
 21
0.8262
 31
0.0000
  0
LINE
  8
21
 10
58.3621
 20
1.5719
 30
0.0000
 11
59.1078
 21
0.8262
 31
0.0000
  0
LINE
  8
21
 10
58.3621
 20
0.8262
 30
0.0000
 11
59.1078
 21
1.5719
 31
0.0000
  0
LINE
  8
21
 10
59.5315
 20
1.5719
 30
0.0000
 11
59.5315
 21
1.0126
 31
0.0000
  0
LINE
  8
21
 10
59.5315
 20
1.0126
 30
0.0000
 11
59.7179
 21
0.8262
 31
0.0000
  0
LINE
  8
21
 10
59.7179
 20
0.8262
 30
0.0000
 11
60.2772
 21
0.8262
 31
0.0000
  0
LINE
  8
21
 10
60.2772
 20
1.5719
 30
0.0000
 11
60.2772
 21
0.6398
 31
0.0000
  0
LINE
  8
21
 10
60.2772
 20
0.6398
 30
0.0000
 11
60.0908
 21
0.4534
 31
0.0000
  0
LINE
  8
21
 10
60.0908
 20
0.4534
 30
0.0000
 11
59.9044
 21
0.4534
 31
0.0000
  0
LINE
  8
21
 10
60.7009
 20
1.5719
 30
0.0000
 11
61.4466
 21
1.5719
 31
0.0000
  0
LINE
  8
21
 10
61.4466
 20
1.5719
 30
0.0000
 11
60.7009
 21
0.8262
 31
0.0000
  0
LINE
  8
21
 10
60.7009
 20
0.8262
 30
0.0000
 11
61.4466
 21
0.8262
 31
0.0000
  0
LINE
  8
21
 10
34.0762
 20
17.8862
 30
0.0000
 11
34.0762
 21
19.0048
 31
0.0000
  0
LINE
  8
21
 10
34.0762
 20
19.0048
 30
0.0000
 11
34.6355
 21
19.0048
 31
0.0000
  0
LINE
  8
21
 10
34.6355
 20
19.0048
 30
0.0000
 11
34.8219
 21
18.8183
 31
0.0000
  0
LINE
  8
21
 10
34.8219
 20
18.8183
 30
0.0000
 11
34.8219
 21
18.6319
 31
0.0000
  0
LINE
  8
21
 10
34.8219
 20
18.6319
 30
0.0000
 11
34.6355
 21
18.4455
 31
0.0000
  0
LINE
  8
21
 10
34.6355
 20
18.4455
 30
0.0000
 11
34.8219
 21
18.2591
 31
0.0000
  0
LINE
  8
21
 10
34.8219
 20
18.2591
 30
0.0000
 11
34.8219
 21
18.0726
 31
0.0000
  0
LINE
  8
21
 10
34.8219
 20
18.0726
 30
0.0000
 11
34.6355
 21
17.8862
 31
0.0000
  0
LINE
  8
21
 10
34.6355
 20
17.8862
 30
0.0000
 11
34.0762
 21
17.8862
 31
0.0000
  0
LINE
  8
21
 10
34.0762
 20
18.4455
 30
0.0000
 11
34.6355
 21
18.4455
 31
0.0000
  0
LINE
  8
21
 10
35.4320
 20
18.6319
 30
0.0000
 11
35.8049
 21
18.6319
 31
0.0000
  0
LINE
  8
21
 10
35.8049
 20
18.6319
 30
0.0000
 11
35.9913
 21
18.4455
 31
0.0000
  0
LINE
  8
21
 10
35.9913
 20
18.4455
 30
0.0000
 11
35.9913
 21
17.8862
 31
0.0000
  0
LINE
  8
21
 10
35.9913
 20
17.8862
 30
0.0000
 11
35.4320
 21
17.8862
 31
0.0000
  0
LINE
  8
21
 10
35.4320
 20
17.8862
 30
0.0000
 11
35.2456
 21
18.0726
 31
0.0000
  0
LINE
  8
21
 10
35.2456
 20
18.0726
 30
0.0000
 11
35.4320
 21
18.2591
 31
0.0000
  0
LINE
  8
21
 10
35.4320
 20
18.2591
 30
0.0000
 11
35.9913
 21
18.2591
 31
0.0000
  0
LINE
  8
21
 10
36.6014
 20
18.8183
 30
0.0000
 11
36.6014
 21
18.0726
 31
0.0000
  0
LINE
  8
21
 10
36.6014
 20
18.0726
 30
0.0000
 11
36.7878
 21
17.8862
 31
0.0000
  0
LINE
  8
21
 10
36.4150
 20
18.6319
 30
0.0000
 11
36.7878
 21
18.6319
 31
0.0000
  0
LINE
  8
21
 10
37.1946
 20
17.8862
 30
0.0000
 11
37.1946
 21
18.0726
 31
0.0000
  0
LINE
  8
21
 10
37.1946
 20
18.0726
 30
0.0000
 11
37.3810
 21
18.0726
 31
0.0000
  0
LINE
  8
21
 10
37.3810
 20
18.0726
 30
0.0000
 11
37.3810
 21
17.8862
 31
0.0000
  0
LINE
  8
21
 10
37.3810
 20
17.8862
 30
0.0000
 11
37.1946
 21
17.8862
 31
0.0000
  0
LINE
  8
21
 10
38.9487
 20
19.0048
 30
0.0000
 11
38.9487
 21
17.8862
 31
0.0000
  0
LINE
  8
21
 10
38.9487
 20
17.8862
 30
0.0000
 11
39.6944
 21
17.8862
 31
0.0000
  0
LINE
  8
21
 10
40.3045
 20
17.8862
 30
0.0000
 11
40.6774
 21
17.8862
 31
0.0000
  0
LINE
  8
21
 10
40.6774
 20
17.8862
 30
0.0000
 11
40.8638
 21
18.0726
 31
0.0000
  0
LINE
  8
21
 10
40.8638
 20
18.0726
 30
0.0000
 11
40.8638
 21
18.4455
 31
0.0000
  0
LINE
  8
21
 10
40.8638
 20
18.4455
 30
0.0000
 11
40.6774
 21
18.6319
 31
0.0000
  0
LINE
  8
21
 10
40.6774
 20
18.6319
 30
0.0000
 11
40.3045
 21
18.6319
 31
0.0000
  0
LINE
  8
21
 10
40.3045
 20
18.6319
 30
0.0000
 11
40.1181
 21
18.4455
 31
0.0000
  0
LINE
  8
21
 10
40.1181
 20
18.4455
 30
0.0000
 11
40.1181
 21
18.0726
 31
0.0000
  0
LINE
  8
21
 10
40.1181
 20
18.0726
 30
0.0000
 11
40.3045
 21
17.8862
 31
0.0000
  0
LINE
  8
21
 10
41.2875
 20
18.6319
 30
0.0000
 11
41.2875
 21
18.0726
 31
0.0000
  0
LINE
  8
21
 10
41.2875
 20
18.0726
 30
0.0000
 11
41.4739
 21
17.8862
 31
0.0000
  0
LINE
  8
21
 10
41.4739
 20
17.8862
 30
0.0000
 11
41.6603
 21
18.0726
 31
0.0000
  0
LINE
  8
21
 10
41.6603
 20
18.0726
 30
0.0000
 11
41.8468
 21
17.8862
 31
0.0000
  0
LINE
  8
21
 10
41.8468
 20
17.8862
 30
0.0000
 11
42.0332
 21
18.0726
 31
0.0000
  0
LINE
  8
21
 10
42.0332
 20
18.0726
 30
0.0000
 11
42.0332
 21
18.6319
 31
0.0000
  0
LINE
  8
21
 10
34.8219
 20
16.9133
 30
0.0000
 11
34.6355
 21
17.0998
 31
0.0000
  0
LINE
  8
21
 10
34.6355
 20
17.0998
 30
0.0000
 11
34.2626
 21
17.0998
 31
0.0000
  0
LINE
  8
21
 10
34.2626
 20
17.0998
 30
0.0000
 11
34.0762
 21
16.9133
 31
0.0000
  0
LINE
  8
21
 10
34.0762
 20
16.9133
 30
0.0000
 11
34.0762
 21
16.1676
 31
0.0000
  0
LINE
  8
21
 10
34.0762
 20
16.1676
 30
0.0000
 11
34.2626
 21
15.9812
 31
0.0000
  0
LINE
  8
21
 10
34.2626
 20
15.9812
 30
0.0000
 11
34.6355
 21
15.9812
 31
0.0000
  0
LINE
  8
21
 10
34.6355
 20
15.9812
 30
0.0000
 11
34.8219
 21
16.1676
 31
0.0000
  0
LINE
  8
21
 10
35.2456
 20
17.0998
 30
0.0000
 11
35.2456
 21
15.9812
 31
0.0000
  0
LINE
  8
21
 10
35.2456
 20
16.5405
 30
0.0000
 11
35.4320
 21
16.7269
 31
0.0000
  0
LINE
  8
21
 10
35.4320
 20
16.7269
 30
0.0000
 11
35.8049
 21
16.7269
 31
0.0000
  0
LINE
  8
21
 10
35.8049
 20
16.7269
 30
0.0000
 11
35.9913
 21
16.5405
 31
0.0000
  0
LINE
  8
21
 10
35.9913
 20
16.5405
 30
0.0000
 11
35.9913
 21
15.9812
 31
0.0000
  0
LINE
  8
21
 10
36.6014
 20
16.7269
 30
0.0000
 11
36.9743
 21
16.7269
 31
0.0000
  0
LINE
  8
21
 10
36.9743
 20
16.7269
 30
0.0000
 11
37.1607
 21
16.5405
 31
0.0000
  0
LINE
  8
21
 10
37.1607
 20
16.5405
 30
0.0000
 11
37.1607
 21
15.9812
 31
0.0000
  0
LINE
  8
21
 10
37.1607
 20
15.9812
 30
0.0000
 11
36.6014
 21
15.9812
 31
0.0000
  0
LINE
  8
21
 10
36.6014
 20
15.9812
 30
0.0000
 11
36.4150
 21
16.1676
 31
0.0000
  0
LINE
  8
21
 10
36.4150
 20
16.1676
 30
0.0000
 11
36.6014
 21
16.3541
 31
0.0000
  0
LINE
  8
21
 10
36.6014
 20
16.3541
 30
0.0000
 11
37.1607
 21
16.3541
 31
0.0000
  0
LINE
  8
21
 10
37.5844
 20
15.9812
 30
0.0000
 11
37.5844
 21
16.7269
 31
0.0000
  0
LINE
  8
21
 10
37.5844
 20
16.3541
 30
0.0000
 11
37.9572
 21
16.7269
 31
0.0000
  0
LINE
  8
21
 10
37.9572
 20
16.7269
 30
0.0000
 11
38.1437
 21
16.7269
 31
0.0000
  0
LINE
  8
21
 10
38.9317
 20
15.6084
 30
0.0000
 11
39.1182
 21
15.6084
 31
0.0000
  0
LINE
  8
21
 10
39.1182
 20
15.6084
 30
0.0000
 11
39.3046
 21
15.7948
 31
0.0000
  0
LINE
  8
21
 10
39.3046
 20
15.7948
 30
0.0000
 11
39.3046
 21
16.7269
 31
0.0000
  0
LINE
  8
21
 10
39.3046
 20
16.7269
 30
0.0000
 11
38.7453
 21
16.7269
 31
0.0000
  0
LINE
  8
21
 10
38.7453
 20
16.7269
 30
0.0000
 11
38.5589
 21
16.5405
 31
0.0000
  0
LINE
  8
21
 10
38.5589
 20
16.5405
 30
0.0000
 11
38.5589
 21
16.1676
 31
0.0000
  0
LINE
  8
21
 10
38.5589
 20
16.1676
 30
0.0000
 11
38.7453
 21
15.9812
 31
0.0000
  0
LINE
  8
21
 10
38.7453
 20
15.9812
 30
0.0000
 11
39.3046
 21
15.9812
 31
0.0000
  0
LINE
  8
21
 10
39.7283
 20
16.7269
 30
0.0000
 11
39.9147
 21
16.7269
 31
0.0000
  0
LINE
  8
21
 10
39.9147
 20
16.7269
 30
0.0000
 11
39.9147
 21
15.9812
 31
0.0000
  0
LINE
  8
21
 10
39.7283
 20
15.9812
 30
0.0000
 11
40.1011
 21
15.9812
 31
0.0000
  0
LINE
  8
21
 10
39.9147
 20
17.2862
 30
0.0000
 11
39.9147
 21
17.0998
 31
0.0000
  0
LINE
  8
21
 10
40.5079
 20
15.9812
 30
0.0000
 11
40.5079
 21
16.7269
 31
0.0000
  0
LINE
  8
21
 10
40.5079
 20
16.7269
 30
0.0000
 11
41.0672
 21
16.7269
 31
0.0000
  0
LINE
  8
21
 10
41.0672
 20
16.7269
 30
0.0000
 11
41.2536
 21
16.5405
 31
0.0000
  0
LINE
  8
21
 10
41.2536
 20
16.5405
 30
0.0000
 11
41.2536
 21
15.9812
 31
0.0000
  0
LINE
  8
21
 10
42.0501
 20
15.6084
 30
0.0000
 11
42.2366
 21
15.6084
 31
0.0000
  0
LINE
  8
21
 10
42.2366
 20
15.6084
 30
0.0000
 11
42.4230
 21
15.7948
 31
0.0000
  0
LINE
  8
21
 10
42.4230
 20
15.7948
 30
0.0000
 11
42.4230
 21
16.7269
 31
0.0000
  0
LINE
  8
21
 10
42.4230
 20
16.7269
 30
0.0000
 11
41.8637
 21
16.7269
 31
0.0000
  0
LINE
  8
21
 10
41.8637
 20
16.7269
 30
0.0000
 11
41.6773
 21
16.5405
 31
0.0000
  0
LINE
  8
21
 10
41.6773
 20
16.5405
 30
0.0000
 11
41.6773
 21
16.1676
 31
0.0000
  0
LINE
  8
21
 10
41.6773
 20
16.1676
 30
0.0000
 11
41.8637
 21
15.9812
 31
0.0000
  0
LINE
  8
21
 10
41.8637
 20
15.9812
 30
0.0000
 11
42.4230
 21
15.9812
 31
0.0000
  0
LINE
  8
21
 10
34.8219
 20
15.0083
 30
0.0000
 11
34.6355
 21
15.1948
 31
0.0000
  0
LINE
  8
21
 10
34.6355
 20
15.1948
 30
0.0000
 11
34.2626
 21
15.1948
 31
0.0000
  0
LINE
  8
21
 10
34.2626
 20
15.1948
 30
0.0000
 11
34.0762
 21
15.0083
 31
0.0000
  0
LINE
  8
21
 10
34.0762
 20
15.0083
 30
0.0000
 11
34.0762
 21
14.2626
 31
0.0000
  0
LINE
  8
21
 10
34.0762
 20
14.2626
 30
0.0000
 11
34.2626
 21
14.0762
 31
0.0000
  0
LINE
  8
21
 10
34.2626
 20
14.0762
 30
0.0000
 11
34.6355
 21
14.0762
 31
0.0000
  0
LINE
  8
21
 10
34.6355
 20
14.0762
 30
0.0000
 11
34.8219
 21
14.2626
 31
0.0000
  0
LINE
  8
21
 10
35.2456
 20
15.1948
 30
0.0000
 11
35.2456
 21
14.0762
 31
0.0000
  0
LINE
  8
21
 10
35.2456
 20
14.6355
 30
0.0000
 11
35.4320
 21
14.8219
 31
0.0000
  0
LINE
  8
21
 10
35.4320
 20
14.8219
 30
0.0000
 11
35.8049
 21
14.8219
 31
0.0000
  0
LINE
  8
21
 10
35.8049
 20
14.8219
 30
0.0000
 11
35.9913
 21
14.6355
 31
0.0000
  0
LINE
  8
21
 10
35.9913
 20
14.6355
 30
0.0000
 11
35.9913
 21
14.0762
 31
0.0000
  0
LINE
  8
21
 10
36.6014
 20
14.8219
 30
0.0000
 11
36.9743
 21
14.8219
 31
0.0000
  0
LINE
  8
21
 10
36.9743
 20
14.8219
 30
0.0000
 11
37.1607
 21
14.6355
 31
0.0000
  0
LINE
  8
21
 10
37.1607
 20
14.6355
 30
0.0000
 11
37.1607
 21
14.0762
 31
0.0000
  0
LINE
  8
21
 10
37.1607
 20
14.0762
 30
0.0000
 11
36.6014
 21
14.0762
 31
0.0000
  0
LINE
  8
21
 10
36.6014
 20
14.0762
 30
0.0000
 11
36.4150
 21
14.2626
 31
0.0000
  0
LINE
  8
21
 10
36.4150
 20
14.2626
 30
0.0000
 11
36.6014
 21
14.4491
 31
0.0000
  0
LINE
  8
21
 10
36.6014
 20
14.4491
 30
0.0000
 11
37.1607
 21
14.4491
 31
0.0000
  0
LINE
  8
21
 10
37.5844
 20
14.0762
 30
0.0000
 11
37.5844
 21
14.8219
 31
0.0000
  0
LINE
  8
21
 10
37.5844
 20
14.4491
 30
0.0000
 11
37.9572
 21
14.8219
 31
0.0000
  0
LINE
  8
21
 10
37.9572
 20
14.8219
 30
0.0000
 11
38.1437
 21
14.8219
 31
0.0000
  0
LINE
  8
21
 10
38.9317
 20
13.7034
 30
0.0000
 11
39.1182
 21
13.7034
 31
0.0000
  0
LINE
  8
21
 10
39.1182
 20
13.7034
 30
0.0000
 11
39.3046
 21
13.8898
 31
0.0000
  0
LINE
  8
21
 10
39.3046
 20
13.8898
 30
0.0000
 11
39.3046
 21
14.8219
 31
0.0000
  0
LINE
  8
21
 10
39.3046
 20
14.8219
 30
0.0000
 11
38.7453
 21
14.8219
 31
0.0000
  0
LINE
  8
21
 10
38.7453
 20
14.8219
 30
0.0000
 11
38.5589
 21
14.6355
 31
0.0000
  0
LINE
  8
21
 10
38.5589
 20
14.6355
 30
0.0000
 11
38.5589
 21
14.2626
 31
0.0000
  0
LINE
  8
21
 10
38.5589
 20
14.2626
 30
0.0000
 11
38.7453
 21
14.0762
 31
0.0000
  0
LINE
  8
21
 10
38.7453
 20
14.0762
 30
0.0000
 11
39.3046
 21
14.0762
 31
0.0000
  0
LINE
  8
21
 10
40.2876
 20
14.0762
 30
0.0000
 11
39.9147
 21
14.0762
 31
0.0000
  0
LINE
  8
21
 10
39.9147
 20
14.0762
 30
0.0000
 11
39.7283
 21
14.2626
 31
0.0000
  0
LINE
  8
21
 10
39.7283
 20
14.2626
 30
0.0000
 11
39.7283
 21
14.6355
 31
0.0000
  0
LINE
  8
21
 10
39.7283
 20
14.6355
 30
0.0000
 11
39.9147
 21
14.8219
 31
0.0000
  0
LINE
  8
21
 10
39.9147
 20
14.8219
 30
0.0000
 11
40.2876
 21
14.8219
 31
0.0000
  0
LINE
  8
21
 10
40.2876
 20
14.8219
 30
0.0000
 11
40.4740
 21
14.6355
 31
0.0000
  0
LINE
  8
21
 10
40.4740
 20
14.6355
 30
0.0000
 11
40.4740
 21
14.4491
 31
0.0000
  0
LINE
  8
21
 10
40.4740
 20
14.4491
 30
0.0000
 11
39.7283
 21
14.4491
 31
0.0000
  0
LINE
  8
21
 10
41.6434
 20
15.1948
 30
0.0000
 11
41.6434
 21
14.0762
 31
0.0000
  0
LINE
  8
21
 10
41.6434
 20
14.0762
 30
0.0000
 11
41.0841
 21
14.0762
 31
0.0000
  0
LINE
  8
21
 10
41.0841
 20
14.0762
 30
0.0000
 11
40.8977
 21
14.2626
 31
0.0000
  0
LINE
  8
21
 10
40.8977
 20
14.2626
 30
0.0000
 11
40.8977
 21
14.6355
 31
0.0000
  0
LINE
  8
21
 10
40.8977
 20
14.6355
 30
0.0000
 11
41.0841
 21
14.8219
 31
0.0000
  0
LINE
  8
21
 10
41.0841
 20
14.8219
 30
0.0000
 11
41.6434
 21
14.8219
 31
0.0000
  0
LINE
  8
21
 10
27.8262
 20
25.8855
 30
0.0000
 11
28.5719
 21
25.8855
 31
0.0000
  0
LINE
  8
21
 10
34.8426
 20
25.8855
 30
0.0000
 11
35.5883
 21
25.8855
 31
0.0000
  0
LINE
  8
21
 10
35.2154
 20
26.2583
 30
0.0000
 11
35.2154
 21
25.5126
 31
0.0000
  0
LINE
  8
21
 10
38.0508
 20
32.7626
 30
0.0000
 11
38.0508
 21
32.1694
 31
0.0000
  0
LINE
  8
21
 10
38.0508
 20
32.1694
 30
0.0000
 11
38.1694
 21
32.0508
 31
0.0000
  0
LINE
  8
21
 10
38.1694
 20
32.0508
 30
0.0000
 11
38.4067
 21
32.0508
 31
0.0000
  0
LINE
  8
21
 10
38.4067
 20
32.0508
 30
0.0000
 11
38.5253
 21
32.1694
 31
0.0000
  0
LINE
  8
21
 10
38.5253
 20
32.1694
 30
0.0000
 11
38.5253
 21
32.7626
 31
0.0000
  0
LINE
  8
21
 10
39.2738
 20
32.6440
 30
0.0000
 11
39.1551
 21
32.7626
 31
0.0000
  0
LINE
  8
21
 10
39.1551
 20
32.7626
 30
0.0000
 11
38.9179
 21
32.7626
 31
0.0000
  0
LINE
  8
21
 10
38.9179
 20
32.7626
 30
0.0000
 11
38.7992
 21
32.6440
 31
0.0000
  0
LINE
  8
21
 10
38.7992
 20
32.6440
 30
0.0000
 11
38.7992
 21
32.5253
 31
0.0000
  0
LINE
  8
21
 10
38.7992
 20
32.5253
 30
0.0000
 11
38.9179
 21
32.4067
 31
0.0000
  0
LINE
  8
21
 10
38.9179
 20
32.4067
 30
0.0000
 11
39.1551
 21
32.4067
 31
0.0000
  0
LINE
  8
21
 10
39.1551
 20
32.4067
 30
0.0000
 11
39.2738
 21
32.2881
 31
0.0000
  0
LINE
  8
21
 10
39.2738
 20
32.2881
 30
0.0000
 11
39.2738
 21
32.1694
 31
0.0000
  0
LINE
  8
21
 10
39.2738
 20
32.1694
 30
0.0000
 11
39.1551
 21
32.0508
 31
0.0000
  0
LINE
  8
21
 10
39.1551
 20
32.0508
 30
0.0000
 11
38.9179
 21
32.0508
 31
0.0000
  0
LINE
  8
21
 10
38.9179
 20
32.0508
 30
0.0000
 11
38.7992
 21
32.1694
 31
0.0000
  0
LINE
  8
21
 10
39.5476
 20
32.0508
 30
0.0000
 11
39.5476
 21
32.7626
 31
0.0000
  0
LINE
  8
21
 10
39.5476
 20
32.7626
 30
0.0000
 11
39.9035
 21
32.7626
 31
0.0000
  0
LINE
  8
21
 10
39.9035
 20
32.7626
 30
0.0000
 11
40.0222
 21
32.6440
 31
0.0000
  0
LINE
  8
21
 10
40.0222
 20
32.6440
 30
0.0000
 11
40.0222
 21
32.5253
 31
0.0000
  0
LINE
  8
21
 10
40.0222
 20
32.5253
 30
0.0000
 11
39.9035
 21
32.4067
 31
0.0000
  0
LINE
  8
21
 10
39.9035
 20
32.4067
 30
0.0000
 11
40.0222
 21
32.2881
 31
0.0000
  0
LINE
  8
21
 10
40.0222
 20
32.2881
 30
0.0000
 11
40.0222
 21
32.1694
 31
0.0000
  0
LINE
  8
21
 10
40.0222
 20
32.1694
 30
0.0000
 11
39.9035
 21
32.0508
 31
0.0000
  0
LINE
  8
21
 10
39.9035
 20
32.0508
 30
0.0000
 11
39.5476
 21
32.0508
 31
0.0000
  0
LINE
  8
21
 10
39.5476
 20
32.4067
 30
0.0000
 11
39.9035
 21
32.4067
 31
0.0000
  0
LINE
  8
21
 10
41.5190
 20
32.5253
 30
0.0000
 11
41.1631
 21
32.5253
 31
0.0000
  0
LINE
  8
21
 10
41.1631
 20
32.5253
 30
0.0000
 11
41.0445
 21
32.4067
 31
0.0000
  0
LINE
  8
21
 10
41.0445
 20
32.4067
 30
0.0000
 11
41.0445
 21
32.1694
 31
0.0000
  0
LINE
  8
21
 10
41.0445
 20
32.1694
 30
0.0000
 11
41.1631
 21
32.0508
 31
0.0000
  0
LINE
  8
21
 10
41.1631
 20
32.0508
 30
0.0000
 11
41.5190
 21
32.0508
 31
0.0000
  0
LINE
  8
21
 10
41.9115
 20
32.0508
 30
0.0000
 11
42.1488
 21
32.0508
 31
0.0000
  0
LINE
  8
21
 10
42.1488
 20
32.0508
 30
0.0000
 11
42.2674
 21
32.1694
 31
0.0000
  0
LINE
  8
21
 10
42.2674
 20
32.1694
 30
0.0000
 11
42.2674
 21
32.4067
 31
0.0000
  0
LINE
  8
21
 10
42.2674
 20
32.4067
 30
0.0000
 11
42.1488
 21
32.5253
 31
0.0000
  0
LINE
  8
21
 10
42.1488
 20
32.5253
 30
0.0000
 11
41.9115
 21
32.5253
 31
0.0000
  0
LINE
  8
21
 10
41.9115
 20
32.5253
 30
0.0000
 11
41.7929
 21
32.4067
 31
0.0000
  0
LINE
  8
21
 10
41.7929
 20
32.4067
 30
0.0000
 11
41.7929
 21
32.1694
 31
0.0000
  0
LINE
  8
21
 10
41.7929
 20
32.1694
 30
0.0000
 11
41.9115
 21
32.0508
 31
0.0000
  0
LINE
  8
21
 10
42.5413
 20
32.0508
 30
0.0000
 11
42.5413
 21
32.5253
 31
0.0000
  0
LINE
  8
21
 10
42.5413
 20
32.5253
 30
0.0000
 11
42.8972
 21
32.5253
 31
0.0000
  0
LINE
  8
21
 10
42.8972
 20
32.5253
 30
0.0000
 11
43.0158
 21
32.4067
 31
0.0000
  0
LINE
  8
21
 10
43.0158
 20
32.4067
 30
0.0000
 11
43.0158
 21
32.0508
 31
0.0000
  0
LINE
  8
21
 10
43.2897
 20
32.5253
 30
0.0000
 11
43.4083
 21
32.5253
 31
0.0000
  0
LINE
  8
21
 10
43.4083
 20
32.5253
 30
0.0000
 11
43.4083
 21
32.4067
 31
0.0000
  0
LINE
  8
21
 10
43.4083
 20
32.4067
 30
0.0000
 11
43.2897
 21
32.4067
 31
0.0000
  0
LINE
  8
21
 10
43.2897
 20
32.4067
 30
0.0000
 11
43.2897
 21
32.5253
 31
0.0000
  0
LINE
  8
21
 10
43.2897
 20
32.1694
 30
0.0000
 11
43.4083
 21
32.1694
 31
0.0000
  0
LINE
  8
21
 10
43.4083
 20
32.1694
 30
0.0000
 11
43.4083
 21
32.0508
 31
0.0000
  0
LINE
  8
21
 10
43.4083
 20
32.0508
 30
0.0000
 11
43.2897
 21
32.0508
 31
0.0000
  0
LINE
  8
21
 10
43.2897
 20
32.0508
 30
0.0000
 11
43.2897
 21
32.1694
 31
0.0000
  0
LINE
  8
21
 10
44.4123
 20
32.0508
 30
0.0000
 11
44.4123
 21
32.7626
 31
0.0000
  0
LINE
  8
21
 10
44.4123
 20
32.7626
 30
0.0000
 11
44.6496
 21
32.5253
 31
0.0000
  0
LINE
  8
21
 10
44.6496
 20
32.5253
 30
0.0000
 11
44.8869
 21
32.7626
 31
0.0000
  0
LINE
  8
21
 10
44.8869
 20
32.7626
 30
0.0000
 11
44.8869
 21
32.0508
 31
0.0000
  0
LINE
  8
21
 10
45.2794
 20
32.0508
 30
0.0000
 11
45.5167
 21
32.0508
 31
0.0000
  0
LINE
  8
21
 10
45.5167
 20
32.0508
 30
0.0000
 11
45.6353
 21
32.1694
 31
0.0000
  0
LINE
  8
21
 10
45.6353
 20
32.1694
 30
0.0000
 11
45.6353
 21
32.4067
 31
0.0000
  0
LINE
  8
21
 10
45.6353
 20
32.4067
 30
0.0000
 11
45.5167
 21
32.5253
 31
0.0000
  0
LINE
  8
21
 10
45.5167
 20
32.5253
 30
0.0000
 11
45.2794
 21
32.5253
 31
0.0000
  0
LINE
  8
21
 10
45.2794
 20
32.5253
 30
0.0000
 11
45.1607
 21
32.4067
 31
0.0000
  0
LINE
  8
21
 10
45.1607
 20
32.4067
 30
0.0000
 11
45.1607
 21
32.1694
 31
0.0000
  0
LINE
  8
21
 10
45.1607
 20
32.1694
 30
0.0000
 11
45.2794
 21
32.0508
 31
0.0000
  0
LINE
  8
21
 10
45.9092
 20
32.7626
 30
0.0000
 11
46.0278
 21
32.7626
 31
0.0000
  0
LINE
  8
21
 10
46.0278
 20
32.7626
 30
0.0000
 11
46.0278
 21
32.0508
 31
0.0000
  0
LINE
  8
21
 10
45.9092
 20
32.0508
 30
0.0000
 11
46.1464
 21
32.0508
 31
0.0000
  0
LINE
  8
21
 10
46.7640
 20
32.0508
 30
0.0000
 11
46.5267
 21
32.0508
 31
0.0000
  0
LINE
  8
21
 10
46.5267
 20
32.0508
 30
0.0000
 11
46.4081
 21
32.1694
 31
0.0000
  0
LINE
  8
21
 10
46.4081
 20
32.1694
 30
0.0000
 11
46.4081
 21
32.4067
 31
0.0000
  0
LINE
  8
21
 10
46.4081
 20
32.4067
 30
0.0000
 11
46.5267
 21
32.5253
 31
0.0000
  0
LINE
  8
21
 10
46.5267
 20
32.5253
 30
0.0000
 11
46.7640
 21
32.5253
 31
0.0000
  0
LINE
  8
21
 10
46.7640
 20
32.5253
 30
0.0000
 11
46.8826
 21
32.4067
 31
0.0000
  0
LINE
  8
21
 10
46.8826
 20
32.4067
 30
0.0000
 11
46.8826
 21
32.2881
 31
0.0000
  0
LINE
  8
21
 10
46.8826
 20
32.2881
 30
0.0000
 11
46.4081
 21
32.2881
 31
0.0000
  0
LINE
  8
21
 10
47.1565
 20
32.5253
 30
0.0000
 11
47.6311
 21
32.0508
 31
0.0000
  0
LINE
  8
21
 10
47.1565
 20
32.0508
 30
0.0000
 11
47.6311
 21
32.5253
 31
0.0000
  0
LINE
  8
21
 10
48.6534
 20
32.5253
 30
0.0000
 11
48.8906
 21
32.7626
 31
0.0000
  0
LINE
  8
21
 10
48.8906
 20
32.7626
 30
0.0000
 11
48.8906
 21
32.0508
 31
0.0000
  0
LINE
  8
21
 10
48.6534
 20
32.0508
 30
0.0000
 11
49.1279
 21
32.0508
 31
0.0000
  0
LINE
  8
21
 10
49.4018
 20
32.1694
 30
0.0000
 11
49.4018
 21
32.6440
 31
0.0000
  0
LINE
  8
21
 10
49.4018
 20
32.6440
 30
0.0000
 11
49.5204
 21
32.7626
 31
0.0000
  0
LINE
  8
21
 10
49.5204
 20
32.7626
 30
0.0000
 11
49.7577
 21
32.7626
 31
0.0000
  0
LINE
  8
21
 10
49.7577
 20
32.7626
 30
0.0000
 11
49.8763
 21
32.6440
 31
0.0000
  0
LINE
  8
21
 10
49.8763
 20
32.6440
 30
0.0000
 11
49.8763
 21
32.1694
 31
0.0000
  0
LINE
  8
21
 10
49.8763
 20
32.1694
 30
0.0000
 11
49.7577
 21
32.0508
 31
0.0000
  0
LINE
  8
21
 10
49.7577
 20
32.0508
 30
0.0000
 11
49.5204
 21
32.0508
 31
0.0000
  0
LINE
  8
21
 10
49.5204
 20
32.0508
 30
0.0000
 11
49.4018
 21
32.1694
 31
0.0000
  0
LINE
  8
21
 10
49.4018
 20
32.1694
 30
0.0000
 11
49.8763
 21
32.6440
 31
0.0000
  0
LINE
  8
21
 10
50.6247
 20
32.7626
 30
0.0000
 11
50.1502
 21
32.7626
 31
0.0000
  0
LINE
  8
21
 10
50.1502
 20
32.7626
 30
0.0000
 11
50.1502
 21
32.4067
 31
0.0000
  0
LINE
  8
21
 10
50.1502
 20
32.4067
 30
0.0000
 11
50.3875
 21
32.5253
 31
0.0000
  0
LINE
  8
21
 10
50.3875
 20
32.5253
 30
0.0000
 11
50.5061
 21
32.5253
 31
0.0000
  0
LINE
  8
21
 10
50.5061
 20
32.5253
 30
0.0000
 11
50.6247
 21
32.4067
 31
0.0000
  0
LINE
  8
21
 10
50.6247
 20
32.4067
 30
0.0000
 11
50.6247
 21
32.1694
 31
0.0000
  0
LINE
  8
21
 10
50.6247
 20
32.1694
 30
0.0000
 11
50.5061
 21
32.0508
 31
0.0000
  0
LINE
  8
21
 10
50.5061
 20
32.0508
 30
0.0000
 11
50.2688
 21
32.0508
 31
0.0000
  0
LINE
  8
21
 10
50.2688
 20
32.0508
 30
0.0000
 11
50.1502
 21
32.1694
 31
0.0000
  0
LINE
  8
21
 10
51.2545
 20
32.0508
 30
0.0000
 11
51.2545
 21
32.7626
 31
0.0000
  0
LINE
  8
21
 10
51.2545
 20
32.7626
 30
0.0000
 11
50.8986
 21
32.4067
 31
0.0000
  0
LINE
  8
21
 10
50.8986
 20
32.4067
 30
0.0000
 11
51.3731
 21
32.4067
 31
0.0000
  0
LINE
  8
21
 10
52.0029
 20
32.0508
 30
0.0000
 11
52.0029
 21
32.7626
 31
0.0000
  0
LINE
  8
21
 10
52.0029
 20
32.7626
 30
0.0000
 11
51.6470
 21
32.4067
 31
0.0000
  0
LINE
  8
21
 10
51.6470
 20
32.4067
 30
0.0000
 11
52.1216
 21
32.4067
 31
0.0000
  0
LINE
  8
21
 10
52.3954
 20
32.6440
 30
0.0000
 11
52.5141
 21
32.7626
 31
0.0000
  0
LINE
  8
21
 10
52.5141
 20
32.7626
 30
0.0000
 11
52.7513
 21
32.7626
 31
0.0000
  0
LINE
  8
21
 10
52.7513
 20
32.7626
 30
0.0000
 11
52.8700
 21
32.6440
 31
0.0000
  0
LINE
  8
21
 10
52.8700
 20
32.6440
 30
0.0000
 11
52.8700
 21
32.5253
 31
0.0000
  0
LINE
  8
21
 10
52.8700
 20
32.5253
 30
0.0000
 11
52.7513
 21
32.4067
 31
0.0000
  0
LINE
  8
21
 10
52.7513
 20
32.4067
 30
0.0000
 11
52.6327
 21
32.4067
 31
0.0000
  0
LINE
  8
21
 10
52.7513
 20
32.4067
 30
0.0000
 11
52.8700
 21
32.2881
 31
0.0000
  0
LINE
  8
21
 10
52.8700
 20
32.2881
 30
0.0000
 11
52.8700
 21
32.1694
 31
0.0000
  0
LINE
  8
21
 10
52.8700
 20
32.1694
 30
0.0000
 11
52.7513
 21
32.0508
 31
0.0000
  0
LINE
  8
21
 10
52.7513
 20
32.0508
 30
0.0000
 11
52.5141
 21
32.0508
 31
0.0000
  0
LINE
  8
21
 10
52.5141
 20
32.0508
 30
0.0000
 11
52.3954
 21
32.1694
 31
0.0000
  0
LINE
  8
21
 10
53.1438
 20
32.1694
 30
0.0000
 11
53.1438
 21
32.6440
 31
0.0000
  0
LINE
  8
21
 10
53.1438
 20
32.6440
 30
0.0000
 11
53.2625
 21
32.7626
 31
0.0000
  0
LINE
  8
21
 10
53.2625
 20
32.7626
 30
0.0000
 11
53.4998
 21
32.7626
 31
0.0000
  0
LINE
  8
21
 10
53.4998
 20
32.7626
 30
0.0000
 11
53.6184
 21
32.6440
 31
0.0000
  0
LINE
  8
21
 10
53.6184
 20
32.6440
 30
0.0000
 11
53.6184
 21
32.1694
 31
0.0000
  0
LINE
  8
21
 10
53.6184
 20
32.1694
 30
0.0000
 11
53.4998
 21
32.0508
 31
0.0000
  0
LINE
  8
21
 10
53.4998
 20
32.0508
 30
0.0000
 11
53.2625
 21
32.0508
 31
0.0000
  0
LINE
  8
21
 10
53.2625
 20
32.0508
 30
0.0000
 11
53.1438
 21
32.1694
 31
0.0000
  0
LINE
  8
21
 10
53.1438
 20
32.1694
 30
0.0000
 11
53.6184
 21
32.6440
 31
0.0000
  0
LINE
  8
21
 10
53.8923
 20
32.5253
 30
0.0000
 11
54.1295
 21
32.7626
 31
0.0000
  0
LINE
  8
21
 10
54.1295
 20
32.7626
 30
0.0000
 11
54.1295
 21
32.0508
 31
0.0000
  0
LINE
  8
21
 10
53.8923
 20
32.0508
 30
0.0000
 11
54.3668
 21
32.0508
 31
0.0000
  0
LINE
  8
21
 10
54.6407
 20
32.5253
 30
0.0000
 11
54.8779
 21
32.7626
 31
0.0000
  0
LINE
  8
21
 10
54.8779
 20
32.7626
 30
0.0000
 11
54.8779
 21
32.0508
 31
0.0000
  0
LINE
  8
21
 10
54.6407
 20
32.0508
 30
0.0000
 11
55.1152
 21
32.0508
 31
0.0000
  0
LINE
  8
21
 10
55.3891
 20
32.1694
 30
0.0000
 11
55.3891
 21
32.6440
 31
0.0000
  0
LINE
  8
21
 10
55.3891
 20
32.6440
 30
0.0000
 11
55.5077
 21
32.7626
 31
0.0000
  0
LINE
  8
21
 10
55.5077
 20
32.7626
 30
0.0000
 11
55.7450
 21
32.7626
 31
0.0000
  0
LINE
  8
21
 10
55.7450
 20
32.7626
 30
0.0000
 11
55.8636
 21
32.6440
 31
0.0000
  0
LINE
  8
21
 10
55.8636
 20
32.6440
 30
0.0000
 11
55.8636
 21
32.1694
 31
0.0000
  0
LINE
  8
21
 10
55.8636
 20
32.1694
 30
0.0000
 11
55.7450
 21
32.0508
 31
0.0000
  0
LINE
  8
21
 10
55.7450
 20
32.0508
 30
0.0000
 11
55.5077
 21
32.0508
 31
0.0000
  0
LINE
  8
21
 10
55.5077
 20
32.0508
 30
0.0000
 11
55.3891
 21
32.1694
 31
0.0000
  0
LINE
  8
21
 10
55.3891
 20
32.1694
 30
0.0000
 11
55.8636
 21
32.6440
 31
0.0000
  0
LINE
  8
21
 10
56.1375
 20
32.5253
 30
0.0000
 11
56.3748
 21
32.7626
 31
0.0000
  0
LINE
  8
21
 10
56.3748
 20
32.7626
 30
0.0000
 11
56.3748
 21
32.0508
 31
0.0000
  0
LINE
  8
21
 10
56.1375
 20
32.0508
 30
0.0000
 11
56.6120
 21
32.0508
 31
0.0000
  0
LINE
  8
21
 10
14.0762
 20
12.0762
 30
0.0000
 11
14.6355
 21
12.0762
 31
0.0000
  0
LINE
  8
21
 10
14.6355
 20
12.0762
 30
0.0000
 11
14.8219
 21
12.2626
 31
0.0000
  0
LINE
  8
21
 10
14.8219
 20
12.2626
 30
0.0000
 11
14.6355
 21
12.4490
 31
0.0000
  0
LINE
  8
21
 10
14.6355
 20
12.4490
 30
0.0000
 11
14.2626
 21
12.4490
 31
0.0000
  0
LINE
  8
21
 10
14.2626
 20
12.4490
 30
0.0000
 11
14.0762
 21
12.6355
 31
0.0000
  0
LINE
  8
21
 10
14.0762
 20
12.6355
 30
0.0000
 11
14.2626
 21
12.8219
 31
0.0000
  0
LINE
  8
21
 10
14.2626
 20
12.8219
 30
0.0000
 11
14.8219
 21
12.8219
 31
0.0000
  0
LINE
  8
21
 10
15.2456
 20
12.8219
 30
0.0000
 11
15.2456
 21
12.2626
 31
0.0000
  0
LINE
  8
21
 10
15.2456
 20
12.2626
 30
0.0000
 11
15.4320
 21
12.0762
 31
0.0000
  0
LINE
  8
21
 10
15.4320
 20
12.0762
 30
0.0000
 11
15.6184
 21
12.2626
 31
0.0000
  0
LINE
  8
21
 10
15.6184
 20
12.2626
 30
0.0000
 11
15.8049
 21
12.0762
 31
0.0000
  0
LINE
  8
21
 10
15.8049
 20
12.0762
 30
0.0000
 11
15.9913
 21
12.2626
 31
0.0000
  0
LINE
  8
21
 10
15.9913
 20
12.2626
 30
0.0000
 11
15.9913
 21
12.8219
 31
0.0000
  0
LINE
  8
21
 10
16.4150
 20
12.8219
 30
0.0000
 11
16.6014
 21
12.8219
 31
0.0000
  0
LINE
  8
21
 10
16.6014
 20
12.8219
 30
0.0000
 11
16.6014
 21
12.0762
 31
0.0000
  0
LINE
  8
21
 10
16.4150
 20
12.0762
 30
0.0000
 11
16.7878
 21
12.0762
 31
0.0000
  0
LINE
  8
21
 10
16.6014
 20
13.3812
 30
0.0000
 11
16.6014
 21
13.1948
 31
0.0000
  0
LINE
  8
21
 10
17.3810
 20
13.0083
 30
0.0000
 11
17.3810
 21
12.2626
 31
0.0000
  0
LINE
  8
21
 10
17.3810
 20
12.2626
 30
0.0000
 11
17.5674
 21
12.0762
 31
0.0000
  0
LINE
  8
21
 10
17.1946
 20
12.8219
 30
0.0000
 11
17.5674
 21
12.8219
 31
0.0000
  0
LINE
  8
21
 10
18.7199
 20
12.8219
 30
0.0000
 11
18.1606
 21
12.8219
 31
0.0000
  0
LINE
  8
21
 10
18.1606
 20
12.8219
 30
0.0000
 11
17.9742
 21
12.6355
 31
0.0000
  0
LINE
  8
21
 10
17.9742
 20
12.6355
 30
0.0000
 11
17.9742
 21
12.2626
 31
0.0000
  0
LINE
  8
21
 10
17.9742
 20
12.2626
 30
0.0000
 11
18.1606
 21
12.0762
 31
0.0000
  0
LINE
  8
21
 10
18.1606
 20
12.0762
 30
0.0000
 11
18.7199
 21
12.0762
 31
0.0000
  0
LINE
  8
21
 10
19.1436
 20
13.1948
 30
0.0000
 11
19.1436
 21
12.0762
 31
0.0000
  0
LINE
  8
21
 10
19.1436
 20
12.6355
 30
0.0000
 11
19.3300
 21
12.8219
 31
0.0000
  0
LINE
  8
21
 10
19.3300
 20
12.8219
 30
0.0000
 11
19.7029
 21
12.8219
 31
0.0000
  0
LINE
  8
21
 10
19.7029
 20
12.8219
 30
0.0000
 11
19.8893
 21
12.6355
 31
0.0000
  0
LINE
  8
21
 10
19.8893
 20
12.6355
 30
0.0000
 11
19.8893
 21
12.0762
 31
0.0000
  0
CIRCLE
  8
20
 10
4.2500
 20
20.2500
 30
0.0000
 40
1.6000
  0
LINE
  8
51
 10
41.6500
 20
7.7500
 30
0.0000
 11
41.6500
 21
4.2500
 31
0.0000
  0
LINE
  8
51
 10
41.6500
 20
4.2500
 30
0.0000
 11
40.3500
 21
4.2500
 31
0.0000
  0
LINE
  8
51
 10
40.3500
 20
4.2500
 30
0.0000
 11
40.3500
 21
7.7500
 31
0.0000
  0
LINE
  8
51
 10
40.3500
 20
7.7500
 30
0.0000
 11
41.6500
 21
7.7500
 31
0.0000
  0
LINE
  8
25
 10
40.9769
 20
9.6233
 30
0.0000
 11
40.7905
 21
9.8098
 31
0.0000
  0
LINE
  8
25
 10
40.7905
 20
9.8098
 30
0.0000
 11
40.4176
 21
9.8098
 31
0.0000
  0
LINE
  8
25
 10
40.4176
 20
9.8098
 30
0.0000
 11
40.2312
 21
9.6233
 31
0.0000
  0
LINE
  8
25
 10
40.2312
 20
9.6233
 30
0.0000
 11
40.2312
 21
8.8776
 31
0.0000
  0
LINE
  8
25
 10
40.2312
 20
8.8776
 30
0.0000
 11
40.4176
 21
8.6912
 31
0.0000
  0
LINE
  8
25
 10
40.4176
 20
8.6912
 30
0.0000
 11
40.7905
 21
8.6912
 31
0.0000
  0
LINE
  8
25
 10
40.7905
 20
8.6912
 30
0.0000
 11
40.9769
 21
8.8776
 31
0.0000
  0
LINE
  8
25
 10
41.4006
 20
9.4369
 30
0.0000
 11
41.7734
 21
9.8098
 31
0.0000
  0
LINE
  8
25
 10
41.7734
 20
9.8098
 30
0.0000
 11
41.7734
 21
8.6912
 31
0.0000
  0
LINE
  8
25
 10
41.4006
 20
8.6912
 30
0.0000
 11
42.1463
 21
8.6912
 31
0.0000
  0
LINE
  8
51
 10
33.5000
 20
26.8500
 30
0.0000
 11
30.0000
 21
26.8500
 31
0.0000
  0
LINE
  8
51
 10
30.0000
 20
26.8500
 30
0.0000
 11
30.0000
 21
28.1500
 31
0.0000
  0
LINE
  8
51
 10
30.0000
 20
28.1500
 30
0.0000
 11
33.5000
 21
28.1500
 31
0.0000
  0
LINE
  8
51
 10
33.5000
 20
28.1500
 30
0.0000
 11
33.5000
 21
26.8500
 31
0.0000
  0
LINE
  8
25
 10
27.8281
 20
27.8733
 30
0.0000
 11
27.6417
 21
28.0598
 31
0.0000
  0
LINE
  8
25
 10
27.6417
 20
28.0598
 30
0.0000
 11
27.2688
 21
28.0598
 31
0.0000
  0
LINE
  8
25
 10
27.2688
 20
28.0598
 30
0.0000
 11
27.0824
 21
27.8733
 31
0.0000
  0
LINE
  8
25
 10
27.0824
 20
27.8733
 30
0.0000
 11
27.0824
 21
27.1276
 31
0.0000
  0
LINE
  8
25
 10
27.0824
 20
27.1276
 30
0.0000
 11
27.2688
 21
26.9412
 31
0.0000
  0
LINE
  8
25
 10
27.2688
 20
26.9412
 30
0.0000
 11
27.6417
 21
26.9412
 31
0.0000
  0
LINE
  8
25
 10
27.6417
 20
26.9412
 30
0.0000
 11
27.8281
 21
27.1276
 31
0.0000
  0
LINE
  8
25
 10
28.9975
 20
26.9412
 30
0.0000
 11
28.2518
 21
26.9412
 31
0.0000
  0
LINE
  8
25
 10
28.2518
 20
26.9412
 30
0.0000
 11
28.9975
 21
27.6869
 31
0.0000
  0
LINE
  8
25
 10
28.9975
 20
27.6869
 30
0.0000
 11
28.9975
 21
27.8733
 31
0.0000
  0
LINE
  8
25
 10
28.9975
 20
27.8733
 30
0.0000
 11
28.8111
 21
28.0598
 31
0.0000
  0
LINE
  8
25
 10
28.8111
 20
28.0598
 30
0.0000
 11
28.4382
 21
28.0598
 31
0.0000
  0
LINE
  8
25
 10
28.4382
 20
28.0598
 30
0.0000
 11
28.2518
 21
27.8733
 31
0.0000
  0
LINE
  8
51
 10
17.1500
 20
8.5000
 30
0.0000
 11
17.1500
 21
5.0000
 31
0.0000
  0
LINE
  8
51
 10
17.1500
 20
5.0000
 30
0.0000
 11
15.8500
 21
5.0000
 31
0.0000
  0
LINE
  8
51
 10
15.8500
 20
5.0000
 30
0.0000
 11
15.8500
 21
8.5000
 31
0.0000
  0
LINE
  8
51
 10
15.8500
 20
8.5000
 30
0.0000
 11
17.1500
 21
8.5000
 31
0.0000
  0
LINE
  8
25
 10
16.1267
 20
2.8281
 30
0.0000
 11
15.9402
 21
2.6417
 31
0.0000
  0
LINE
  8
25
 10
15.9402
 20
2.6417
 30
0.0000
 11
15.9402
 21
2.2688
 31
0.0000
  0
LINE
  8
25
 10
15.9402
 20
2.2688
 30
0.0000
 11
16.1267
 21
2.0824
 31
0.0000
  0
LINE
  8
25
 10
16.1267
 20
2.0824
 30
0.0000
 11
16.8724
 21
2.0824
 31
0.0000
  0
LINE
  8
25
 10
16.8724
 20
2.0824
 30
0.0000
 11
17.0588
 21
2.2688
 31
0.0000
  0
LINE
  8
25
 10
17.0588
 20
2.2688
 30
0.0000
 11
17.0588
 21
2.6417
 31
0.0000
  0
LINE
  8
25
 10
17.0588
 20
2.6417
 30
0.0000
 11
16.8724
 21
2.8281
 31
0.0000
  0
LINE
  8
25
 10
16.1267
 20
3.2518
 30
0.0000
 11
15.9402
 21
3.4382
 31
0.0000
  0
LINE
  8
25
 10
15.9402
 20
3.4382
 30
0.0000
 11
15.9402
 21
3.8111
 31
0.0000
  0
LINE
  8
25
 10
15.9402
 20
3.8111
 30
0.0000
 11
16.1267
 21
3.9975
 31
0.0000
  0
LINE
  8
25
 10
16.1267
 20
3.9975
 30
0.0000
 11
16.3131
 21
3.9975
 31
0.0000
  0
LINE
  8
25
 10
16.3131
 20
3.9975
 30
0.0000
 11
16.4995
 21
3.8111
 31
0.0000
  0
LINE
  8
25
 10
16.4995
 20
3.8111
 30
0.0000
 11
16.4995
 21
3.6247
 31
0.0000
  0
LINE
  8
25
 10
16.4995
 20
3.8111
 30
0.0000
 11
16.6860
 21
3.9975
 31
0.0000
  0
LINE
  8
25
 10
16.6860
 20
3.9975
 30
0.0000
 11
16.8724
 21
3.9975
 31
0.0000
  0
LINE
  8
25
 10
16.8724
 20
3.9975
 30
0.0000
 11
17.0588
 21
3.8111
 31
0.0000
  0
LINE
  8
25
 10
17.0588
 20
3.8111
 30
0.0000
 11
17.0588
 21
3.4382
 31
0.0000
  0
LINE
  8
25
 10
17.0588
 20
3.4382
 30
0.0000
 11
16.8724
 21
3.2518
 31
0.0000
  0
LINE
  8
51
 10
47.8000
 20
26.3500
 30
0.0000
 11
46.2000
 21
26.3500
 31
0.0000
  0
LINE
  8
51
 10
46.2000
 20
26.3500
 30
0.0000
 11
46.2000
 21
27.1500
 31
0.0000
  0
LINE
  8
51
 10
46.2000
 20
27.1500
 30
0.0000
 11
47.8000
 21
27.1500
 31
0.0000
  0
LINE
  8
51
 10
47.8000
 20
27.1500
 30
0.0000
 11
47.8000
 21
26.3500
 31
0.0000
  0
LINE
  8
25
 10
44.2131
 20
26.8733
 30
0.0000
 11
44.0267
 21
27.0598
 31
0.0000
  0
LINE
  8
25
 10
44.0267
 20
27.0598
 30
0.0000
 11
43.6538
 21
27.0598
 31
0.0000
  0
LINE
  8
25
 10
43.6538
 20
27.0598
 30
0.0000
 11
43.4674
 21
26.8733
 31
0.0000
  0
LINE
  8
25
 10
43.4674
 20
26.8733
 30
0.0000
 11
43.4674
 21
26.1276
 31
0.0000
  0
LINE
  8
25
 10
43.4674
 20
26.1276
 30
0.0000
 11
43.6538
 21
25.9412
 31
0.0000
  0
LINE
  8
25
 10
43.6538
 20
25.9412
 30
0.0000
 11
44.0267
 21
25.9412
 31
0.0000
  0
LINE
  8
25
 10
44.0267
 20
25.9412
 30
0.0000
 11
44.2131
 21
26.1276
 31
0.0000
  0
LINE
  8
25
 10
45.1961
 20
25.9412
 30
0.0000
 11
45.1961
 21
27.0598
 31
0.0000
  0
LINE
  8
25
 10
45.1961
 20
27.0598
 30
0.0000
 11
44.6368
 21
26.5005
 31
0.0000
  0
LINE
  8
25
 10
44.6368
 20
26.5005
 30
0.0000
 11
45.3825
 21
26.5005
 31
0.0000
  0
LINE
  8
51
 10
24.8000
 20
29.6000
 30
0.0000
 11
23.2000
 21
29.6000
 31
0.0000
  0
LINE
  8
51
 10
23.2000
 20
29.6000
 30
0.0000
 11
23.2000
 21
30.4000
 31
0.0000
  0
LINE
  8
51
 10
23.2000
 20
30.4000
 30
0.0000
 11
24.8000
 21
30.4000
 31
0.0000
  0
LINE
  8
51
 10
24.8000
 20
30.4000
 30
0.0000
 11
24.8000
 21
29.6000
 31
0.0000
  0
LINE
  8
25
 10
23.9631
 20
31.8733
 30
0.0000
 11
23.7767
 21
32.0598
 31
0.0000
  0
LINE
  8
25
 10
23.7767
 20
32.0598
 30
0.0000
 11
23.4038
 21
32.0598
 31
0.0000
  0
LINE
  8
25
 10
23.4038
 20
32.0598
 30
0.0000
 11
23.2174
 21
31.8733
 31
0.0000
  0
LINE
  8
25
 10
23.2174
 20
31.8733
 30
0.0000
 11
23.2174
 21
31.1276
 31
0.0000
  0
LINE
  8
25
 10
23.2174
 20
31.1276
 30
0.0000
 11
23.4038
 21
30.9412
 31
0.0000
  0
LINE
  8
25
 10
23.4038
 20
30.9412
 30
0.0000
 11
23.7767
 21
30.9412
 31
0.0000
  0
LINE
  8
25
 10
23.7767
 20
30.9412
 30
0.0000
 11
23.9631
 21
31.1276
 31
0.0000
  0
LINE
  8
25
 10
25.1325
 20
32.0598
 30
0.0000
 11
24.3868
 21
32.0598
 31
0.0000
  0
LINE
  8
25
 10
24.3868
 20
32.0598
 30
0.0000
 11
24.3868
 21
31.5005
 31
0.0000
  0
LINE
  8
25
 10
24.3868
 20
31.5005
 30
0.0000
 11
24.7597
 21
31.6869
 31
0.0000
  0
LINE
  8
25
 10
24.7597
 20
31.6869
 30
0.0000
 11
24.9461
 21
31.6869
 31
0.0000
  0
LINE
  8
25
 10
24.9461
 20
31.6869
 30
0.0000
 11
25.1325
 21
31.5005
 31
0.0000
  0
LINE
  8
25
 10
25.1325
 20
31.5005
 30
0.0000
 11
25.1325
 21
31.1276
 31
0.0000
  0
LINE
  8
25
 10
25.1325
 20
31.1276
 30
0.0000
 11
24.9461
 21
30.9412
 31
0.0000
  0
LINE
  8
25
 10
24.9461
 20
30.9412
 30
0.0000
 11
24.5732
 21
30.9412
 31
0.0000
  0
LINE
  8
25
 10
24.5732
 20
30.9412
 30
0.0000
 11
24.3868
 21
31.1276
 31
0.0000
  0
LINE
  8
21
 10
45.5000
 20
18.0000
 30
0.0000
 11
45.5000
 21
18.5000
 31
0.0000
  0
LINE
  8
21
 10
45.5000
 20
18.5000
 30
0.0000
 11
51.5000
 21
18.5000
 31
0.0000
  0
LINE
  8
21
 10
51.5000
 20
18.5000
 30
0.0000
 11
51.5000
 21
18.0000
 31
0.0000
  0
LINE
  8
21
 10
45.5000
 20
15.5000
 30
0.0000
 11
45.5000
 21
15.0000
 31
0.0000
  0
LINE
  8
21
 10
45.5000
 20
15.0000
 30
0.0000
 11
51.5000
 21
15.0000
 31
0.0000
  0
LINE
  8
21
 10
51.5000
 20
15.0000
 30
0.0000
 11
51.5000
 21
15.5000
 31
0.0000
  0
LINE
  8
25
 10
47.5762
 20
19.9448
 30
0.0000
 11
47.5762
 21
18.8262
 31
0.0000
  0
LINE
  8
25
 10
47.5762
 20
18.8262
 30
0.0000
 11
48.1355
 21
18.8262
 31
0.0000
  0
LINE
  8
25
 10
48.1355
 20
18.8262
 30
0.0000
 11
48.3219
 21
19.0126
 31
0.0000
  0
LINE
  8
25
 10
48.3219
 20
19.0126
 30
0.0000
 11
48.3219
 21
19.7583
 31
0.0000
  0
LINE
  8
25
 10
48.3219
 20
19.7583
 30
0.0000
 11
48.1355
 21
19.9448
 31
0.0000
  0
LINE
  8
25
 10
48.1355
 20
19.9448
 30
0.0000
 11
47.5762
 21
19.9448
 31
0.0000
  0
LINE
  8
25
 10
48.7456
 20
19.5719
 30
0.0000
 11
49.1184
 21
19.9448
 31
0.0000
  0
LINE
  8
25
 10
49.1184
 20
19.9448
 30
0.0000
 11
49.1184
 21
18.8262
 31
0.0000
  0
LINE
  8
25
 10
48.7456
 20
18.8262
 30
0.0000
 11
49.4913
 21
18.8262
 31
0.0000
  0
LINE
  8
21
 10
30.2500
 20
16.2500
 30
0.0000
 11
30.2500
 21
16.7500
 31
0.0000
  0
LINE
  8
25
 10
30.4874
 20
13.5248
 30
0.0000
 11
30.4874
 21
12.4062
 31
0.0000
  0
LINE
  8
25
 10
30.4874
 20
12.4062
 30
0.0000
 11
31.0467
 21
12.4062
 31
0.0000
  0
LINE
  8
25
 10
31.0467
 20
12.4062
 30
0.0000
 11
31.2331
 21
12.5926
 31
0.0000
  0
LINE
  8
25
 10
31.2331
 20
12.5926
 30
0.0000
 11
31.2331
 21
13.3383
 31
0.0000
  0
LINE
  8
25
 10
31.2331
 20
13.3383
 30
0.0000
 11
31.0467
 21
13.5248
 31
0.0000
  0
LINE
  8
25
 10
31.0467
 20
13.5248
 30
0.0000
 11
30.4874
 21
13.5248
 31
0.0000
  0
LINE
  8
25
 10
32.4025
 20
12.4062
 30
0.0000
 11
31.6568
 21
12.4062
 31
0.0000
  0
LINE
  8
25
 10
31.6568
 20
12.4062
 30
0.0000
 11
32.4025
 21
13.1519
 31
0.0000
  0
LINE
  8
25
 10
32.4025
 20
13.1519
 30
0.0000
 11
32.4025
 21
13.3383
 31
0.0000
  0
LINE
  8
25
 10
32.4025
 20
13.3383
 30
0.0000
 11
32.2161
 21
13.5248
 31
0.0000
  0
LINE
  8
25
 10
32.2161
 20
13.5248
 30
0.0000
 11
31.8432
 21
13.5248
 31
0.0000
  0
LINE
  8
25
 10
31.8432
 20
13.5248
 30
0.0000
 11
31.6568
 21
13.3383
 31
0.0000
  0
LINE
  8
21
 10
30.2500
 20
14.2500
 30
0.0000
 11
30.2500
 21
14.7500
 31
0.0000
  0
LINE
  8
25
 10
30.4874
 20
12.0248
 30
0.0000
 11
30.4874
 21
10.9062
 31
0.0000
  0
LINE
  8
25
 10
30.4874
 20
10.9062
 30
0.0000
 11
31.0467
 21
10.9062
 31
0.0000
  0
LINE
  8
25
 10
31.0467
 20
10.9062
 30
0.0000
 11
31.2331
 21
11.0926
 31
0.0000
  0
LINE
  8
25
 10
31.2331
 20
11.0926
 30
0.0000
 11
31.2331
 21
11.8383
 31
0.0000
  0
LINE
  8
25
 10
31.2331
 20
11.8383
 30
0.0000
 11
31.0467
 21
12.0248
 31
0.0000
  0
LINE
  8
25
 10
31.0467
 20
12.0248
 30
0.0000
 11
30.4874
 21
12.0248
 31
0.0000
  0
LINE
  8
25
 10
31.6568
 20
11.8383
 30
0.0000
 11
31.8432
 21
12.0248
 31
0.0000
  0
LINE
  8
25
 10
31.8432
 20
12.0248
 30
0.0000
 11
32.2161
 21
12.0248
 31
0.0000
  0
LINE
  8
25
 10
32.2161
 20
12.0248
 30
0.0000
 11
32.4025
 21
11.8383
 31
0.0000
  0
LINE
  8
25
 10
32.4025
 20
11.8383
 30
0.0000
 11
32.4025
 21
11.6519
 31
0.0000
  0
LINE
  8
25
 10
32.4025
 20
11.6519
 30
0.0000
 11
32.2161
 21
11.4655
 31
0.0000
  0
LINE
  8
25
 10
32.2161
 20
11.4655
 30
0.0000
 11
32.0297
 21
11.4655
 31
0.0000
  0
LINE
  8
25
 10
32.2161
 20
11.4655
 30
0.0000
 11
32.4025
 21
11.2790
 31
0.0000
  0
LINE
  8
25
 10
32.4025
 20
11.2790
 30
0.0000
 11
32.4025
 21
11.0926
 31
0.0000
  0
LINE
  8
25
 10
32.4025
 20
11.0926
 30
0.0000
 11
32.2161
 21
10.9062
 31
0.0000
  0
LINE
  8
25
 10
32.2161
 20
10.9062
 30
0.0000
 11
31.8432
 21
10.9062
 31
0.0000
  0
LINE
  8
25
 10
31.8432
 20
10.9062
 30
0.0000
 11
31.6568
 21
11.0926
 31
0.0000
  0
LINE
  8
21
 10
23.1250
 20
25.2500
 30
0.0000
 11
24.8750
 21
25.2500
 31
0.0000
  0
LINE
  8
21
 10
24.8750
 20
28.7500
 30
0.0000
 11
23.1250
 21
28.7500
 31
0.0000
  0
LINE
  8
21
 10
24.8750
 20
28.7500
 30
0.0000
 11
24.8750
 21
27.7500
 31
0.0000
  0
LINE
  8
21
 10
23.1250
 20
26.8750
 30
0.0000
 11
23.1250
 21
27.1250
 31
0.0000
  0
LINE
  8
21
 10
24.8750
 20
26.2500
 30
0.0000
 11
24.8750
 21
25.2500
 31
0.0000
  0
CIRCLE
  8
21
 10
22.5000
 20
29.0000
 30
0.0000
 40
0.1768
  0
LINE
  8
25
 10
23.0762
 20
24.6948
 30
0.0000
 11
23.0762
 21
23.5762
 31
0.0000
  0
LINE
  8
25
 10
23.0762
 20
23.5762
 30
0.0000
 11
23.6355
 21
23.5762
 31
0.0000
  0
LINE
  8
25
 10
23.6355
 20
23.5762
 30
0.0000
 11
23.8219
 21
23.7626
 31
0.0000
  0
LINE
  8
25
 10
23.8219
 20
23.7626
 30
0.0000
 11
23.8219
 21
24.5083
 31
0.0000
  0
LINE
  8
25
 10
23.8219
 20
24.5083
 30
0.0000
 11
23.6355
 21
24.6948
 31
0.0000
  0
LINE
  8
25
 10
23.6355
 20
24.6948
 30
0.0000
 11
23.0762
 21
24.6948
 31
0.0000
  0
LINE
  8
25
 10
24.8049
 20
23.5762
 30
0.0000
 11
24.8049
 21
24.6948
 31
0.0000
  0
LINE
  8
25
 10
24.8049
 20
24.6948
 30
0.0000
 11
24.2456
 21
24.1355
 31
0.0000
  0
LINE
  8
25
 10
24.2456
 20
24.1355
 30
0.0000
 11
24.9913
 21
24.1355
 31
0.0000
  0
LINE
  8
21
 10
30.2500
 20
18.2500
 30
0.0000
 11
30.2500
 21
18.7500
 31
0.0000
  0
LINE
  8
25
 10
30.4874
 20
20.5248
 30
0.0000
 11
30.4874
 21
19.4062
 31
0.0000
  0
LINE
  8
25
 10
30.4874
 20
19.4062
 30
0.0000
 11
31.0467
 21
19.4062
 31
0.0000
  0
LINE
  8
25
 10
31.0467
 20
19.4062
 30
0.0000
 11
31.2331
 21
19.5926
 31
0.0000
  0
LINE
  8
25
 10
31.2331
 20
19.5926
 30
0.0000
 11
31.2331
 21
20.3383
 31
0.0000
  0
LINE
  8
25
 10
31.2331
 20
20.3383
 30
0.0000
 11
31.0467
 21
20.5248
 31
0.0000
  0
LINE
  8
25
 10
31.0467
 20
20.5248
 30
0.0000
 11
30.4874
 21
20.5248
 31
0.0000
  0
LINE
  8
25
 10
32.4025
 20
20.5248
 30
0.0000
 11
31.6568
 21
20.5248
 31
0.0000
  0
LINE
  8
25
 10
31.6568
 20
20.5248
 30
0.0000
 11
31.6568
 21
19.9655
 31
0.0000
  0
LINE
  8
25
 10
31.6568
 20
19.9655
 30
0.0000
 11
32.0297
 21
20.1519
 31
0.0000
  0
LINE
  8
25
 10
32.0297
 20
20.1519
 30
0.0000
 11
32.2161
 21
20.1519
 31
0.0000
  0
LINE
  8
25
 10
32.2161
 20
20.1519
 30
0.0000
 11
32.4025
 21
19.9655
 31
0.0000
  0
LINE
  8
25
 10
32.4025
 20
19.9655
 30
0.0000
 11
32.4025
 21
19.5926
 31
0.0000
  0
LINE
  8
25
 10
32.4025
 20
19.5926
 30
0.0000
 11
32.2161
 21
19.4062
 31
0.0000
  0
LINE
  8
25
 10
32.2161
 20
19.4062
 30
0.0000
 11
31.8432
 21
19.4062
 31
0.0000
  0
LINE
  8
25
 10
31.8432
 20
19.4062
 30
0.0000
 11
31.6568
 21
19.5926
 31
0.0000
  0
LINE
  8
21
 10
61.0762
 20
15.0762
 30
0.0000
 11
61.0762
 21
16.1948
 31
0.0000
  0
LINE
  8
21
 10
61.0762
 20
16.1948
 30
0.0000
 11
61.6355
 21
16.1948
 31
0.0000
  0
LINE
  8
21
 10
61.6355
 20
16.1948
 30
0.0000
 11
61.8219
 21
16.0083
 31
0.0000
  0
LINE
  8
21
 10
61.8219
 20
16.0083
 30
0.0000
 11
61.8219
 21
15.8219
 31
0.0000
  0
LINE
  8
21
 10
61.8219
 20
15.8219
 30
0.0000
 11
61.6355
 21
15.6355
 31
0.0000
  0
LINE
  8
21
 10
61.6355
 20
15.6355
 30
0.0000
 11
61.8219
 21
15.4491
 31
0.0000
  0
LINE
  8
21
 10
61.8219
 20
15.4491
 30
0.0000
 11
61.8219
 21
15.2626
 31
0.0000
  0
LINE
  8
21
 10
61.8219
 20
15.2626
 30
0.0000
 11
61.6355
 21
15.0762
 31
0.0000
  0
LINE
  8
21
 10
61.6355
 20
15.0762
 30
0.0000
 11
61.0762
 21
15.0762
 31
0.0000
  0
LINE
  8
21
 10
61.0762
 20
15.6355
 30
0.0000
 11
61.6355
 21
15.6355
 31
0.0000
  0
LINE
  8
21
 10
62.2456
 20
15.8219
 30
0.0000
 11
62.6184
 21
16.1948
 31
0.0000
  0
LINE
  8
21
 10
62.6184
 20
16.1948
 30
0.0000
 11
62.6184
 21
15.0762
 31
0.0000
  0
LINE
  8
21
 10
62.2456
 20
15.0762
 30
0.0000
 11
62.9913
 21
15.0762
 31
0.0000
  0
LINE
  8
21
 10
55.0762
 20
15.8219
 30
0.0000
 11
55.4490
 21
16.1948
 31
0.0000
  0
LINE
  8
21
 10
55.4490
 20
16.1948
 30
0.0000
 11
55.4490
 21
15.0762
 31
0.0000
  0
LINE
  8
21
 10
55.0762
 20
15.0762
 30
0.0000
 11
55.8219
 21
15.0762
 31
0.0000
  0
LINE
  8
21
 10
56.2456
 20
15.2626
 30
0.0000
 11
56.2456
 21
16.0083
 31
0.0000
  0
LINE
  8
21
 10
56.2456
 20
16.0083
 30
0.0000
 11
56.4320
 21
16.1948
 31
0.0000
  0
LINE
  8
21
 10
56.4320
 20
16.1948
 30
0.0000
 11
56.8049
 21
16.1948
 31
0.0000
  0
LINE
  8
21
 10
56.8049
 20
16.1948
 30
0.0000
 11
56.9913
 21
16.0083
 31
0.0000
  0
LINE
  8
21
 10
56.9913
 20
16.0083
 30
0.0000
 11
56.9913
 21
15.2626
 31
0.0000
  0
LINE
  8
21
 10
56.9913
 20
15.2626
 30
0.0000
 11
56.8049
 21
15.0762
 31
0.0000
  0
LINE
  8
21
 10
56.8049
 20
15.0762
 30
0.0000
 11
56.4320
 21
15.0762
 31
0.0000
  0
LINE
  8
21
 10
56.4320
 20
15.0762
 30
0.0000
 11
56.2456
 21
15.2626
 31
0.0000
  0
LINE
  8
21
 10
56.2456
 20
15.2626
 30
0.0000
 11
56.9913
 21
16.0083
 31
0.0000
  0
LINE
  8
21
 10
57.4150
 20
15.8219
 30
0.0000
 11
57.7878
 21
16.1948
 31
0.0000
  0
LINE
  8
21
 10
57.7878
 20
16.1948
 30
0.0000
 11
57.7878
 21
15.0762
 31
0.0000
  0
LINE
  8
21
 10
57.4150
 20
15.0762
 30
0.0000
 11
58.1607
 21
15.0762
 31
0.0000
  0
LINE
  8
21
 10
58.5844
 20
15.2626
 30
0.0000
 11
58.5844
 21
16.0083
 31
0.0000
  0
LINE
  8
21
 10
58.5844
 20
16.0083
 30
0.0000
 11
58.7708
 21
16.1948
 31
0.0000
  0
LINE
  8
21
 10
58.7708
 20
16.1948
 30
0.0000
 11
59.1437
 21
16.1948
 31
0.0000
  0
LINE
  8
21
 10
59.1437
 20
16.1948
 30
0.0000
 11
59.3301
 21
16.0083
 31
0.0000
  0
LINE
  8
21
 10
59.3301
 20
16.0083
 30
0.0000
 11
59.3301
 21
15.2626
 31
0.0000
  0
LINE
  8
21
 10
59.3301
 20
15.2626
 30
0.0000
 11
59.1437
 21
15.0762
 31
0.0000
  0
LINE
  8
21
 10
59.1437
 20
15.0762
 30
0.0000
 11
58.7708
 21
15.0762
 31
0.0000
  0
LINE
  8
21
 10
58.7708
 20
15.0762
 30
0.0000
 11
58.5844
 21
15.2626
 31
0.0000
  0
LINE
  8
21
 10
58.5844
 20
15.2626
 30
0.0000
 11
59.3301
 21
16.0083
 31
0.0000
  0
LINE
  8
21
 10
59.8262
 20
15.6355
 30
0.0000
 11
60.5719
 21
15.6355
 31
0.0000
  0
LINE
  8
25
 10
32.9874
 20
28.6426
 30
0.0000
 11
33.1738
 21
28.4562
 31
0.0000
  0
LINE
  8
25
 10
33.1738
 20
28.4562
 30
0.0000
 11
33.3603
 21
28.4562
 31
0.0000
  0
LINE
  8
25
 10
33.3603
 20
28.4562
 30
0.0000
 11
33.5467
 21
28.6426
 31
0.0000
  0
LINE
  8
25
 10
33.5467
 20
28.6426
 30
0.0000
 11
33.5467
 21
29.5748
 31
0.0000
  0
LINE
  8
25
 10
33.3603
 20
29.5748
 30
0.0000
 11
33.7331
 21
29.5748
 31
0.0000
  0
LINE
  8
25
 10
34.1568
 20
29.2019
 30
0.0000
 11
34.5297
 21
29.5748
 31
0.0000
  0
LINE
  8
25
 10
34.5297
 20
29.5748
 30
0.0000
 11
34.5297
 21
28.4562
 31
0.0000
  0
LINE
  8
25
 10
34.1568
 20
28.4562
 30
0.0000
 11
34.9025
 21
28.4562
 31
0.0000
  0
INSERT
  8
17
  2
ROUNDP
 10
35.3500
 20
30.8500
 30
0.0000
 41
1.5080
 42
1.5080
 43
1.0000
 50
180.0000
  0
INSERT
  8
17
  2
ROUNDP
 10
35.3500
 20
30.8500
 30
0.0000
 41
1.5080
 42
1.5080
 43
1.0000
 50
180.0000
  0
INSERT
  8
17
  2
ROUNDP
 10
35.9750
 20
32.5500
 30
0.0000
 41
1.6500
 42
1.6500
 43
1.0000
 50
180.0000
  0
INSERT
  8
17
  2
ROUNDP
 10
35.9750
 20
32.5500
 30
0.0000
 41
1.6500
 42
1.6500
 43
1.0000
 50
180.0000
  0
INSERT
  8
17
  2
ROUNDP
 10
35.9750
 20
34.3000
 30
0.0000
 41
1.6500
 42
1.6500
 43
1.0000
 50
180.0000
  0
INSERT
  8
17
  2
ROUNDP
 10
35.9750
 20
34.3000
 30
0.0000
 41
1.6500
 42
1.6500
 43
1.0000
 50
180.0000
  0
INSERT
  8
17
  2
ROUNDP
 10
27.5250
 20
34.3000
 30
0.0000
 41
1.6500
 42
1.6500
 43
1.0000
 50
180.0000
  0
INSERT
  8
17
  2
ROUNDP
 10
27.5250
 20
34.3000
 30
0.0000
 41
1.6500
 42
1.6500
 43
1.0000
 50
180.0000
  0
INSERT
  8
17
  2
ROUNDP
 10
27.5250
 20
32.5500
 30
0.0000
 41
1.6500
 42
1.6500
 43
1.0000
 50
180.0000
  0
INSERT
  8
17
  2
ROUNDP
 10
27.5250
 20
32.5500
 30
0.0000
 41
1.6500
 42
1.6500
 43
1.0000
 50
180.0000
  0
INSERT
  8
17
  2
ROUNDP
 10
28.1500
 20
30.8500
 30
0.0000
 41
1.5080
 42
1.5080
 43
1.0000
 50
180.0000
  0
INSERT
  8
17
  2
ROUNDP
 10
28.1500
 20
30.8500
 30
0.0000
 41
1.5080
 42
1.5080
 43
1.0000
 50
180.0000
  0
LINE
  8
22
 10
9.7800
 20
4.7500
 30
0.0000
 11
9.7800
 21
2.7500
 31
0.0000
  0
LINE
  8
22
 10
9.7800
 20
2.7500
 30
0.0000
 11
6.5300
 21
2.7500
 31
0.0000
  0
LINE
  8
22
 10
6.5300
 20
2.7500
 30
0.0000
 11
6.5300
 21
3.2500
 31
0.0000
  0
LINE
  8
22
 10
9.7800
 20
9.7500
 30
0.0000
 11
9.7800
 21
11.7500
 31
0.0000
  0
LINE
  8
22
 10
9.7800
 20
11.7500
 30
0.0000
 11
6.5300
 21
11.7500
 31
0.0000
  0
LINE
  8
22
 10
6.5300
 20
11.7500
 30
0.0000
 11
6.5300
 21
11.2500
 31
0.0000
  0
LINE
  8
22
 10
9.7800
 20
6.7500
 30
0.0000
 11
9.7800
 21
7.7500
 31
0.0000
  0
LINE
  8
52
 10
9.7800
 20
3.7500
 30
0.0000
 11
10.7800
 21
3.7500
 31
0.0000
  0
LINE
  8
52
 10
10.7800
 20
3.7500
 30
0.0000
 11
10.7800
 21
4.7500
 31
0.0000
  0
LINE
  8
52
 10
10.7800
 20
4.7500
 30
0.0000
 11
9.7800
 21
4.7500
 31
0.0000
  0
LINE
  8
52
 10
9.7800
 20
6.7500
 30
0.0000
 11
10.7800
 21
6.7500
 31
0.0000
  0
LINE
  8
52
 10
10.7800
 20
6.7500
 30
0.0000
 11
10.7800
 21
7.7500
 31
0.0000
  0
LINE
  8
52
 10
10.7800
 20
7.7500
 30
0.0000
 11
9.7800
 21
7.7500
 31
0.0000
  0
LINE
  8
52
 10
9.7800
 20
9.7500
 30
0.0000
 11
10.7800
 21
9.7500
 31
0.0000
  0
LINE
  8
52
 10
10.7800
 20
9.7500
 30
0.0000
 11
10.7800
 21
10.7500
 31
0.0000
  0
LINE
  8
52
 10
10.7800
 20
10.7500
 30
0.0000
 11
9.7800
 21
10.7500
 31
0.0000
  0
LINE
  8
26
 10
10.5426
 20
2.8262
 30
0.0000
 11
10.3562
 21
3.0126
 31
0.0000
  0
LINE
  8
26
 10
10.3562
 20
3.0126
 30
0.0000
 11
10.3562
 21
3.1991
 31
0.0000
  0
LINE
  8
26
 10
10.3562
 20
3.1991
 30
0.0000
 11
10.5426
 21
3.3855
 31
0.0000
  0
LINE
  8
26
 10
10.5426
 20
3.3855
 30
0.0000
 11
11.4748
 21
3.3855
 31
0.0000
  0
LINE
  8
26
 10
11.4748
 20
3.1991
 30
0.0000
 11
11.4748
 21
3.5719
 31
0.0000
  0
LINE
  8
26
 10
10.3562
 20
4.7413
 30
0.0000
 11
10.3562
 21
3.9956
 31
0.0000
  0
LINE
  8
26
 10
10.3562
 20
3.9956
 30
0.0000
 11
11.1019
 21
4.7413
 31
0.0000
  0
LINE
  8
26
 10
11.1019
 20
4.7413
 30
0.0000
 11
11.2883
 21
4.7413
 31
0.0000
  0
LINE
  8
26
 10
11.2883
 20
4.7413
 30
0.0000
 11
11.4748
 21
4.5549
 31
0.0000
  0
LINE
  8
26
 10
11.4748
 20
4.5549
 30
0.0000
 11
11.4748
 21
4.1820
 31
0.0000
  0
LINE
  8
26
 10
11.4748
 20
4.1820
 30
0.0000
 11
11.2883
 21
3.9956
 31
0.0000
  0
LINE
  8
21
 10
60.9850
 20
26.5750
 30
0.0000
 11
60.3500
 21
27.8450
 31
0.0000
  0
LINE
  8
21
 10
60.3500
 20
27.8450
 30
0.0000
 11
59.7150
 21
26.5750
 31
0.0000
  0
LINE
  8
21
 10
59.7150
 20
26.5750
 30
0.0000
 11
60.9850
 21
26.5750
 31
0.0000
  0
LINE
  8
21
 10
60.4135
 20
27.7180
 30
0.0000
 11
60.2865
 21
27.7180
 31
0.0000
  0
LINE
  8
21
 10
60.4770
 20
27.5910
 30
0.0000
 11
60.2230
 21
27.5910
 31
0.0000
  0
LINE
  8
21
 10
60.5405
 20
27.4640
 30
0.0000
 11
60.1595
 21
27.4640
 31
0.0000
  0
LINE
  8
21
 10
60.6040
 20
27.3370
 30
0.0000
 11
60.0960
 21
27.3370
 31
0.0000
  0
LINE
  8
21
 10
60.6675
 20
27.2100
 30
0.0000
 11
60.0325
 21
27.2100
 31
0.0000
  0
LINE
  8
21
 10
60.7310
 20
27.0830
 30
0.0000
 11
59.9690
 21
27.0830
 31
0.0000
  0
LINE
  8
21
 10
60.7945
 20
26.9560
 30
0.0000
 11
59.9055
 21
26.9560
 31
0.0000
  0
LINE
  8
21
 10
60.8580
 20
26.8290
 30
0.0000
 11
59.8420
 21
26.8290
 31
0.0000
  0
LINE
  8
21
 10
60.9215
 20
26.7020
 30
0.0000
 11
59.7785
 21
26.7020
 31
0.0000
  0
LINE
  8
51
 10
63.5250
 20
34.1950
 30
0.0000
 11
44.4750
 21
34.1950
 31
0.0000
  0
LINE
  8
51
 10
33.6800
 20
43.7200
 30
0.0000
 11
33.6800
 21
44.9900
 31
0.0000
  0
LINE
  8
51
 10
74.3200
 20
43.7200
 30
0.0000
 11
74.3200
 21
44.9900
 31
0.0000
  0
ARC
  8
51
 10
64.1600
 20
44.3550
 30
0.0000
 40
10.1798
 50
266.4237
 51
356.4237
  0
ARC
  8
51
 10
43.8400
 20
44.3550
 30
0.0000
 40
10.1798
 50
183.5763
 51
273.5763
  0
INSERT
  8
17
  2
LONGP100
 10
60.3500
 20
29.7500
 30
0.0000
 41
1.5080
 42
1.5080
 43
1.0000
 50
270.0000
  0
INSERT
  8
17
  2
LONGP100
 10
60.3500
 20
29.7500
 30
0.0000
 41
1.5080
 42
1.5080
 43
1.0000
 50
270.0000
  0
INSERT
  8
17
  2
LONGP100
 10
57.8100
 20
29.7500
 30
0.0000
 41
1.5080
 42
1.5080
 43
1.0000
 50
270.0000
  0
INSERT
  8
17
  2
LONGP100
 10
57.8100
 20
29.7500
 30
0.0000
 41
1.5080
 42
1.5080
 43
1.0000
 50
270.0000
  0
INSERT
  8
17
  2
LONGP100
 10
55.2700
 20
29.7500
 30
0.0000
 41
1.5080
 42
1.5080
 43
1.0000
 50
270.0000
  0
INSERT
  8
17
  2
LONGP100
 10
55.2700
 20
29.7500
 30
0.0000
 41
1.5080
 42
1.5080
 43
1.0000
 50
270.0000
  0
INSERT
  8
17
  2
LONGP100
 10
52.7300
 20
29.7500
 30
0.0000
 41
1.5080
 42
1.5080
 43
1.0000
 50
270.0000
  0
INSERT
  8
17
  2
LONGP100
 10
52.7300
 20
29.7500
 30
0.0000
 41
1.5080
 42
1.5080
 43
1.0000
 50
270.0000
  0
INSERT
  8
17
  2
LONGP100
 10
50.1900
 20
29.7500
 30
0.0000
 41
1.5080
 42
1.5080
 43
1.0000
 50
270.0000
  0
INSERT
  8
17
  2
LONGP100
 10
50.1900
 20
29.7500
 30
0.0000
 41
1.5080
 42
1.5080
 43
1.0000
 50
270.0000
  0
INSERT
  8
17
  2
LONGP100
 10
47.6500
 20
29.7500
 30
0.0000
 41
1.5080
 42
1.5080
 43
1.0000
 50
270.0000
  0
INSERT
  8
17
  2
LONGP100
 10
47.6500
 20
29.7500
 30
0.0000
 41
1.5080
 42
1.5080
 43
1.0000
 50
270.0000
  0
LINE
  8
25
 10
44.3174
 20
29.8376
 30
0.0000
 11
44.5038
 21
29.6512
 31
0.0000
  0
LINE
  8
25
 10
44.5038
 20
29.6512
 30
0.0000
 11
44.6903
 21
29.6512
 31
0.0000
  0
LINE
  8
25
 10
44.6903
 20
29.6512
 30
0.0000
 11
44.8767
 21
29.8376
 31
0.0000
  0
LINE
  8
25
 10
44.8767
 20
29.8376
 30
0.0000
 11
44.8767
 21
30.7698
 31
0.0000
  0
LINE
  8
25
 10
44.6903
 20
30.7698
 30
0.0000
 11
45.0631
 21
30.7698
 31
0.0000
  0
LINE
  8
25
 10
45.4868
 20
30.5833
 30
0.0000
 11
45.6732
 21
30.7698
 31
0.0000
  0
LINE
  8
25
 10
45.6732
 20
30.7698
 30
0.0000
 11
46.0461
 21
30.7698
 31
0.0000
  0
LINE
  8
25
 10
46.0461
 20
30.7698
 30
0.0000
 11
46.2325
 21
30.5833
 31
0.0000
  0
LINE
  8
25
 10
46.2325
 20
30.5833
 30
0.0000
 11
46.2325
 21
30.3969
 31
0.0000
  0
LINE
  8
25
 10
46.2325
 20
30.3969
 30
0.0000
 11
46.0461
 21
30.2105
 31
0.0000
  0
LINE
  8
25
 10
46.0461
 20
30.2105
 30
0.0000
 11
45.8597
 21
30.2105
 31
0.0000
  0
LINE
  8
25
 10
46.0461
 20
30.2105
 30
0.0000
 11
46.2325
 21
30.0241
 31
0.0000
  0
LINE
  8
25
 10
46.2325
 20
30.0241
 30
0.0000
 11
46.2325
 21
29.8376
 31
0.0000
  0
LINE
  8
25
 10
46.2325
 20
29.8376
 30
0.0000
 11
46.0461
 21
29.6512
 31
0.0000
  0
LINE
  8
25
 10
46.0461
 20
29.6512
 30
0.0000
 11
45.6732
 21
29.6512
 31
0.0000
  0
LINE
  8
25
 10
45.6732
 20
29.6512
 30
0.0000
 11
45.4868
 21
29.8376
 31
0.0000
  0
LINE
  8
21
 10
34.2900
 20
23.7300
 30
0.0000
 11
29.2100
 21
23.7300
 31
0.0000
  0
LINE
  8
21
 10
29.2100
 20
23.7300
 30
0.0000
 11
29.2100
 21
26.2700
 31
0.0000
  0
LINE
  8
21
 10
29.2100
 20
26.2700
 30
0.0000
 11
34.2900
 21
26.2700
 31
0.0000
  0
LINE
  8
21
 10
34.2900
 20
26.2700
 30
0.0000
 11
34.2900
 21
23.7300
 31
0.0000
  0
LINE
  8
25
 10
31.2874
 20
22.4926
 30
0.0000
 11
31.4738
 21
22.3062
 31
0.0000
  0
LINE
  8
25
 10
31.4738
 20
22.3062
 30
0.0000
 11
31.6603
 21
22.3062
 31
0.0000
  0
LINE
  8
25
 10
31.6603
 20
22.3062
 30
0.0000
 11
31.8467
 21
22.4926
 31
0.0000
  0
LINE
  8
25
 10
31.8467
 20
22.4926
 30
0.0000
 11
31.8467
 21
23.4248
 31
0.0000
  0
LINE
  8
25
 10
31.6603
 20
23.4248
 30
0.0000
 11
32.0331
 21
23.4248
 31
0.0000
  0
LINE
  8
25
 10
33.0161
 20
22.3062
 30
0.0000
 11
33.0161
 21
23.4248
 31
0.0000
  0
LINE
  8
25
 10
33.0161
 20
23.4248
 30
0.0000
 11
32.4568
 21
22.8655
 31
0.0000
  0
LINE
  8
25
 10
32.4568
 20
22.8655
 30
0.0000
 11
33.2025
 21
22.8655
 31
0.0000
  0
CIRCLE
  8
21
 10
34.0800
 20
22.9800
 30
0.0000
 40
0.2717
  0
INSERT
  8
17
  2
ROUNDP
 10
33.0200
 20
25.0000
 30
0.0000
 41
1.6000
 42
1.6000
 43
1.0000
 50
180.0000
  0
INSERT
  8
17
  2
ROUNDP
 10
33.0200
 20
25.0000
 30
0.0000
 41
1.6000
 42
1.6000
 43
1.0000
 50
180.0000
  0
INSERT
  8
17
  2
ROUNDP
 10
30.4800
 20
25.0000
 30
0.0000
 41
1.6000
 42
1.6000
 43
1.0000
 50
180.0000
  0
INSERT
  8
17
  2
ROUNDP
 10
30.4800
 20
25.0000
 30
0.0000
 41
1.6000
 42
1.6000
 43
1.0000
 50
180.0000
  0
LINE
  8
21
 10
39.2500
 20
25.7500
 30
0.0000
 11
40.7500
 21
25.7500
 31
0.0000
  0
LINE
  8
21
 10
40.7500
 20
25.7500
 30
0.0000
 11
40.7500
 21
24.2500
 31
0.0000
  0
LINE
  8
21
 10
40.7500
 20
24.2500
 30
0.0000
 11
39.2500
 21
24.2500
 31
0.0000
  0
LINE
  8
21
 10
39.2500
 20
24.2500
 30
0.0000
 11
39.2500
 21
25.7500
 31
0.0000
  0
LINE
  8
25
 10
39.2262
 20
26.2126
 30
0.0000
 11
39.4126
 21
26.0262
 31
0.0000
  0
LINE
  8
25
 10
39.4126
 20
26.0262
 30
0.0000
 11
39.5991
 21
26.0262
 31
0.0000
  0
LINE
  8
25
 10
39.5991
 20
26.0262
 30
0.0000
 11
39.7855
 21
26.2126
 31
0.0000
  0
LINE
  8
25
 10
39.7855
 20
26.2126
 30
0.0000
 11
39.7855
 21
27.1448
 31
0.0000
  0
LINE
  8
25
 10
39.5991
 20
27.1448
 30
0.0000
 11
39.9719
 21
27.1448
 31
0.0000
  0
LINE
  8
25
 10
40.3956
 20
26.0262
 30
0.0000
 11
40.3956
 21
27.1448
 31
0.0000
  0
LINE
  8
25
 10
40.3956
 20
27.1448
 30
0.0000
 11
40.9549
 21
27.1448
 31
0.0000
  0
LINE
  8
25
 10
40.9549
 20
27.1448
 30
0.0000
 11
41.1413
 21
26.9583
 31
0.0000
  0
LINE
  8
25
 10
41.1413
 20
26.9583
 30
0.0000
 11
41.1413
 21
26.5855
 31
0.0000
  0
LINE
  8
25
 10
41.1413
 20
26.5855
 30
0.0000
 11
40.9549
 21
26.3991
 31
0.0000
  0
LINE
  8
25
 10
40.9549
 20
26.3991
 30
0.0000
 11
40.3956
 21
26.3991
 31
0.0000
  0
LINE
  8
25
 10
41.5650
 20
26.7719
 30
0.0000
 11
41.9378
 21
27.1448
 31
0.0000
  0
LINE
  8
25
 10
41.9378
 20
27.1448
 30
0.0000
 11
41.9378
 21
26.0262
 31
0.0000
  0
LINE
  8
25
 10
41.5650
 20
26.0262
 30
0.0000
 11
42.3107
 21
26.0262
 31
0.0000
  0
LINE
  8
21
 10
3.7500
 20
14.7500
 30
0.0000
 11
3.7500
 21
13.2500
 31
0.0000
  0
LINE
  8
21
 10
3.7500
 20
13.2500
 30
0.0000
 11
2.2500
 21
13.2500
 31
0.0000
  0
LINE
  8
21
 10
2.2500
 20
13.2500
 30
0.0000
 11
2.2500
 21
14.7500
 31
0.0000
  0
LINE
  8
21
 10
2.2500
 20
14.7500
 30
0.0000
 11
3.7500
 21
14.7500
 31
0.0000
  0
LINE
  8
21
 10
0.4180
 20
11.7926
 30
0.0000
 11
0.6044
 21
11.6062
 31
0.0000
  0
LINE
  8
21
 10
0.6044
 20
11.6062
 30
0.0000
 11
0.7909
 21
11.6062
 31
0.0000
  0
LINE
  8
21
 10
0.7909
 20
11.6062
 30
0.0000
 11
0.9773
 21
11.7926
 31
0.0000
  0
LINE
  8
21
 10
0.9773
 20
11.7926
 30
0.0000
 11
0.9773
 21
12.7248
 31
0.0000
  0
LINE
  8
21
 10
0.7909
 20
12.7248
 30
0.0000
 11
1.1637
 21
12.7248
 31
0.0000
  0
LINE
  8
21
 10
1.5874
 20
11.6062
 30
0.0000
 11
1.5874
 21
12.7248
 31
0.0000
  0
LINE
  8
21
 10
1.5874
 20
12.7248
 30
0.0000
 11
2.1467
 21
12.7248
 31
0.0000
  0
LINE
  8
21
 10
2.1467
 20
12.7248
 30
0.0000
 11
2.3331
 21
12.5383
 31
0.0000
  0
LINE
  8
21
 10
2.3331
 20
12.5383
 30
0.0000
 11
2.3331
 21
12.1655
 31
0.0000
  0
LINE
  8
21
 10
2.3331
 20
12.1655
 30
0.0000
 11
2.1467
 21
11.9791
 31
0.0000
  0
LINE
  8
21
 10
2.1467
 20
11.9791
 30
0.0000
 11
1.5874
 21
11.9791
 31
0.0000
  0
LINE
  8
21
 10
3.5025
 20
11.6062
 30
0.0000
 11
2.7568
 21
11.6062
 31
0.0000
  0
LINE
  8
21
 10
2.7568
 20
11.6062
 30
0.0000
 11
3.5025
 21
12.3519
 31
0.0000
  0
LINE
  8
21
 10
3.5025
 20
12.3519
 30
0.0000
 11
3.5025
 21
12.5383
 31
0.0000
  0
LINE
  8
21
 10
3.5025
 20
12.5383
 30
0.0000
 11
3.3161
 21
12.7248
 31
0.0000
  0
LINE
  8
21
 10
3.3161
 20
12.7248
 30
0.0000
 11
2.9432
 21
12.7248
 31
0.0000
  0
LINE
  8
21
 10
2.9432
 20
12.7248
 30
0.0000
 11
2.7568
 21
12.5383
 31
0.0000
  0
LINE
  8
21
 10
23.5000
 20
2.5000
 30
0.0000
 11
22.0000
 21
2.5000
 31
0.0000
  0
LINE
  8
21
 10
22.0000
 20
2.5000
 30
0.0000
 11
22.0000
 21
4.0000
 31
0.0000
  0
LINE
  8
21
 10
22.0000
 20
4.0000
 30
0.0000
 11
23.5000
 21
4.0000
 31
0.0000
  0
LINE
  8
21
 10
23.5000
 20
4.0000
 30
0.0000
 11
23.5000
 21
2.5000
 31
0.0000
  0
LINE
  8
25
 10
20.1680
 20
1.2926
 30
0.0000
 11
20.3544
 21
1.1062
 31
0.0000
  0
LINE
  8
25
 10
20.3544
 20
1.1062
 30
0.0000
 11
20.5409
 21
1.1062
 31
0.0000
  0
LINE
  8
25
 10
20.5409
 20
1.1062
 30
0.0000
 11
20.7273
 21
1.2926
 31
0.0000
  0
LINE
  8
25
 10
20.7273
 20
1.2926
 30
0.0000
 11
20.7273
 21
2.2248
 31
0.0000
  0
LINE
  8
25
 10
20.5409
 20
2.2248
 30
0.0000
 11
20.9137
 21
2.2248
 31
0.0000
  0
LINE
  8
25
 10
21.3374
 20
1.1062
 30
0.0000
 11
21.3374
 21
2.2248
 31
0.0000
  0
LINE
  8
25
 10
21.3374
 20
2.2248
 30
0.0000
 11
21.8967
 21
2.2248
 31
0.0000
  0
LINE
  8
25
 10
21.8967
 20
2.2248
 30
0.0000
 11
22.0831
 21
2.0383
 31
0.0000
  0
LINE
  8
25
 10
22.0831
 20
2.0383
 30
0.0000
 11
22.0831
 21
1.6655
 31
0.0000
  0
LINE
  8
25
 10
22.0831
 20
1.6655
 30
0.0000
 11
21.8967
 21
1.4790
 31
0.0000
  0
LINE
  8
25
 10
21.8967
 20
1.4790
 30
0.0000
 11
21.3374
 21
1.4790
 31
0.0000
  0
LINE
  8
25
 10
22.5068
 20
2.0383
 30
0.0000
 11
22.6932
 21
2.2248
 31
0.0000
  0
LINE
  8
25
 10
22.6932
 20
2.2248
 30
0.0000
 11
23.0661
 21
2.2248
 31
0.0000
  0
LINE
  8
25
 10
23.0661
 20
2.2248
 30
0.0000
 11
23.2525
 21
2.0383
 31
0.0000
  0
LINE
  8
25
 10
23.2525
 20
2.0383
 30
0.0000
 11
23.2525
 21
1.8519
 31
0.0000
  0
LINE
  8
25
 10
23.2525
 20
1.8519
 30
0.0000
 11
23.0661
 21
1.6655
 31
0.0000
  0
LINE
  8
25
 10
23.0661
 20
1.6655
 30
0.0000
 11
22.8796
 21
1.6655
 31
0.0000
  0
LINE
  8
25
 10
23.0661
 20
1.6655
 30
0.0000
 11
23.2525
 21
1.4790
 31
0.0000
  0
LINE
  8
25
 10
23.2525
 20
1.4790
 30
0.0000
 11
23.2525
 21
1.2926
 31
0.0000
  0
LINE
  8
25
 10
23.2525
 20
1.2926
 30
0.0000
 11
23.0661
 21
1.1062
 31
0.0000
  0
LINE
  8
25
 10
23.0661
 20
1.1062
 30
0.0000
 11
22.6932
 21
1.1062
 31
0.0000
  0
LINE
  8
25
 10
22.6932
 20
1.1062
 30
0.0000
 11
22.5068
 21
1.2926
 31
0.0000
  0
LINE
  8
21
 10
56.0000
 20
19.0000
 30
0.0000
 11
56.0000
 21
18.0000
 31
0.0000
  0
LINE
  8
21
 10
56.0000
 20
18.0000
 30
0.0000
 11
56.0000
 21
17.0000
 31
0.0000
  0
LINE
  8
21
 10
56.0000
 20
17.0000
 30
0.0000
 11
56.7500
 21
17.0000
 31
0.0000
  0
ARC
  8
21
 10
56.6875
 20
17.4375
 30
0.0000
 40
0.4419
 50
278.1301
 51
351.8699
  0
LINE
  8
21
 10
57.1250
 20
17.3750
 30
0.0000
 11
57.1250
 21
17.6250
 31
0.0000
  0
ARC
  8
21
 10
56.6875
 20
17.5625
 30
0.0000
 40
0.4419
 50
8.1301
 51
81.8699
  0
LINE
  8
21
 10
56.7500
 20
18.0000
 30
0.0000
 11
56.0000
 21
18.0000
 31
0.0000
  0
LINE
  8
21
 10
56.0000
 20
19.0000
 30
0.0000
 11
56.7500
 21
19.0000
 31
0.0000
  0
ARC
  8
21
 10
56.6875
 20
18.5625
 30
0.0000
 40
0.4419
 50
8.1301
 51
81.8699
  0
LINE
  8
21
 10
57.1250
 20
18.6250
 30
0.0000
 11
57.1250
 21
18.3750
 31
0.0000
  0
ARC
  8
21
 10
56.6875
 20
18.4375
 30
0.0000
 40
0.4419
 50
278.1301
 51
351.8699
  0
LINE
  8
21
 10
57.6250
 20
17.0000
 30
0.0000
 11
57.6250
 21
19.0000
 31
0.0000
  0
LINE
  8
21
 10
57.6250
 20
19.0000
 30
0.0000
 11
58.3750
 21
18.2500
 31
0.0000
  0
LINE
  8
21
 10
58.3750
 20
18.2500
 30
0.0000
 11
59.1250
 21
19.0000
 31
0.0000
  0
LINE
  8
21
 10
59.1250
 20
19.0000
 30
0.0000
 11
59.1250
 21
17.0000
 31
0.0000
  0
LINE
  8
21
 10
60.7500
 20
19.0000
 30
0.0000
 11
60.7500
 21
17.3750
 31
0.0000
  0
ARC
  8
21
 10
60.3125
 20
17.4375
 30
0.0000
 40
0.4419
 50
278.1301
 51
351.8699
  0
LINE
  8
21
 10
60.3750
 20
17.0000
 30
0.0000
 11
60.0000
 21
17.0000
 31
0.0000
  0
ARC
  8
21
 10
60.0625
 20
17.4375
 30
0.0000
 40
0.4419
 50
188.1301
 51
261.8699
  0
LINE
  8
21
 10
49.1250
 20
3.2500
 30
0.0000
 11
50.8750
 21
3.2500
 31
0.0000
  0
LINE
  8
21
 10
50.8750
 20
6.7500
 30
0.0000
 11
49.1250
 21
6.7500
 31
0.0000
  0
LINE
  8
21
 10
50.8750
 20
6.7500
 30
0.0000
 11
50.8750
 21
5.7500
 31
0.0000
  0
LINE
  8
21
 10
49.1250
 20
4.8750
 30
0.0000
 11
49.1250
 21
5.1250
 31
0.0000
  0
LINE
  8
21
 10
50.8750
 20
4.2500
 30
0.0000
 11
50.8750
 21
3.2500
 31
0.0000
  0
LINE
  8
25
 10
49.0762
 20
7.2626
 30
0.0000
 11
49.0762
 21
8.0083
 31
0.0000
  0
LINE
  8
25
 10
49.0762
 20
8.0083
 30
0.0000
 11
49.2626
 21
8.1948
 31
0.0000
  0
LINE
  8
25
 10
49.2626
 20
8.1948
 30
0.0000
 11
49.6355
 21
8.1948
 31
0.0000
  0
LINE
  8
25
 10
49.6355
 20
8.1948
 30
0.0000
 11
49.8219
 21
8.0083
 31
0.0000
  0
LINE
  8
25
 10
49.8219
 20
8.0083
 30
0.0000
 11
49.8219
 21
7.2626
 31
0.0000
  0
LINE
  8
25
 10
49.8219
 20
7.2626
 30
0.0000
 11
49.6355
 21
7.0762
 31
0.0000
  0
LINE
  8
25
 10
49.6355
 20
7.0762
 30
0.0000
 11
49.2626
 21
7.0762
 31
0.0000
  0
LINE
  8
25
 10
49.2626
 20
7.0762
 30
0.0000
 11
49.0762
 21
7.2626
 31
0.0000
  0
LINE
  8
25
 10
49.4490
 20
7.4491
 30
0.0000
 11
49.8219
 21
7.0762
 31
0.0000
  0
LINE
  8
25
 10
50.2456
 20
7.8219
 30
0.0000
 11
50.6184
 21
8.1948
 31
0.0000
  0
LINE
  8
25
 10
50.6184
 20
8.1948
 30
0.0000
 11
50.6184
 21
7.0762
 31
0.0000
  0
LINE
  8
25
 10
50.2456
 20
7.0762
 30
0.0000
 11
50.9913
 21
7.0762
 31
0.0000
  0
CIRCLE
  8
21
 10
48.5000
 20
7.0000
 30
0.0000
 40
0.1768
  0
LINE
  8
21
 10
44.6250
 20
6.2500
 30
0.0000
 11
46.3750
 21
6.2500
 31
0.0000
  0
LINE
  8
21
 10
46.3750
 20
9.7500
 30
0.0000
 11
44.6250
 21
9.7500
 31
0.0000
  0
LINE
  8
21
 10
46.3750
 20
9.7500
 30
0.0000
 11
46.3750
 21
8.7500
 31
0.0000
  0
LINE
  8
21
 10
44.6250
 20
7.8750
 30
0.0000
 11
44.6250
 21
8.1250
 31
0.0000
  0
LINE
  8
21
 10
46.3750
 20
7.2500
 30
0.0000
 11
46.3750
 21
6.2500
 31
0.0000
  0
LINE
  8
25
 10
44.5762
 20
10.2626
 30
0.0000
 11
44.5762
 21
11.0083
 31
0.0000
  0
LINE
  8
25
 10
44.5762
 20
11.0083
 30
0.0000
 11
44.7626
 21
11.1948
 31
0.0000
  0
LINE
  8
25
 10
44.7626
 20
11.1948
 30
0.0000
 11
45.1355
 21
11.1948
 31
0.0000
  0
LINE
  8
25
 10
45.1355
 20
11.1948
 30
0.0000
 11
45.3219
 21
11.0083
 31
0.0000
  0
LINE
  8
25
 10
45.3219
 20
11.0083
 30
0.0000
 11
45.3219
 21
10.2626
 31
0.0000
  0
LINE
  8
25
 10
45.3219
 20
10.2626
 30
0.0000
 11
45.1355
 21
10.0762
 31
0.0000
  0
LINE
  8
25
 10
45.1355
 20
10.0762
 30
0.0000
 11
44.7626
 21
10.0762
 31
0.0000
  0
LINE
  8
25
 10
44.7626
 20
10.0762
 30
0.0000
 11
44.5762
 21
10.2626
 31
0.0000
  0
LINE
  8
25
 10
44.9490
 20
10.4490
 30
0.0000
 11
45.3219
 21
10.0762
 31
0.0000
  0
LINE
  8
25
 10
46.4913
 20
10.0762
 30
0.0000
 11
45.7456
 21
10.0762
 31
0.0000
  0
LINE
  8
25
 10
45.7456
 20
10.0762
 30
0.0000
 11
46.4913
 21
10.8219
 31
0.0000
  0
LINE
  8
25
 10
46.4913
 20
10.8219
 30
0.0000
 11
46.4913
 21
11.0083
 31
0.0000
  0
LINE
  8
25
 10
46.4913
 20
11.0083
 30
0.0000
 11
46.3049
 21
11.1948
 31
0.0000
  0
LINE
  8
25
 10
46.3049
 20
11.1948
 30
0.0000
 11
45.9320
 21
11.1948
 31
0.0000
  0
LINE
  8
25
 10
45.9320
 20
11.1948
 30
0.0000
 11
45.7456
 21
11.0083
 31
0.0000
  0
CIRCLE
  8
21
 10
44.0000
 20
10.0000
 30
0.0000
 40
0.1768
  0
LINE
  8
21
 10
5.2500
 20
14.8750
 30
0.0000
 11
5.2500
 21
13.1250
 31
0.0000
  0
LINE
  8
21
 10
8.7500
 20
13.1250
 30
0.0000
 11
8.7500
 21
14.8750
 31
0.0000
  0
LINE
  8
21
 10
8.7500
 20
13.1250
 30
0.0000
 11
7.7500
 21
13.1250
 31
0.0000
  0
LINE
  8
21
 10
6.8750
 20
14.8750
 30
0.0000
 11
7.1250
 21
14.8750
 31
0.0000
  0
LINE
  8
21
 10
6.2500
 20
13.1250
 30
0.0000
 11
5.2500
 21
13.1250
 31
0.0000
  0
CIRCLE
  8
21
 10
9.0000
 20
15.5000
 30
0.0000
 40
0.1768
  0
LINE
  8
25
 10
8.3262
 20
11.7626
 30
0.0000
 11
8.3262
 21
12.5083
 31
0.0000
  0
LINE
  8
25
 10
8.3262
 20
12.5083
 30
0.0000
 11
8.5126
 21
12.6948
 31
0.0000
  0
LINE
  8
25
 10
8.5126
 20
12.6948
 30
0.0000
 11
8.8855
 21
12.6948
 31
0.0000
  0
LINE
  8
25
 10
8.8855
 20
12.6948
 30
0.0000
 11
9.0719
 21
12.5083
 31
0.0000
  0
LINE
  8
25
 10
9.0719
 20
12.5083
 30
0.0000
 11
9.0719
 21
11.7626
 31
0.0000
  0
LINE
  8
25
 10
9.0719
 20
11.7626
 30
0.0000
 11
8.8855
 21
11.5762
 31
0.0000
  0
LINE
  8
25
 10
8.8855
 20
11.5762
 30
0.0000
 11
8.5126
 21
11.5762
 31
0.0000
  0
LINE
  8
25
 10
8.5126
 20
11.5762
 30
0.0000
 11
8.3262
 21
11.7626
 31
0.0000
  0
LINE
  8
25
 10
8.6990
 20
11.9490
 30
0.0000
 11
9.0719
 21
11.5762
 31
0.0000
  0
LINE
  8
25
 10
9.4956
 20
12.5083
 30
0.0000
 11
9.6820
 21
12.6948
 31
0.0000
  0
LINE
  8
25
 10
9.6820
 20
12.6948
 30
0.0000
 11
10.0549
 21
12.6948
 31
0.0000
  0
LINE
  8
25
 10
10.0549
 20
12.6948
 30
0.0000
 11
10.2413
 21
12.5083
 31
0.0000
  0
LINE
  8
25
 10
10.2413
 20
12.5083
 30
0.0000
 11
10.2413
 21
12.3219
 31
0.0000
  0
LINE
  8
25
 10
10.2413
 20
12.3219
 30
0.0000
 11
10.0549
 21
12.1355
 31
0.0000
  0
LINE
  8
25
 10
10.0549
 20
12.1355
 30
0.0000
 11
9.8684
 21
12.1355
 31
0.0000
  0
LINE
  8
25
 10
10.0549
 20
12.1355
 30
0.0000
 11
10.2413
 21
11.9490
 31
0.0000
  0
LINE
  8
25
 10
10.2413
 20
11.9490
 30
0.0000
 11
10.2413
 21
11.7626
 31
0.0000
  0
LINE
  8
25
 10
10.2413
 20
11.7626
 30
0.0000
 11
10.0549
 21
11.5762
 31
0.0000
  0
LINE
  8
25
 10
10.0549
 20
11.5762
 30
0.0000
 11
9.6820
 21
11.5762
 31
0.0000
  0
LINE
  8
25
 10
9.6820
 20
11.5762
 30
0.0000
 11
9.4956
 21
11.7626
 31
0.0000
  0
LINE
  8
51
 10
26.9500
 20
16.9000
 30
0.0000
 11
28.5500
 21
16.9000
 31
0.0000
  0
LINE
  8
51
 10
28.5500
 20
16.9000
 30
0.0000
 11
28.5500
 21
16.1000
 31
0.0000
  0
LINE
  8
51
 10
28.5500
 20
16.1000
 30
0.0000
 11
26.9500
 21
16.1000
 31
0.0000
  0
LINE
  8
51
 10
26.9500
 20
16.1000
 30
0.0000
 11
26.9500
 21
16.9000
 31
0.0000
  0
LINE
  8
25
 10
24.3462
 20
15.9412
 30
0.0000
 11
24.3462
 21
17.0598
 31
0.0000
  0
LINE
  8
25
 10
24.3462
 20
17.0598
 30
0.0000
 11
24.9055
 21
17.0598
 31
0.0000
  0
LINE
  8
25
 10
24.9055
 20
17.0598
 30
0.0000
 11
25.0919
 21
16.8733
 31
0.0000
  0
LINE
  8
25
 10
25.0919
 20
16.8733
 30
0.0000
 11
25.0919
 21
16.5005
 31
0.0000
  0
LINE
  8
25
 10
25.0919
 20
16.5005
 30
0.0000
 11
24.9055
 21
16.3141
 31
0.0000
  0
LINE
  8
25
 10
24.9055
 20
16.3141
 30
0.0000
 11
24.3462
 21
16.3141
 31
0.0000
  0
LINE
  8
25
 10
24.7191
 20
16.3141
 30
0.0000
 11
25.0919
 21
15.9412
 31
0.0000
  0
LINE
  8
25
 10
25.5156
 20
16.6869
 30
0.0000
 11
25.8884
 21
17.0598
 31
0.0000
  0
LINE
  8
25
 10
25.8884
 20
17.0598
 30
0.0000
 11
25.8884
 21
15.9412
 31
0.0000
  0
LINE
  8
25
 10
25.5156
 20
15.9412
 30
0.0000
 11
26.2613
 21
15.9412
 31
0.0000
  0
LINE
  8
51
 10
26.9500
 20
14.9000
 30
0.0000
 11
28.5500
 21
14.9000
 31
0.0000
  0
LINE
  8
51
 10
28.5500
 20
14.9000
 30
0.0000
 11
28.5500
 21
14.1000
 31
0.0000
  0
LINE
  8
51
 10
28.5500
 20
14.1000
 30
0.0000
 11
26.9500
 21
14.1000
 31
0.0000
  0
LINE
  8
51
 10
26.9500
 20
14.1000
 30
0.0000
 11
26.9500
 21
14.9000
 31
0.0000
  0
LINE
  8
25
 10
27.0962
 20
12.4412
 30
0.0000
 11
27.0962
 21
13.5598
 31
0.0000
  0
LINE
  8
25
 10
27.0962
 20
13.5598
 30
0.0000
 11
27.6555
 21
13.5598
 31
0.0000
  0
LINE
  8
25
 10
27.6555
 20
13.5598
 30
0.0000
 11
27.8419
 21
13.3733
 31
0.0000
  0
LINE
  8
25
 10
27.8419
 20
13.3733
 30
0.0000
 11
27.8419
 21
13.0005
 31
0.0000
  0
LINE
  8
25
 10
27.8419
 20
13.0005
 30
0.0000
 11
27.6555
 21
12.8140
 31
0.0000
  0
LINE
  8
25
 10
27.6555
 20
12.8140
 30
0.0000
 11
27.0962
 21
12.8140
 31
0.0000
  0
LINE
  8
25
 10
27.4691
 20
12.8140
 30
0.0000
 11
27.8419
 21
12.4412
 31
0.0000
  0
LINE
  8
25
 10
29.0113
 20
12.4412
 30
0.0000
 11
28.2656
 21
12.4412
 31
0.0000
  0
LINE
  8
25
 10
28.2656
 20
12.4412
 30
0.0000
 11
29.0113
 21
13.1869
 31
0.0000
  0
LINE
  8
25
 10
29.0113
 20
13.1869
 30
0.0000
 11
29.0113
 21
13.3733
 31
0.0000
  0
LINE
  8
25
 10
29.0113
 20
13.3733
 30
0.0000
 11
28.8249
 21
13.5598
 31
0.0000
  0
LINE
  8
25
 10
28.8249
 20
13.5598
 30
0.0000
 11
28.4520
 21
13.5598
 31
0.0000
  0
LINE
  8
25
 10
28.4520
 20
13.5598
 30
0.0000
 11
28.2656
 21
13.3733
 31
0.0000
  0
LINE
  8
51
 10
3.2000
 20
10.4000
 30
0.0000
 11
4.8000
 21
10.4000
 31
0.0000
  0
LINE
  8
51
 10
4.8000
 20
10.4000
 30
0.0000
 11
4.8000
 21
9.6000
 31
0.0000
  0
LINE
  8
51
 10
4.8000
 20
9.6000
 30
0.0000
 11
3.2000
 21
9.6000
 31
0.0000
  0
LINE
  8
51
 10
3.2000
 20
9.6000
 30
0.0000
 11
3.2000
 21
10.4000
 31
0.0000
  0
LINE
  8
25
 10
0.5962
 20
9.6912
 30
0.0000
 11
0.5962
 21
10.8098
 31
0.0000
  0
LINE
  8
25
 10
0.5962
 20
10.8098
 30
0.0000
 11
1.1555
 21
10.8098
 31
0.0000
  0
LINE
  8
25
 10
1.1555
 20
10.8098
 30
0.0000
 11
1.3419
 21
10.6233
 31
0.0000
  0
LINE
  8
25
 10
1.3419
 20
10.6233
 30
0.0000
 11
1.3419
 21
10.2505
 31
0.0000
  0
LINE
  8
25
 10
1.3419
 20
10.2505
 30
0.0000
 11
1.1555
 21
10.0640
 31
0.0000
  0
LINE
  8
25
 10
1.1555
 20
10.0640
 30
0.0000
 11
0.5962
 21
10.0640
 31
0.0000
  0
LINE
  8
25
 10
0.9691
 20
10.0640
 30
0.0000
 11
1.3419
 21
9.6912
 31
0.0000
  0
LINE
  8
25
 10
1.7656
 20
10.6233
 30
0.0000
 11
1.9520
 21
10.8098
 31
0.0000
  0
LINE
  8
25
 10
1.9520
 20
10.8098
 30
0.0000
 11
2.3249
 21
10.8098
 31
0.0000
  0
LINE
  8
25
 10
2.3249
 20
10.8098
 30
0.0000
 11
2.5113
 21
10.6233
 31
0.0000
  0
LINE
  8
25
 10
2.5113
 20
10.6233
 30
0.0000
 11
2.5113
 21
10.4369
 31
0.0000
  0
LINE
  8
25
 10
2.5113
 20
10.4369
 30
0.0000
 11
2.3249
 21
10.2505
 31
0.0000
  0
LINE
  8
25
 10
2.3249
 20
10.2505
 30
0.0000
 11
2.1384
 21
10.2505
 31
0.0000
  0
LINE
  8
25
 10
2.3249
 20
10.2505
 30
0.0000
 11
2.5113
 21
10.0640
 31
0.0000
  0
LINE
  8
25
 10
2.5113
 20
10.0640
 30
0.0000
 11
2.5113
 21
9.8776
 31
0.0000
  0
LINE
  8
25
 10
2.5113
 20
9.8776
 30
0.0000
 11
2.3249
 21
9.6912
 31
0.0000
  0
LINE
  8
25
 10
2.3249
 20
9.6912
 30
0.0000
 11
1.9520
 21
9.6912
 31
0.0000
  0
LINE
  8
25
 10
1.9520
 20
9.6912
 30
0.0000
 11
1.7656
 21
9.8776
 31
0.0000
  0
LINE
  8
51
 10
36.6500
 20
24.8000
 30
0.0000
 11
36.6500
 21
23.2000
 31
0.0000
  0
LINE
  8
51
 10
36.6500
 20
23.2000
 30
0.0000
 11
35.8500
 21
23.2000
 31
0.0000
  0
LINE
  8
51
 10
35.8500
 20
23.2000
 30
0.0000
 11
35.8500
 21
24.8000
 31
0.0000
  0
LINE
  8
51
 10
35.8500
 20
24.8000
 30
0.0000
 11
36.6500
 21
24.8000
 31
0.0000
  0
LINE
  8
25
 10
37.3088
 20
20.7174
 30
0.0000
 11
36.1902
 21
20.7174
 31
0.0000
  0
LINE
  8
25
 10
36.1902
 20
20.7174
 30
0.0000
 11
36.1902
 21
21.2767
 31
0.0000
  0
LINE
  8
25
 10
36.1902
 20
21.2767
 30
0.0000
 11
36.3767
 21
21.4631
 31
0.0000
  0
LINE
  8
25
 10
36.3767
 20
21.4631
 30
0.0000
 11
36.7495
 21
21.4631
 31
0.0000
  0
LINE
  8
25
 10
36.7495
 20
21.4631
 30
0.0000
 11
36.9359
 21
21.2767
 31
0.0000
  0
LINE
  8
25
 10
36.9359
 20
21.2767
 30
0.0000
 11
36.9359
 21
20.7174
 31
0.0000
  0
LINE
  8
25
 10
36.9359
 20
21.0903
 30
0.0000
 11
37.3088
 21
21.4631
 31
0.0000
  0
LINE
  8
25
 10
37.3088
 20
22.4461
 30
0.0000
 11
36.1902
 21
22.4461
 31
0.0000
  0
LINE
  8
25
 10
36.1902
 20
22.4461
 30
0.0000
 11
36.7495
 21
21.8868
 31
0.0000
  0
LINE
  8
25
 10
36.7495
 20
21.8868
 30
0.0000
 11
36.7495
 21
22.6325
 31
0.0000
  0
LINE
  8
51
 10
37.6000
 20
23.2000
 30
0.0000
 11
37.6000
 21
24.8000
 31
0.0000
  0
LINE
  8
51
 10
37.6000
 20
24.8000
 30
0.0000
 11
38.4000
 21
24.8000
 31
0.0000
  0
LINE
  8
51
 10
38.4000
 20
24.8000
 30
0.0000
 11
38.4000
 21
23.2000
 31
0.0000
  0
LINE
  8
51
 10
38.4000
 20
23.2000
 30
0.0000
 11
37.6000
 21
23.2000
 31
0.0000
  0
LINE
  8
25
 10
38.5588
 20
25.3462
 30
0.0000
 11
37.4402
 21
25.3462
 31
0.0000
  0
LINE
  8
25
 10
37.4402
 20
25.3462
 30
0.0000
 11
37.4402
 21
25.9055
 31
0.0000
  0
LINE
  8
25
 10
37.4402
 20
25.9055
 30
0.0000
 11
37.6267
 21
26.0919
 31
0.0000
  0
LINE
  8
25
 10
37.6267
 20
26.0919
 30
0.0000
 11
37.9995
 21
26.0919
 31
0.0000
  0
LINE
  8
25
 10
37.9995
 20
26.0919
 30
0.0000
 11
38.1859
 21
25.9055
 31
0.0000
  0
LINE
  8
25
 10
38.1859
 20
25.9055
 30
0.0000
 11
38.1859
 21
25.3462
 31
0.0000
  0
LINE
  8
25
 10
38.1859
 20
25.7191
 30
0.0000
 11
38.5588
 21
26.0919
 31
0.0000
  0
LINE
  8
25
 10
37.4402
 20
27.2613
 30
0.0000
 11
37.4402
 21
26.5156
 31
0.0000
  0
LINE
  8
25
 10
37.4402
 20
26.5156
 30
0.0000
 11
37.9995
 21
26.5156
 31
0.0000
  0
LINE
  8
25
 10
37.9995
 20
26.5156
 30
0.0000
 11
37.8131
 21
26.8884
 31
0.0000
  0
LINE
  8
25
 10
37.8131
 20
26.8884
 30
0.0000
 11
37.8131
 21
27.0749
 31
0.0000
  0
LINE
  8
25
 10
37.8131
 20
27.0749
 30
0.0000
 11
37.9995
 21
27.2613
 31
0.0000
  0
LINE
  8
25
 10
37.9995
 20
27.2613
 30
0.0000
 11
38.3724
 21
27.2613
 31
0.0000
  0
LINE
  8
25
 10
38.3724
 20
27.2613
 30
0.0000
 11
38.5588
 21
27.0749
 31
0.0000
  0
LINE
  8
25
 10
38.5588
 20
27.0749
 30
0.0000
 11
38.5588
 21
26.7020
 31
0.0000
  0
LINE
  8
25
 10
38.5588
 20
26.7020
 30
0.0000
 11
38.3724
 21
26.5156
 31
0.0000
  0
LINE
  8
51
 10
33.2000
 20
4.4000
 30
0.0000
 11
34.8000
 21
4.4000
 31
0.0000
  0
LINE
  8
51
 10
34.8000
 20
4.4000
 30
0.0000
 11
34.8000
 21
3.6000
 31
0.0000
  0
LINE
  8
51
 10
34.8000
 20
3.6000
 30
0.0000
 11
33.2000
 21
3.6000
 31
0.0000
  0
LINE
  8
51
 10
33.2000
 20
3.6000
 30
0.0000
 11
33.2000
 21
4.4000
 31
0.0000
  0
LINE
  8
25
 10
35.3462
 20
3.4412
 30
0.0000
 11
35.3462
 21
4.5598
 31
0.0000
  0
LINE
  8
25
 10
35.3462
 20
4.5598
 30
0.0000
 11
35.9055
 21
4.5598
 31
0.0000
  0
LINE
  8
25
 10
35.9055
 20
4.5598
 30
0.0000
 11
36.0919
 21
4.3733
 31
0.0000
  0
LINE
  8
25
 10
36.0919
 20
4.3733
 30
0.0000
 11
36.0919
 21
4.0005
 31
0.0000
  0
LINE
  8
25
 10
36.0919
 20
4.0005
 30
0.0000
 11
35.9055
 21
3.8141
 31
0.0000
  0
LINE
  8
25
 10
35.9055
 20
3.8141
 30
0.0000
 11
35.3462
 21
3.8141
 31
0.0000
  0
LINE
  8
25
 10
35.7191
 20
3.8141
 30
0.0000
 11
36.0919
 21
3.4412
 31
0.0000
  0
LINE
  8
25
 10
37.2613
 20
4.5598
 30
0.0000
 11
36.8884
 21
4.3733
 31
0.0000
  0
LINE
  8
25
 10
36.8884
 20
4.3733
 30
0.0000
 11
36.5156
 21
4.0005
 31
0.0000
  0
LINE
  8
25
 10
36.5156
 20
4.0005
 30
0.0000
 11
36.5156
 21
3.6276
 31
0.0000
  0
LINE
  8
25
 10
36.5156
 20
3.6276
 30
0.0000
 11
36.7020
 21
3.4412
 31
0.0000
  0
LINE
  8
25
 10
36.7020
 20
3.4412
 30
0.0000
 11
37.0749
 21
3.4412
 31
0.0000
  0
LINE
  8
25
 10
37.0749
 20
3.4412
 30
0.0000
 11
37.2613
 21
3.6276
 31
0.0000
  0
LINE
  8
25
 10
37.2613
 20
3.6276
 30
0.0000
 11
37.2613
 21
3.8141
 31
0.0000
  0
LINE
  8
25
 10
37.2613
 20
3.8141
 30
0.0000
 11
37.0749
 21
4.0005
 31
0.0000
  0
LINE
  8
25
 10
37.0749
 20
4.0005
 30
0.0000
 11
36.5156
 21
4.0005
 31
0.0000
  0
LINE
  8
51
 10
37.6000
 20
6.2000
 30
0.0000
 11
37.6000
 21
7.8000
 31
0.0000
  0
LINE
  8
51
 10
37.6000
 20
7.8000
 30
0.0000
 11
38.4000
 21
7.8000
 31
0.0000
  0
LINE
  8
51
 10
38.4000
 20
7.8000
 30
0.0000
 11
38.4000
 21
6.2000
 31
0.0000
  0
LINE
  8
51
 10
38.4000
 20
6.2000
 30
0.0000
 11
37.6000
 21
6.2000
 31
0.0000
  0
LINE
  8
25
 10
38.5588
 20
8.3462
 30
0.0000
 11
37.4402
 21
8.3462
 31
0.0000
  0
LINE
  8
25
 10
37.4402
 20
8.3462
 30
0.0000
 11
37.4402
 21
8.9055
 31
0.0000
  0
LINE
  8
25
 10
37.4402
 20
8.9055
 30
0.0000
 11
37.6267
 21
9.0919
 31
0.0000
  0
LINE
  8
25
 10
37.6267
 20
9.0919
 30
0.0000
 11
37.9995
 21
9.0919
 31
0.0000
  0
LINE
  8
25
 10
37.9995
 20
9.0919
 30
0.0000
 11
38.1859
 21
8.9055
 31
0.0000
  0
LINE
  8
25
 10
38.1859
 20
8.9055
 30
0.0000
 11
38.1859
 21
8.3462
 31
0.0000
  0
LINE
  8
25
 10
38.1859
 20
8.7191
 30
0.0000
 11
38.5588
 21
9.0919
 31
0.0000
  0
LINE
  8
25
 10
37.4402
 20
9.5156
 30
0.0000
 11
37.4402
 21
10.2613
 31
0.0000
  0
LINE
  8
25
 10
37.4402
 20
10.2613
 30
0.0000
 11
37.6267
 21
10.2613
 31
0.0000
  0
LINE
  8
25
 10
37.6267
 20
10.2613
 30
0.0000
 11
38.3724
 21
9.5156
 31
0.0000
  0
LINE
  8
25
 10
38.3724
 20
9.5156
 30
0.0000
 11
38.5588
 21
9.5156
 31
0.0000
  0
LINE
  8
51
 10
22.2000
 20
5.4000
 30
0.0000
 11
23.8000
 21
5.4000
 31
0.0000
  0
LINE
  8
51
 10
23.8000
 20
5.4000
 30
0.0000
 11
23.8000
 21
4.6000
 31
0.0000
  0
LINE
  8
51
 10
23.8000
 20
4.6000
 30
0.0000
 11
22.2000
 21
4.6000
 31
0.0000
  0
LINE
  8
51
 10
22.2000
 20
4.6000
 30
0.0000
 11
22.2000
 21
5.4000
 31
0.0000
  0
LINE
  8
25
 10
22.3462
 20
5.9412
 30
0.0000
 11
22.3462
 21
7.0598
 31
0.0000
  0
LINE
  8
25
 10
22.3462
 20
7.0598
 30
0.0000
 11
22.9055
 21
7.0598
 31
0.0000
  0
LINE
  8
25
 10
22.9055
 20
7.0598
 30
0.0000
 11
23.0919
 21
6.8733
 31
0.0000
  0
LINE
  8
25
 10
23.0919
 20
6.8733
 30
0.0000
 11
23.0919
 21
6.5005
 31
0.0000
  0
LINE
  8
25
 10
23.0919
 20
6.5005
 30
0.0000
 11
22.9055
 21
6.3140
 31
0.0000
  0
LINE
  8
25
 10
22.9055
 20
6.3140
 30
0.0000
 11
22.3462
 21
6.3140
 31
0.0000
  0
LINE
  8
25
 10
22.7191
 20
6.3140
 30
0.0000
 11
23.0919
 21
5.9412
 31
0.0000
  0
LINE
  8
25
 10
23.5156
 20
6.8733
 30
0.0000
 11
23.7020
 21
7.0598
 31
0.0000
  0
LINE
  8
25
 10
23.7020
 20
7.0598
 30
0.0000
 11
24.0749
 21
7.0598
 31
0.0000
  0
LINE
  8
25
 10
24.0749
 20
7.0598
 30
0.0000
 11
24.2613
 21
6.8733
 31
0.0000
  0
LINE
  8
25
 10
24.2613
 20
6.8733
 30
0.0000
 11
24.2613
 21
6.6869
 31
0.0000
  0
LINE
  8
25
 10
24.2613
 20
6.6869
 30
0.0000
 11
24.0749
 21
6.5005
 31
0.0000
  0
LINE
  8
25
 10
24.0749
 20
6.5005
 30
0.0000
 11
24.2613
 21
6.3140
 31
0.0000
  0
LINE
  8
25
 10
24.2613
 20
6.3140
 30
0.0000
 11
24.2613
 21
6.1276
 31
0.0000
  0
LINE
  8
25
 10
24.2613
 20
6.1276
 30
0.0000
 11
24.0749
 21
5.9412
 31
0.0000
  0
LINE
  8
25
 10
24.0749
 20
5.9412
 30
0.0000
 11
23.7020
 21
5.9412
 31
0.0000
  0
LINE
  8
25
 10
23.7020
 20
5.9412
 30
0.0000
 11
23.5156
 21
6.1276
 31
0.0000
  0
LINE
  8
25
 10
23.5156
 20
6.1276
 30
0.0000
 11
23.5156
 21
6.3140
 31
0.0000
  0
LINE
  8
25
 10
23.5156
 20
6.3140
 30
0.0000
 11
23.7020
 21
6.5005
 31
0.0000
  0
LINE
  8
25
 10
23.7020
 20
6.5005
 30
0.0000
 11
23.5156
 21
6.6869
 31
0.0000
  0
LINE
  8
25
 10
23.5156
 20
6.6869
 30
0.0000
 11
23.5156
 21
6.8733
 31
0.0000
  0
LINE
  8
25
 10
23.7020
 20
6.5005
 30
0.0000
 11
24.0749
 21
6.5005
 31
0.0000
  0
LINE
  8
51
 10
18.2000
 20
5.4000
 30
0.0000
 11
19.8000
 21
5.4000
 31
0.0000
  0
LINE
  8
51
 10
19.8000
 20
5.4000
 30
0.0000
 11
19.8000
 21
4.6000
 31
0.0000
  0
LINE
  8
51
 10
19.8000
 20
4.6000
 30
0.0000
 11
18.2000
 21
4.6000
 31
0.0000
  0
LINE
  8
51
 10
18.2000
 20
4.6000
 30
0.0000
 11
18.2000
 21
5.4000
 31
0.0000
  0
LINE
  8
25
 10
19.0962
 20
5.9412
 30
0.0000
 11
19.0962
 21
7.0598
 31
0.0000
  0
LINE
  8
25
 10
19.0962
 20
7.0598
 30
0.0000
 11
19.6555
 21
7.0598
 31
0.0000
  0
LINE
  8
25
 10
19.6555
 20
7.0598
 30
0.0000
 11
19.8419
 21
6.8733
 31
0.0000
  0
LINE
  8
25
 10
19.8419
 20
6.8733
 30
0.0000
 11
19.8419
 21
6.5005
 31
0.0000
  0
LINE
  8
25
 10
19.8419
 20
6.5005
 30
0.0000
 11
19.6555
 21
6.3140
 31
0.0000
  0
LINE
  8
25
 10
19.6555
 20
6.3140
 30
0.0000
 11
19.0962
 21
6.3140
 31
0.0000
  0
LINE
  8
25
 10
19.4690
 20
6.3140
 30
0.0000
 11
19.8419
 21
5.9412
 31
0.0000
  0
LINE
  8
25
 10
20.2656
 20
6.1276
 30
0.0000
 11
20.4520
 21
5.9412
 31
0.0000
  0
LINE
  8
25
 10
20.4520
 20
5.9412
 30
0.0000
 11
20.8249
 21
5.9412
 31
0.0000
  0
LINE
  8
25
 10
20.8249
 20
5.9412
 30
0.0000
 11
21.0113
 21
6.1276
 31
0.0000
  0
LINE
  8
25
 10
21.0113
 20
6.1276
 30
0.0000
 11
21.0113
 21
6.8733
 31
0.0000
  0
LINE
  8
25
 10
21.0113
 20
6.8733
 30
0.0000
 11
20.8249
 21
7.0598
 31
0.0000
  0
LINE
  8
25
 10
20.8249
 20
7.0598
 30
0.0000
 11
20.4520
 21
7.0598
 31
0.0000
  0
LINE
  8
25
 10
20.4520
 20
7.0598
 30
0.0000
 11
20.2656
 21
6.8733
 31
0.0000
  0
LINE
  8
25
 10
20.2656
 20
6.8733
 30
0.0000
 11
20.2656
 21
6.6869
 31
0.0000
  0
LINE
  8
25
 10
20.2656
 20
6.6869
 30
0.0000
 11
20.4520
 21
6.5005
 31
0.0000
  0
LINE
  8
25
 10
20.4520
 20
6.5005
 30
0.0000
 11
21.0113
 21
6.5005
 31
0.0000
  0
LINE
  8
51
 10
58.6000
 20
26.2000
 30
0.0000
 11
58.6000
 21
27.8000
 31
0.0000
  0
LINE
  8
51
 10
58.6000
 20
27.8000
 30
0.0000
 11
59.4000
 21
27.8000
 31
0.0000
  0
LINE
  8
51
 10
59.4000
 20
27.8000
 30
0.0000
 11
59.4000
 21
26.2000
 31
0.0000
  0
LINE
  8
51
 10
59.4000
 20
26.2000
 30
0.0000
 11
58.6000
 21
26.2000
 31
0.0000
  0
LINE
  8
25
 10
57.2980
 20
24.4412
 30
0.0000
 11
57.2980
 21
25.5598
 31
0.0000
  0
LINE
  8
25
 10
57.2980
 20
25.5598
 30
0.0000
 11
57.8573
 21
25.5598
 31
0.0000
  0
LINE
  8
25
 10
57.8573
 20
25.5598
 30
0.0000
 11
58.0437
 21
25.3733
 31
0.0000
  0
LINE
  8
25
 10
58.0437
 20
25.3733
 30
0.0000
 11
58.0437
 21
25.0005
 31
0.0000
  0
LINE
  8
25
 10
58.0437
 20
25.0005
 30
0.0000
 11
57.8573
 21
24.8141
 31
0.0000
  0
LINE
  8
25
 10
57.8573
 20
24.8141
 30
0.0000
 11
57.2980
 21
24.8141
 31
0.0000
  0
LINE
  8
25
 10
57.6709
 20
24.8141
 30
0.0000
 11
58.0437
 21
24.4412
 31
0.0000
  0
LINE
  8
25
 10
58.4674
 20
25.1869
 30
0.0000
 11
58.8403
 21
25.5598
 31
0.0000
  0
LINE
  8
25
 10
58.8403
 20
25.5598
 30
0.0000
 11
58.8403
 21
24.4412
 31
0.0000
  0
LINE
  8
25
 10
58.4674
 20
24.4412
 30
0.0000
 11
59.2131
 21
24.4412
 31
0.0000
  0
LINE
  8
25
 10
59.6368
 20
24.6276
 30
0.0000
 11
59.6368
 21
25.3733
 31
0.0000
  0
LINE
  8
25
 10
59.6368
 20
25.3733
 30
0.0000
 11
59.8232
 21
25.5598
 31
0.0000
  0
LINE
  8
25
 10
59.8232
 20
25.5598
 30
0.0000
 11
60.1961
 21
25.5598
 31
0.0000
  0
LINE
  8
25
 10
60.1961
 20
25.5598
 30
0.0000
 11
60.3825
 21
25.3733
 31
0.0000
  0
LINE
  8
25
 10
60.3825
 20
25.3733
 30
0.0000
 11
60.3825
 21
24.6276
 31
0.0000
  0
LINE
  8
25
 10
60.3825
 20
24.6276
 30
0.0000
 11
60.1961
 21
24.4412
 31
0.0000
  0
LINE
  8
25
 10
60.1961
 20
24.4412
 30
0.0000
 11
59.8232
 21
24.4412
 31
0.0000
  0
LINE
  8
25
 10
59.8232
 20
24.4412
 30
0.0000
 11
59.6368
 21
24.6276
 31
0.0000
  0
LINE
  8
25
 10
59.6368
 20
24.6276
 30
0.0000
 11
60.3825
 21
25.3733
 31
0.0000
  0
LINE
  8
51
 10
26.2000
 20
5.4000
 30
0.0000
 11
27.8000
 21
5.4000
 31
0.0000
  0
LINE
  8
51
 10
27.8000
 20
5.4000
 30
0.0000
 11
27.8000
 21
4.6000
 31
0.0000
  0
LINE
  8
51
 10
27.8000
 20
4.6000
 30
0.0000
 11
26.2000
 21
4.6000
 31
0.0000
  0
LINE
  8
51
 10
26.2000
 20
4.6000
 30
0.0000
 11
26.2000
 21
5.4000
 31
0.0000
  0
LINE
  8
25
 10
28.3462
 20
4.4412
 30
0.0000
 11
28.3462
 21
5.5598
 31
0.0000
  0
LINE
  8
25
 10
28.3462
 20
5.5598
 30
0.0000
 11
28.9055
 21
5.5598
 31
0.0000
  0
LINE
  8
25
 10
28.9055
 20
5.5598
 30
0.0000
 11
29.0919
 21
5.3733
 31
0.0000
  0
LINE
  8
25
 10
29.0919
 20
5.3733
 30
0.0000
 11
29.0919
 21
5.0005
 31
0.0000
  0
LINE
  8
25
 10
29.0919
 20
5.0005
 30
0.0000
 11
28.9055
 21
4.8140
 31
0.0000
  0
LINE
  8
25
 10
28.9055
 20
4.8140
 30
0.0000
 11
28.3462
 21
4.8140
 31
0.0000
  0
LINE
  8
25
 10
28.7191
 20
4.8140
 30
0.0000
 11
29.0919
 21
4.4412
 31
0.0000
  0
LINE
  8
25
 10
29.5156
 20
5.1869
 30
0.0000
 11
29.8884
 21
5.5598
 31
0.0000
  0
LINE
  8
25
 10
29.8884
 20
5.5598
 30
0.0000
 11
29.8884
 21
4.4412
 31
0.0000
  0
LINE
  8
25
 10
29.5156
 20
4.4412
 30
0.0000
 11
30.2613
 21
4.4412
 31
0.0000
  0
LINE
  8
25
 10
30.6850
 20
5.1869
 30
0.0000
 11
31.0578
 21
5.5598
 31
0.0000
  0
LINE
  8
25
 10
31.0578
 20
5.5598
 30
0.0000
 11
31.0578
 21
4.4412
 31
0.0000
  0
LINE
  8
25
 10
30.6850
 20
4.4412
 30
0.0000
 11
31.4307
 21
4.4412
 31
0.0000
  0
LINE
  8
51
 10
56.6500
 20
11.0000
 30
0.0000
 11
56.6500
 21
9.0000
 31
0.0000
  0
LINE
  8
51
 10
56.6500
 20
9.0000
 30
0.0000
 11
55.3500
 21
9.0000
 31
0.0000
  0
LINE
  8
51
 10
55.3500
 20
9.0000
 30
0.0000
 11
55.3500
 21
11.0000
 31
0.0000
  0
LINE
  8
51
 10
55.3500
 20
11.0000
 30
0.0000
 11
56.6500
 21
11.0000
 31
0.0000
  0
LINE
  8
25
 10
56.5588
 20
4.9812
 30
0.0000
 11
55.4402
 21
4.9812
 31
0.0000
  0
LINE
  8
25
 10
55.4402
 20
4.9812
 30
0.0000
 11
55.4402
 21
5.5405
 31
0.0000
  0
LINE
  8
25
 10
55.4402
 20
5.5405
 30
0.0000
 11
55.6267
 21
5.7269
 31
0.0000
  0
LINE
  8
25
 10
55.6267
 20
5.7269
 30
0.0000
 11
55.9995
 21
5.7269
 31
0.0000
  0
LINE
  8
25
 10
55.9995
 20
5.7269
 30
0.0000
 11
56.1860
 21
5.5405
 31
0.0000
  0
LINE
  8
25
 10
56.1860
 20
5.5405
 30
0.0000
 11
56.1860
 21
4.9812
 31
0.0000
  0
LINE
  8
25
 10
56.1860
 20
5.3540
 30
0.0000
 11
56.5588
 21
5.7269
 31
0.0000
  0
LINE
  8
25
 10
55.8131
 20
6.1506
 30
0.0000
 11
55.4402
 21
6.5234
 31
0.0000
  0
LINE
  8
25
 10
55.4402
 20
6.5234
 30
0.0000
 11
56.5588
 21
6.5234
 31
0.0000
  0
LINE
  8
25
 10
56.5588
 20
6.1506
 30
0.0000
 11
56.5588
 21
6.8963
 31
0.0000
  0
LINE
  8
25
 10
56.5588
 20
8.0657
 30
0.0000
 11
56.5588
 21
7.3200
 31
0.0000
  0
LINE
  8
25
 10
56.5588
 20
7.3200
 30
0.0000
 11
55.8131
 21
8.0657
 31
0.0000
  0
LINE
  8
25
 10
55.8131
 20
8.0657
 30
0.0000
 11
55.6267
 21
8.0657
 31
0.0000
  0
LINE
  8
25
 10
55.6267
 20
8.0657
 30
0.0000
 11
55.4402
 21
7.8793
 31
0.0000
  0
LINE
  8
25
 10
55.4402
 20
7.8793
 30
0.0000
 11
55.4402
 21
7.5064
 31
0.0000
  0
LINE
  8
25
 10
55.4402
 20
7.5064
 30
0.0000
 11
55.6267
 21
7.3200
 31
0.0000
  0
LINE
  8
51
 10
53.6500
 20
11.0000
 30
0.0000
 11
53.6500
 21
9.0000
 31
0.0000
  0
LINE
  8
51
 10
53.6500
 20
9.0000
 30
0.0000
 11
52.3500
 21
9.0000
 31
0.0000
  0
LINE
  8
51
 10
52.3500
 20
9.0000
 30
0.0000
 11
52.3500
 21
11.0000
 31
0.0000
  0
LINE
  8
51
 10
52.3500
 20
11.0000
 30
0.0000
 11
53.6500
 21
11.0000
 31
0.0000
  0
LINE
  8
25
 10
53.5588
 20
4.6630
 30
0.0000
 11
52.4402
 21
4.6630
 31
0.0000
  0
LINE
  8
25
 10
52.4402
 20
4.6630
 30
0.0000
 11
52.4402
 21
5.2223
 31
0.0000
  0
LINE
  8
25
 10
52.4402
 20
5.2223
 30
0.0000
 11
52.6267
 21
5.4087
 31
0.0000
  0
LINE
  8
25
 10
52.6267
 20
5.4087
 30
0.0000
 11
52.9995
 21
5.4087
 31
0.0000
  0
LINE
  8
25
 10
52.9995
 20
5.4087
 30
0.0000
 11
53.1860
 21
5.2223
 31
0.0000
  0
LINE
  8
25
 10
53.1860
 20
5.2223
 30
0.0000
 11
53.1860
 21
4.6630
 31
0.0000
  0
LINE
  8
25
 10
53.1860
 20
5.0359
 30
0.0000
 11
53.5588
 21
5.4087
 31
0.0000
  0
LINE
  8
25
 10
52.8131
 20
5.8324
 30
0.0000
 11
52.4402
 21
6.2053
 31
0.0000
  0
LINE
  8
25
 10
52.4402
 20
6.2053
 30
0.0000
 11
53.5588
 21
6.2053
 31
0.0000
  0
LINE
  8
25
 10
53.5588
 20
5.8324
 30
0.0000
 11
53.5588
 21
6.5781
 31
0.0000
  0
LINE
  8
25
 10
52.6267
 20
7.0018
 30
0.0000
 11
52.4402
 21
7.1882
 31
0.0000
  0
LINE
  8
25
 10
52.4402
 20
7.1882
 30
0.0000
 11
52.4402
 21
7.5611
 31
0.0000
  0
LINE
  8
25
 10
52.4402
 20
7.5611
 30
0.0000
 11
52.6267
 21
7.7475
 31
0.0000
  0
LINE
  8
25
 10
52.6267
 20
7.7475
 30
0.0000
 11
52.8131
 21
7.7475
 31
0.0000
  0
LINE
  8
25
 10
52.8131
 20
7.7475
 30
0.0000
 11
52.9995
 21
7.5611
 31
0.0000
  0
LINE
  8
25
 10
52.9995
 20
7.5611
 30
0.0000
 11
52.9995
 21
7.3746
 31
0.0000
  0
LINE
  8
25
 10
52.9995
 20
7.5611
 30
0.0000
 11
53.1860
 21
7.7475
 31
0.0000
  0
LINE
  8
25
 10
53.1860
 20
7.7475
 30
0.0000
 11
53.3724
 21
7.7475
 31
0.0000
  0
LINE
  8
25
 10
53.3724
 20
7.7475
 30
0.0000
 11
53.5588
 21
7.5611
 31
0.0000
  0
LINE
  8
25
 10
53.5588
 20
7.5611
 30
0.0000
 11
53.5588
 21
7.1882
 31
0.0000
  0
LINE
  8
25
 10
53.5588
 20
7.1882
 30
0.0000
 11
53.3724
 21
7.0018
 31
0.0000
  0
LINE
  8
51
 10
16.7000
 20
30.4000
 30
0.0000
 11
18.3000
 21
30.4000
 31
0.0000
  0
LINE
  8
51
 10
18.3000
 20
30.4000
 30
0.0000
 11
18.3000
 21
29.6000
 31
0.0000
  0
LINE
  8
51
 10
18.3000
 20
29.6000
 30
0.0000
 11
16.7000
 21
29.6000
 31
0.0000
  0
LINE
  8
51
 10
16.7000
 20
29.6000
 30
0.0000
 11
16.7000
 21
30.4000
 31
0.0000
  0
LINE
  8
25
 10
16.0962
 20
30.9412
 30
0.0000
 11
16.0962
 21
32.0598
 31
0.0000
  0
LINE
  8
25
 10
16.0962
 20
32.0598
 30
0.0000
 11
16.6555
 21
32.0598
 31
0.0000
  0
LINE
  8
25
 10
16.6555
 20
32.0598
 30
0.0000
 11
16.8419
 21
31.8733
 31
0.0000
  0
LINE
  8
25
 10
16.8419
 20
31.8733
 30
0.0000
 11
16.8419
 21
31.5005
 31
0.0000
  0
LINE
  8
25
 10
16.8419
 20
31.5005
 30
0.0000
 11
16.6555
 21
31.3141
 31
0.0000
  0
LINE
  8
25
 10
16.6555
 20
31.3141
 30
0.0000
 11
16.0962
 21
31.3141
 31
0.0000
  0
LINE
  8
25
 10
16.4690
 20
31.3141
 30
0.0000
 11
16.8419
 21
30.9412
 31
0.0000
  0
LINE
  8
25
 10
17.2656
 20
31.6869
 30
0.0000
 11
17.6384
 21
32.0598
 31
0.0000
  0
LINE
  8
25
 10
17.6384
 20
32.0598
 30
0.0000
 11
17.6384
 21
30.9412
 31
0.0000
  0
LINE
  8
25
 10
17.2656
 20
30.9412
 30
0.0000
 11
18.0113
 21
30.9412
 31
0.0000
  0
LINE
  8
25
 10
18.9943
 20
30.9412
 30
0.0000
 11
18.9943
 21
32.0598
 31
0.0000
  0
LINE
  8
25
 10
18.9943
 20
32.0598
 30
0.0000
 11
18.4350
 21
31.5005
 31
0.0000
  0
LINE
  8
25
 10
18.4350
 20
31.5005
 30
0.0000
 11
19.1807
 21
31.5005
 31
0.0000
  0
LINE
  8
51
 10
18.3000
 20
27.6000
 30
0.0000
 11
16.7000
 21
27.6000
 31
0.0000
  0
LINE
  8
51
 10
16.7000
 20
27.6000
 30
0.0000
 11
16.7000
 21
28.4000
 31
0.0000
  0
LINE
  8
51
 10
16.7000
 20
28.4000
 30
0.0000
 11
18.3000
 21
28.4000
 31
0.0000
  0
LINE
  8
51
 10
18.3000
 20
28.4000
 30
0.0000
 11
18.3000
 21
27.6000
 31
0.0000
  0
LINE
  8
25
 10
20.3088
 20
26.2980
 30
0.0000
 11
19.1902
 21
26.2980
 31
0.0000
  0
LINE
  8
25
 10
19.1902
 20
26.2980
 30
0.0000
 11
19.1902
 21
26.8573
 31
0.0000
  0
LINE
  8
25
 10
19.1902
 20
26.8573
 30
0.0000
 11
19.3767
 21
27.0437
 31
0.0000
  0
LINE
  8
25
 10
19.3767
 20
27.0437
 30
0.0000
 11
19.7495
 21
27.0437
 31
0.0000
  0
LINE
  8
25
 10
19.7495
 20
27.0437
 30
0.0000
 11
19.9360
 21
26.8573
 31
0.0000
  0
LINE
  8
25
 10
19.9360
 20
26.8573
 30
0.0000
 11
19.9360
 21
26.2980
 31
0.0000
  0
LINE
  8
25
 10
19.9360
 20
26.6709
 30
0.0000
 11
20.3088
 21
27.0437
 31
0.0000
  0
LINE
  8
25
 10
19.5631
 20
27.4674
 30
0.0000
 11
19.1902
 21
27.8403
 31
0.0000
  0
LINE
  8
25
 10
19.1902
 20
27.8403
 30
0.0000
 11
20.3088
 21
27.8403
 31
0.0000
  0
LINE
  8
25
 10
20.3088
 20
27.4674
 30
0.0000
 11
20.3088
 21
28.2131
 31
0.0000
  0
LINE
  8
25
 10
19.1902
 20
29.3825
 30
0.0000
 11
19.1902
 21
28.6368
 31
0.0000
  0
LINE
  8
25
 10
19.1902
 20
28.6368
 30
0.0000
 11
19.7495
 21
28.6368
 31
0.0000
  0
LINE
  8
25
 10
19.7495
 20
28.6368
 30
0.0000
 11
19.5631
 21
29.0096
 31
0.0000
  0
LINE
  8
25
 10
19.5631
 20
29.0096
 30
0.0000
 11
19.5631
 21
29.1961
 31
0.0000
  0
LINE
  8
25
 10
19.5631
 20
29.1961
 30
0.0000
 11
19.7495
 21
29.3825
 31
0.0000
  0
LINE
  8
25
 10
19.7495
 20
29.3825
 30
0.0000
 11
20.1224
 21
29.3825
 31
0.0000
  0
LINE
  8
25
 10
20.1224
 20
29.3825
 30
0.0000
 11
20.3088
 21
29.1961
 31
0.0000
  0
LINE
  8
25
 10
20.3088
 20
29.1961
 30
0.0000
 11
20.3088
 21
28.8232
 31
0.0000
  0
LINE
  8
25
 10
20.3088
 20
28.8232
 30
0.0000
 11
20.1224
 21
28.6368
 31
0.0000
  0
LINE
  8
51
 10
16.7000
 20
26.4000
 30
0.0000
 11
18.3000
 21
26.4000
 31
0.0000
  0
LINE
  8
51
 10
18.3000
 20
26.4000
 30
0.0000
 11
18.3000
 21
25.6000
 31
0.0000
  0
LINE
  8
51
 10
18.3000
 20
25.6000
 30
0.0000
 11
16.7000
 21
25.6000
 31
0.0000
  0
LINE
  8
51
 10
16.7000
 20
25.6000
 30
0.0000
 11
16.7000
 21
26.4000
 31
0.0000
  0
LINE
  8
25
 10
15.5962
 20
23.9412
 30
0.0000
 11
15.5962
 21
25.0598
 31
0.0000
  0
LINE
  8
25
 10
15.5962
 20
25.0598
 30
0.0000
 11
16.1555
 21
25.0598
 31
0.0000
  0
LINE
  8
25
 10
16.1555
 20
25.0598
 30
0.0000
 11
16.3419
 21
24.8733
 31
0.0000
  0
LINE
  8
25
 10
16.3419
 20
24.8733
 30
0.0000
 11
16.3419
 21
24.5005
 31
0.0000
  0
LINE
  8
25
 10
16.3419
 20
24.5005
 30
0.0000
 11
16.1555
 21
24.3141
 31
0.0000
  0
LINE
  8
25
 10
16.1555
 20
24.3141
 30
0.0000
 11
15.5962
 21
24.3141
 31
0.0000
  0
LINE
  8
25
 10
15.9691
 20
24.3141
 30
0.0000
 11
16.3419
 21
23.9412
 31
0.0000
  0
LINE
  8
25
 10
16.7656
 20
24.6869
 30
0.0000
 11
17.1384
 21
25.0598
 31
0.0000
  0
LINE
  8
25
 10
17.1384
 20
25.0598
 30
0.0000
 11
17.1384
 21
23.9412
 31
0.0000
  0
LINE
  8
25
 10
16.7656
 20
23.9412
 30
0.0000
 11
17.5113
 21
23.9412
 31
0.0000
  0
LINE
  8
25
 10
18.6807
 20
25.0598
 30
0.0000
 11
18.3078
 21
24.8733
 31
0.0000
  0
LINE
  8
25
 10
18.3078
 20
24.8733
 30
0.0000
 11
17.9350
 21
24.5005
 31
0.0000
  0
LINE
  8
25
 10
17.9350
 20
24.5005
 30
0.0000
 11
17.9350
 21
24.1276
 31
0.0000
  0
LINE
  8
25
 10
17.9350
 20
24.1276
 30
0.0000
 11
18.1214
 21
23.9412
 31
0.0000
  0
LINE
  8
25
 10
18.1214
 20
23.9412
 30
0.0000
 11
18.4943
 21
23.9412
 31
0.0000
  0
LINE
  8
25
 10
18.4943
 20
23.9412
 30
0.0000
 11
18.6807
 21
24.1276
 31
0.0000
  0
LINE
  8
25
 10
18.6807
 20
24.1276
 30
0.0000
 11
18.6807
 21
24.3141
 31
0.0000
  0
LINE
  8
25
 10
18.6807
 20
24.3141
 30
0.0000
 11
18.4943
 21
24.5005
 31
0.0000
  0
LINE
  8
25
 10
18.4943
 20
24.5005
 30
0.0000
 11
17.9350
 21
24.5005
 31
0.0000
  0
LINE
  8
51
 10
20.4000
 20
25.8000
 30
0.0000
 11
20.4000
 21
24.2000
 31
0.0000
  0
LINE
  8
51
 10
20.4000
 20
24.2000
 30
0.0000
 11
19.6000
 21
24.2000
 31
0.0000
  0
LINE
  8
51
 10
19.6000
 20
24.2000
 30
0.0000
 11
19.6000
 21
25.8000
 31
0.0000
  0
LINE
  8
51
 10
19.6000
 20
25.8000
 30
0.0000
 11
20.4000
 21
25.8000
 31
0.0000
  0
LINE
  8
25
 10
18.3462
 20
22.1912
 30
0.0000
 11
18.3462
 21
23.3098
 31
0.0000
  0
LINE
  8
25
 10
18.3462
 20
23.3098
 30
0.0000
 11
18.9055
 21
23.3098
 31
0.0000
  0
LINE
  8
25
 10
18.9055
 20
23.3098
 30
0.0000
 11
19.0919
 21
23.1233
 31
0.0000
  0
LINE
  8
25
 10
19.0919
 20
23.1233
 30
0.0000
 11
19.0919
 21
22.7505
 31
0.0000
  0
LINE
  8
25
 10
19.0919
 20
22.7505
 30
0.0000
 11
18.9055
 21
22.5641
 31
0.0000
  0
LINE
  8
25
 10
18.9055
 20
22.5641
 30
0.0000
 11
18.3462
 21
22.5641
 31
0.0000
  0
LINE
  8
25
 10
18.7190
 20
22.5641
 30
0.0000
 11
19.0919
 21
22.1912
 31
0.0000
  0
LINE
  8
25
 10
19.5156
 20
22.9369
 30
0.0000
 11
19.8884
 21
23.3098
 31
0.0000
  0
LINE
  8
25
 10
19.8884
 20
23.3098
 30
0.0000
 11
19.8884
 21
22.1912
 31
0.0000
  0
LINE
  8
25
 10
19.5156
 20
22.1912
 30
0.0000
 11
20.2613
 21
22.1912
 31
0.0000
  0
LINE
  8
25
 10
20.6850
 20
23.3098
 30
0.0000
 11
21.4307
 21
23.3098
 31
0.0000
  0
LINE
  8
25
 10
21.4307
 20
23.3098
 30
0.0000
 11
21.4307
 21
23.1233
 31
0.0000
  0
LINE
  8
25
 10
21.4307
 20
23.1233
 30
0.0000
 11
20.6850
 21
22.3776
 31
0.0000
  0
LINE
  8
25
 10
20.6850
 20
22.3776
 30
0.0000
 11
20.6850
 21
22.1912
 31
0.0000
  0
LINE
  8
51
 10
26.9500
 20
18.9000
 30
0.0000
 11
28.5500
 21
18.9000
 31
0.0000
  0
LINE
  8
51
 10
28.5500
 20
18.9000
 30
0.0000
 11
28.5500
 21
18.1000
 31
0.0000
  0
LINE
  8
51
 10
28.5500
 20
18.1000
 30
0.0000
 11
26.9500
 21
18.1000
 31
0.0000
  0
LINE
  8
51
 10
26.9500
 20
18.1000
 30
0.0000
 11
26.9500
 21
18.9000
 31
0.0000
  0
LINE
  8
25
 10
26.0962
 20
19.4412
 30
0.0000
 11
26.0962
 21
20.5598
 31
0.0000
  0
LINE
  8
25
 10
26.0962
 20
20.5598
 30
0.0000
 11
26.6555
 21
20.5598
 31
0.0000
  0
LINE
  8
25
 10
26.6555
 20
20.5598
 30
0.0000
 11
26.8419
 21
20.3733
 31
0.0000
  0
LINE
  8
25
 10
26.8419
 20
20.3733
 30
0.0000
 11
26.8419
 21
20.0005
 31
0.0000
  0
LINE
  8
25
 10
26.8419
 20
20.0005
 30
0.0000
 11
26.6555
 21
19.8141
 31
0.0000
  0
LINE
  8
25
 10
26.6555
 20
19.8141
 30
0.0000
 11
26.0962
 21
19.8141
 31
0.0000
  0
LINE
  8
25
 10
26.4691
 20
19.8141
 30
0.0000
 11
26.8419
 21
19.4412
 31
0.0000
  0
LINE
  8
25
 10
27.2656
 20
20.1869
 30
0.0000
 11
27.6384
 21
20.5598
 31
0.0000
  0
LINE
  8
25
 10
27.6384
 20
20.5598
 30
0.0000
 11
27.6384
 21
19.4412
 31
0.0000
  0
LINE
  8
25
 10
27.2656
 20
19.4412
 30
0.0000
 11
28.0113
 21
19.4412
 31
0.0000
  0
LINE
  8
25
 10
28.4350
 20
20.3733
 30
0.0000
 11
28.6214
 21
20.5598
 31
0.0000
  0
LINE
  8
25
 10
28.6214
 20
20.5598
 30
0.0000
 11
28.9943
 21
20.5598
 31
0.0000
  0
LINE
  8
25
 10
28.9943
 20
20.5598
 30
0.0000
 11
29.1807
 21
20.3733
 31
0.0000
  0
LINE
  8
25
 10
29.1807
 20
20.3733
 30
0.0000
 11
29.1807
 21
20.1869
 31
0.0000
  0
LINE
  8
25
 10
29.1807
 20
20.1869
 30
0.0000
 11
28.9943
 21
20.0005
 31
0.0000
  0
LINE
  8
25
 10
28.9943
 20
20.0005
 30
0.0000
 11
29.1807
 21
19.8141
 31
0.0000
  0
LINE
  8
25
 10
29.1807
 20
19.8141
 30
0.0000
 11
29.1807
 21
19.6276
 31
0.0000
  0
LINE
  8
25
 10
29.1807
 20
19.6276
 30
0.0000
 11
28.9943
 21
19.4412
 31
0.0000
  0
LINE
  8
25
 10
28.9943
 20
19.4412
 30
0.0000
 11
28.6214
 21
19.4412
 31
0.0000
  0
LINE
  8
25
 10
28.6214
 20
19.4412
 30
0.0000
 11
28.4350
 21
19.6276
 31
0.0000
  0
LINE
  8
25
 10
28.4350
 20
19.6276
 30
0.0000
 11
28.4350
 21
19.8141
 31
0.0000
  0
LINE
  8
25
 10
28.4350
 20
19.8141
 30
0.0000
 11
28.6214
 21
20.0005
 31
0.0000
  0
LINE
  8
25
 10
28.6214
 20
20.0005
 30
0.0000
 11
28.4350
 21
20.1869
 31
0.0000
  0
LINE
  8
25
 10
28.4350
 20
20.1869
 30
0.0000
 11
28.4350
 21
20.3733
 31
0.0000
  0
LINE
  8
25
 10
28.6214
 20
20.0005
 30
0.0000
 11
28.9943
 21
20.0005
 31
0.0000
  0
LINE
  8
21
 10
13.7500
 20
13.7500
 30
0.0000
 11
13.7500
 21
19.7500
 31
0.0000
  0
LINE
  8
21
 10
13.7500
 20
19.7500
 30
0.0000
 11
19.7500
 21
19.7500
 31
0.0000
  0
LINE
  8
21
 10
19.7500
 20
19.7500
 30
0.0000
 11
19.7500
 21
13.7500
 31
0.0000
  0
LINE
  8
21
 10
19.7500
 20
13.7500
 30
0.0000
 11
13.7500
 21
13.7500
 31
0.0000
  0
LINE
  8
25
 10
17.5719
 20
21.0083
 30
0.0000
 11
17.3855
 21
21.1948
 31
0.0000
  0
LINE
  8
25
 10
17.3855
 20
21.1948
 30
0.0000
 11
17.0126
 21
21.1948
 31
0.0000
  0
LINE
  8
25
 10
17.0126
 20
21.1948
 30
0.0000
 11
16.8262
 21
21.0083
 31
0.0000
  0
LINE
  8
25
 10
16.8262
 20
21.0083
 30
0.0000
 11
16.8262
 21
20.8219
 31
0.0000
  0
LINE
  8
25
 10
16.8262
 20
20.8219
 30
0.0000
 11
17.0126
 21
20.6355
 31
0.0000
  0
LINE
  8
25
 10
17.0126
 20
20.6355
 30
0.0000
 11
17.3855
 21
20.6355
 31
0.0000
  0
LINE
  8
25
 10
17.3855
 20
20.6355
 30
0.0000
 11
17.5719
 21
20.4490
 31
0.0000
  0
LINE
  8
25
 10
17.5719
 20
20.4490
 30
0.0000
 11
17.5719
 21
20.2626
 31
0.0000
  0
LINE
  8
25
 10
17.5719
 20
20.2626
 30
0.0000
 11
17.3855
 21
20.0762
 31
0.0000
  0
LINE
  8
25
 10
17.3855
 20
20.0762
 30
0.0000
 11
17.0126
 21
20.0762
 31
0.0000
  0
LINE
  8
25
 10
17.0126
 20
20.0762
 30
0.0000
 11
16.8262
 21
20.2626
 31
0.0000
  0
LINE
  8
25
 10
17.9956
 20
21.1948
 30
0.0000
 11
17.9956
 21
20.0762
 31
0.0000
  0
LINE
  8
25
 10
17.9956
 20
20.0762
 30
0.0000
 11
18.3684
 21
20.4490
 31
0.0000
  0
LINE
  8
25
 10
18.3684
 20
20.4490
 30
0.0000
 11
18.7413
 21
20.0762
 31
0.0000
  0
LINE
  8
25
 10
18.7413
 20
20.0762
 30
0.0000
 11
18.7413
 21
21.1948
 31
0.0000
  0
LINE
  8
25
 10
19.1650
 20
20.8219
 30
0.0000
 11
19.5378
 21
21.1948
 31
0.0000
  0
LINE
  8
25
 10
19.5378
 20
21.1948
 30
0.0000
 11
19.5378
 21
20.0762
 31
0.0000
  0
LINE
  8
25
 10
19.1650
 20
20.0762
 30
0.0000
 11
19.9107
 21
20.0762
 31
0.0000
  0
LINE
  8
21
 10
8.5000
 20
7.3750
 30
0.0000
 11
8.5000
 21
9.1250
 31
0.0000
  0
LINE
  8
21
 10
5.0000
 20
9.1250
 30
0.0000
 11
5.0000
 21
7.3750
 31
0.0000
  0
LINE
  8
21
 10
5.0000
 20
9.1250
 30
0.0000
 11
5.2500
 21
9.1250
 31
0.0000
  0
LINE
  8
21
 10
6.3750
 20
9.1250
 30
0.0000
 11
7.1250
 21
9.1250
 31
0.0000
  0
LINE
  8
21
 10
8.2500
 20
9.1250
 30
0.0000
 11
8.5000
 21
9.1250
 31
0.0000
  0
LINE
  8
21
 10
8.2500
 20
7.3750
 30
0.0000
 11
8.5000
 21
7.3750
 31
0.0000
  0
LINE
  8
21
 10
5.0000
 20
7.3750
 30
0.0000
 11
5.2500
 21
7.3750
 31
0.0000
  0
CIRCLE
  8
21
 10
5.0250
 20
6.7750
 30
0.0000
 40
0.2000
  0
LINE
  8
25
 10
8.9552
 20
7.5762
 30
0.0000
 11
9.8874
 21
7.5762
 31
0.0000
  0
LINE
  8
25
 10
9.8874
 20
7.5762
 30
0.0000
 11
10.0738
 21
7.7626
 31
0.0000
  0
LINE
  8
25
 10
10.0738
 20
7.7626
 30
0.0000
 11
10.0738
 21
8.1355
 31
0.0000
  0
LINE
  8
25
 10
10.0738
 20
8.1355
 30
0.0000
 11
9.8874
 21
8.3219
 31
0.0000
  0
LINE
  8
25
 10
9.8874
 20
8.3219
 30
0.0000
 11
8.9552
 21
8.3219
 31
0.0000
  0
LINE
  8
25
 10
9.3281
 20
8.7456
 30
0.0000
 11
8.9552
 21
9.1184
 31
0.0000
  0
LINE
  8
25
 10
8.9552
 20
9.1184
 30
0.0000
 11
10.0738
 21
9.1184
 31
0.0000
  0
LINE
  8
25
 10
10.0738
 20
8.7456
 30
0.0000
 11
10.0738
 21
9.4913
 31
0.0000
  0
LINE
  8
21
 10
25.2500
 20
9.1000
 30
0.0000
 11
26.7500
 21
9.1000
 31
0.0000
  0
LINE
  8
21
 10
26.7500
 20
8.2000
 30
0.0000
 11
26.7500
 21
7.8000
 31
0.0000
  0
LINE
  8
21
 10
25.2500
 20
6.9000
 30
0.0000
 11
26.7500
 21
6.9000
 31
0.0000
  0
LINE
  8
25
 10
25.3262
 20
10.4948
 30
0.0000
 11
25.3262
 21
9.5626
 31
0.0000
  0
LINE
  8
25
 10
25.3262
 20
9.5626
 30
0.0000
 11
25.5126
 21
9.3762
 31
0.0000
  0
LINE
  8
25
 10
25.5126
 20
9.3762
 30
0.0000
 11
25.8855
 21
9.3762
 31
0.0000
  0
LINE
  8
25
 10
25.8855
 20
9.3762
 30
0.0000
 11
26.0719
 21
9.5626
 31
0.0000
  0
LINE
  8
25
 10
26.0719
 20
9.5626
 30
0.0000
 11
26.0719
 21
10.4948
 31
0.0000
  0
LINE
  8
25
 10
27.2413
 20
9.3762
 30
0.0000
 11
26.4956
 21
9.3762
 31
0.0000
  0
LINE
  8
25
 10
26.4956
 20
9.3762
 30
0.0000
 11
27.2413
 21
10.1219
 31
0.0000
  0
LINE
  8
25
 10
27.2413
 20
10.1219
 30
0.0000
 11
27.2413
 21
10.3083
 31
0.0000
  0
LINE
  8
25
 10
27.2413
 20
10.3083
 30
0.0000
 11
27.0549
 21
10.4948
 31
0.0000
  0
LINE
  8
25
 10
27.0549
 20
10.4948
 30
0.0000
 11
26.6820
 21
10.4948
 31
0.0000
  0
LINE
  8
25
 10
26.6820
 20
10.4948
 30
0.0000
 11
26.4956
 21
10.3083
 31
0.0000
  0
CIRCLE
  8
21
 10
24.7500
 20
9.5000
 30
0.0000
 40
0.2500
  0
LINE
  8
21
 10
33.1250
 20
5.2500
 30
0.0000
 11
34.8750
 21
5.2500
 31
0.0000
  0
LINE
  8
21
 10
34.8750
 20
8.7500
 30
0.0000
 11
33.1250
 21
8.7500
 31
0.0000
  0
LINE
  8
21
 10
34.8750
 20
8.7500
 30
0.0000
 11
34.8750
 21
8.5000
 31
0.0000
  0
LINE
  8
21
 10
34.8750
 20
7.3750
 30
0.0000
 11
34.8750
 21
6.6250
 31
0.0000
  0
LINE
  8
21
 10
34.8750
 20
5.5000
 30
0.0000
 11
34.8750
 21
5.2500
 31
0.0000
  0
LINE
  8
21
 10
33.1250
 20
5.5000
 30
0.0000
 11
33.1250
 21
5.2500
 31
0.0000
  0
LINE
  8
21
 10
33.1250
 20
8.7500
 30
0.0000
 11
33.1250
 21
8.5000
 31
0.0000
  0
LINE
  8
25
 10
33.0762
 20
10.2948
 30
0.0000
 11
33.0762
 21
9.3626
 31
0.0000
  0
LINE
  8
25
 10
33.0762
 20
9.3626
 30
0.0000
 11
33.2626
 21
9.1762
 31
0.0000
  0
LINE
  8
25
 10
33.2626
 20
9.1762
 30
0.0000
 11
33.6355
 21
9.1762
 31
0.0000
  0
LINE
  8
25
 10
33.6355
 20
9.1762
 30
0.0000
 11
33.8219
 21
9.3626
 31
0.0000
  0
LINE
  8
25
 10
33.8219
 20
9.3626
 30
0.0000
 11
33.8219
 21
10.2948
 31
0.0000
  0
LINE
  8
25
 10
34.2456
 20
10.1083
 30
0.0000
 11
34.4320
 21
10.2948
 31
0.0000
  0
LINE
  8
25
 10
34.4320
 20
10.2948
 30
0.0000
 11
34.8049
 21
10.2948
 31
0.0000
  0
LINE
  8
25
 10
34.8049
 20
10.2948
 30
0.0000
 11
34.9913
 21
10.1083
 31
0.0000
  0
LINE
  8
25
 10
34.9913
 20
10.1083
 30
0.0000
 11
34.9913
 21
9.9219
 31
0.0000
  0
LINE
  8
25
 10
34.9913
 20
9.9219
 30
0.0000
 11
34.8049
 21
9.7355
 31
0.0000
  0
LINE
  8
25
 10
34.8049
 20
9.7355
 30
0.0000
 11
34.6184
 21
9.7355
 31
0.0000
  0
LINE
  8
25
 10
34.8049
 20
9.7355
 30
0.0000
 11
34.9913
 21
9.5491
 31
0.0000
  0
LINE
  8
25
 10
34.9913
 20
9.5491
 30
0.0000
 11
34.9913
 21
9.3626
 31
0.0000
  0
LINE
  8
25
 10
34.9913
 20
9.3626
 30
0.0000
 11
34.8049
 21
9.1762
 31
0.0000
  0
LINE
  8
25
 10
34.8049
 20
9.1762
 30
0.0000
 11
34.4320
 21
9.1762
 31
0.0000
  0
LINE
  8
25
 10
34.4320
 20
9.1762
 30
0.0000
 11
34.2456
 21
9.3626
 31
0.0000
  0
CIRCLE
  8
21
 10
32.5250
 20
8.7250
 30
0.0000
 40
0.2000
  0
LINE
  8
21
 10
10.7500
 20
21.9000
 30
0.0000
 11
9.2500
 21
21.9000
 31
0.0000
  0
LINE
  8
21
 10
9.2500
 20
22.8000
 30
0.0000
 11
9.2500
 21
23.2000
 31
0.0000
  0
LINE
  8
21
 10
10.7500
 20
24.1000
 30
0.0000
 11
9.2500
 21
24.1000
 31
0.0000
  0
CIRCLE
  8
21
 10
11.2500
 20
21.5000
 30
0.0000
 40
0.2500
  0
LINE
  8
25
 10
6.5762
 20
24.4948
 30
0.0000
 11
6.5762
 21
23.5626
 31
0.0000
  0
LINE
  8
25
 10
6.5762
 20
23.5626
 30
0.0000
 11
6.7626
 21
23.3762
 31
0.0000
  0
LINE
  8
25
 10
6.7626
 20
23.3762
 30
0.0000
 11
7.1355
 21
23.3762
 31
0.0000
  0
LINE
  8
25
 10
7.1355
 20
23.3762
 30
0.0000
 11
7.3219
 21
23.5626
 31
0.0000
  0
LINE
  8
25
 10
7.3219
 20
23.5626
 30
0.0000
 11
7.3219
 21
24.4948
 31
0.0000
  0
LINE
  8
25
 10
8.4913
 20
24.4948
 30
0.0000
 11
7.7456
 21
24.4948
 31
0.0000
  0
LINE
  8
25
 10
7.7456
 20
24.4948
 30
0.0000
 11
7.7456
 21
23.9355
 31
0.0000
  0
LINE
  8
25
 10
7.7456
 20
23.9355
 30
0.0000
 11
8.1184
 21
24.1219
 31
0.0000
  0
LINE
  8
25
 10
8.1184
 20
24.1219
 30
0.0000
 11
8.3049
 21
24.1219
 31
0.0000
  0
LINE
  8
25
 10
8.3049
 20
24.1219
 30
0.0000
 11
8.4913
 21
23.9355
 31
0.0000
  0
LINE
  8
25
 10
8.4913
 20
23.9355
 30
0.0000
 11
8.4913
 21
23.5626
 31
0.0000
  0
LINE
  8
25
 10
8.4913
 20
23.5626
 30
0.0000
 11
8.3049
 21
23.3762
 31
0.0000
  0
LINE
  8
25
 10
8.3049
 20
23.3762
 30
0.0000
 11
7.9320
 21
23.3762
 31
0.0000
  0
LINE
  8
25
 10
7.9320
 20
23.3762
 30
0.0000
 11
7.7456
 21
23.5626
 31
0.0000
  0
LINE
  8
21
 10
9.0000
 20
30.5000
 30
0.0000
 11
13.0000
 21
30.5000
 31
0.0000
  0
LINE
  8
21
 10
13.0000
 20
25.5000
 30
0.0000
 11
12.0000
 21
25.5000
 31
0.0000
  0
LINE
  8
21
 10
12.0000
 20
25.5000
 30
0.0000
 11
9.0000
 21
25.5000
 31
0.0000
  0
LINE
  8
21
 10
12.0000
 20
25.5000
 30
0.0000
 11
12.0000
 21
30.5000
 31
0.0000
  0
CIRCLE
  8
21
 10
13.5000
 20
25.2500
 30
0.0000
 40
0.2000
  0
LINE
  8
25
 10
9.7374
 20
32.1748
 30
0.0000
 11
9.7374
 21
31.2426
 31
0.0000
  0
LINE
  8
25
 10
9.7374
 20
31.2426
 30
0.0000
 11
9.9238
 21
31.0562
 31
0.0000
  0
LINE
  8
25
 10
9.9238
 20
31.0562
 30
0.0000
 11
10.2967
 21
31.0562
 31
0.0000
  0
LINE
  8
25
 10
10.2967
 20
31.0562
 30
0.0000
 11
10.4831
 21
31.2426
 31
0.0000
  0
LINE
  8
25
 10
10.4831
 20
31.2426
 30
0.0000
 11
10.4831
 21
32.1748
 31
0.0000
  0
LINE
  8
25
 10
11.6525
 20
32.1748
 30
0.0000
 11
11.2797
 21
31.9883
 31
0.0000
  0
LINE
  8
25
 10
11.2797
 20
31.9883
 30
0.0000
 11
10.9068
 21
31.6155
 31
0.0000
  0
LINE
  8
25
 10
10.9068
 20
31.6155
 30
0.0000
 11
10.9068
 21
31.2426
 31
0.0000
  0
LINE
  8
25
 10
10.9068
 20
31.2426
 30
0.0000
 11
11.0932
 21
31.0562
 31
0.0000
  0
LINE
  8
25
 10
11.0932
 20
31.0562
 30
0.0000
 11
11.4661
 21
31.0562
 31
0.0000
  0
LINE
  8
25
 10
11.4661
 20
31.0562
 30
0.0000
 11
11.6525
 21
31.2426
 31
0.0000
  0
LINE
  8
25
 10
11.6525
 20
31.2426
 30
0.0000
 11
11.6525
 21
31.4291
 31
0.0000
  0
LINE
  8
25
 10
11.6525
 20
31.4291
 30
0.0000
 11
11.4661
 21
31.6155
 31
0.0000
  0
LINE
  8
25
 10
11.4661
 20
31.6155
 30
0.0000
 11
10.9068
 21
31.6155
 31
0.0000
  0
LINE
  8
21
 10
5.7500
 20
26.9000
 30
0.0000
 11
4.2500
 21
26.9000
 31
0.0000
  0
LINE
  8
21
 10
4.2500
 20
27.8000
 30
0.0000
 11
4.2500
 21
28.2000
 31
0.0000
  0
LINE
  8
21
 10
5.7500
 20
29.1000
 30
0.0000
 11
4.2500
 21
29.1000
 31
0.0000
  0
CIRCLE
  8
21
 10
6.2500
 20
26.5000
 30
0.0000
 40
0.2500
  0
LINE
  8
25
 10
3.5762
 20
26.3948
 30
0.0000
 11
3.5762
 21
25.4626
 31
0.0000
  0
LINE
  8
25
 10
3.5762
 20
25.4626
 30
0.0000
 11
3.7626
 21
25.2762
 31
0.0000
  0
LINE
  8
25
 10
3.7626
 20
25.2762
 30
0.0000
 11
4.1355
 21
25.2762
 31
0.0000
  0
LINE
  8
25
 10
4.1355
 20
25.2762
 30
0.0000
 11
4.3219
 21
25.4626
 31
0.0000
  0
LINE
  8
25
 10
4.3219
 20
25.4626
 30
0.0000
 11
4.3219
 21
26.3948
 31
0.0000
  0
LINE
  8
25
 10
4.7456
 20
26.3948
 30
0.0000
 11
5.4913
 21
26.3948
 31
0.0000
  0
LINE
  8
25
 10
5.4913
 20
26.3948
 30
0.0000
 11
5.4913
 21
26.2083
 31
0.0000
  0
LINE
  8
25
 10
5.4913
 20
26.2083
 30
0.0000
 11
4.7456
 21
25.4626
 31
0.0000
  0
LINE
  8
25
 10
4.7456
 20
25.4626
 30
0.0000
 11
4.7456
 21
25.2762
 31
0.0000
  0
LINE
  8
21
 10
55.0000
 20
22.5000
 30
0.0000
 11
51.0000
 21
22.5000
 31
0.0000
  0
LINE
  8
21
 10
51.0000
 20
27.5000
 30
0.0000
 11
52.0000
 21
27.5000
 31
0.0000
  0
LINE
  8
21
 10
52.0000
 20
27.5000
 30
0.0000
 11
55.0000
 21
27.5000
 31
0.0000
  0
LINE
  8
21
 10
52.0000
 20
27.5000
 30
0.0000
 11
52.0000
 21
22.5000
 31
0.0000
  0
CIRCLE
  8
21
 10
50.5000
 20
27.7500
 30
0.0000
 40
0.2000
  0
LINE
  8
25
 10
52.3262
 20
21.9448
 30
0.0000
 11
52.3262
 21
21.0126
 31
0.0000
  0
LINE
  8
25
 10
52.3262
 20
21.0126
 30
0.0000
 11
52.5126
 21
20.8262
 31
0.0000
  0
LINE
  8
25
 10
52.5126
 20
20.8262
 30
0.0000
 11
52.8855
 21
20.8262
 31
0.0000
  0
LINE
  8
25
 10
52.8855
 20
20.8262
 30
0.0000
 11
53.0719
 21
21.0126
 31
0.0000
  0
LINE
  8
25
 10
53.0719
 20
21.0126
 30
0.0000
 11
53.0719
 21
21.9448
 31
0.0000
  0
LINE
  8
25
 10
53.4956
 20
21.7583
 30
0.0000
 11
53.6820
 21
21.9448
 31
0.0000
  0
LINE
  8
25
 10
53.6820
 20
21.9448
 30
0.0000
 11
54.0549
 21
21.9448
 31
0.0000
  0
LINE
  8
25
 10
54.0549
 20
21.9448
 30
0.0000
 11
54.2413
 21
21.7583
 31
0.0000
  0
LINE
  8
25
 10
54.2413
 20
21.7583
 30
0.0000
 11
54.2413
 21
21.5719
 31
0.0000
  0
LINE
  8
25
 10
54.2413
 20
21.5719
 30
0.0000
 11
54.0549
 21
21.3855
 31
0.0000
  0
LINE
  8
25
 10
54.0549
 20
21.3855
 30
0.0000
 11
54.2413
 21
21.1990
 31
0.0000
  0
LINE
  8
25
 10
54.2413
 20
21.1990
 30
0.0000
 11
54.2413
 21
21.0126
 31
0.0000
  0
LINE
  8
25
 10
54.2413
 20
21.0126
 30
0.0000
 11
54.0549
 21
20.8262
 31
0.0000
  0
LINE
  8
25
 10
54.0549
 20
20.8262
 30
0.0000
 11
53.6820
 21
20.8262
 31
0.0000
  0
LINE
  8
25
 10
53.6820
 20
20.8262
 30
0.0000
 11
53.4956
 21
21.0126
 31
0.0000
  0
LINE
  8
25
 10
53.4956
 20
21.0126
 30
0.0000
 11
53.4956
 21
21.1990
 31
0.0000
  0
LINE
  8
25
 10
53.4956
 20
21.1990
 30
0.0000
 11
53.6820
 21
21.3855
 31
0.0000
  0
LINE
  8
25
 10
53.6820
 20
21.3855
 30
0.0000
 11
53.4956
 21
21.5719
 31
0.0000
  0
LINE
  8
25
 10
53.4956
 20
21.5719
 30
0.0000
 11
53.4956
 21
21.7583
 31
0.0000
  0
LINE
  8
25
 10
53.6820
 20
21.3855
 30
0.0000
 11
54.0549
 21
21.3855
 31
0.0000
  0
ENDSEC
  0
EOF
